<svg width="1180" height="808" viewBox="0 0 1180 808" fill="none" xmlns="http://www.w3.org/2000/svg">
<g clip-path="url(#clip0_12001_3)">
<path fill-rule="evenodd" clip-rule="evenodd" d="M997.605 183H1014.13C832.846 252.515 730.443 384.411 630.506 513.165L630.501 513.16C486.245 699.017 347.012 878.304 -15 856.521V850.465C344.169 872.129 482.45 694.058 625.728 509.463V509.451C723.575 383.389 823.762 254.324 997.605 183Z" fill="url(#paint0_linear_12001_3)" fill-opacity="0.4"/>
<path fill-rule="evenodd" clip-rule="evenodd" d="M1071.91 183H1092.78C876.496 245.342 763.944 390.307 654.358 531.495L654.354 531.49C506.969 721.373 364.835 904.401 -15 873.15V867.089C361.987 898.238 503.175 716.419 649.581 527.792V527.78C756.522 390.002 866.271 248.648 1071.91 183Z" fill="url(#paint1_linear_12001_3)" fill-opacity="0.4"/>
<path fill-rule="evenodd" clip-rule="evenodd" d="M1164.98 183H1195.81V183.162C926.347 230.137 800.447 392.339 678.211 549.824L678.206 549.819C556.835 706.19 439.014 857.904 189.086 889.143H-15V885.268L-14.7917 883.246C380.045 924.116 524 738.649 673.436 546.121V546.109C791.785 393.63 913.578 236.767 1164.98 183Z" fill="url(#paint2_linear_12001_3)" fill-opacity="0.4"/>
<path fill-rule="evenodd" clip-rule="evenodd" d="M1195.81 199.859V206.025C942.657 258.189 820.634 415.388 702.064 568.153L702.059 568.148C596.671 703.928 493.965 836.206 305.121 889.143H280.393C482.48 841.132 588.447 704.679 697.286 564.45V564.438C816.728 410.552 939.663 252.193 1195.81 199.859Z" fill="url(#paint3_linear_12001_3)" fill-opacity="0.4"/>
<path fill-rule="evenodd" clip-rule="evenodd" d="M1195.81 223.455V229.669C958.722 286.553 840.699 438.597 725.915 586.48L725.91 586.475C631.13 708.587 538.511 827.856 383.469 889.143H365.898C529.023 830.235 623.936 708.011 721.139 582.779V582.767C836.813 433.736 955.765 280.514 1195.81 223.458" fill="url(#paint4_linear_12001_3)" fill-opacity="0.4"/>
<path fill-rule="evenodd" clip-rule="evenodd" d="M1195.81 247.873V254.142C974.523 315.244 860.639 461.967 749.768 604.809L749.763 604.804C663.696 715.692 579.407 824.229 448.546 889.143H434.205C570.823 825.452 656.969 714.513 744.992 601.106V601.094C856.769 457.083 971.607 309.159 1195.81 247.87" fill="url(#paint5_linear_12001_3)" fill-opacity="0.4"/>
<path fill-rule="evenodd" clip-rule="evenodd" d="M1195.81 273.162V279.521C990.055 344.309 880.436 485.523 773.621 623.136L773.616 623.131C695.204 724.153 618.269 823.224 506.253 889.14H493.788C610.208 823.769 688.75 722.625 768.845 619.433V619.421C876.59 480.607 987.168 338.148 1195.81 273.159" fill="url(#paint6_linear_12001_3)" fill-opacity="0.4"/>
<path fill-rule="evenodd" clip-rule="evenodd" d="M1195.81 299.407V305.863C1005.29 373.76 900.082 509.271 797.473 641.467L797.469 641.462C726.024 733.51 655.799 823.938 559.153 889.143H547.936C648.091 824.03 719.749 731.748 792.695 637.765V637.753C896.258 504.326 1002.44 367.537 1195.8 299.407" fill="url(#paint7_linear_12001_3)" fill-opacity="0.4"/>
<path fill-rule="evenodd" clip-rule="evenodd" d="M1195.81 326.669V333.22C1020.2 403.616 919.571 533.224 821.326 659.796L821.321 659.792C756.349 743.5 692.387 825.863 608.653 889.143H598.3C684.922 825.638 750.206 741.57 816.551 656.094V656.082C915.772 528.247 1017.41 397.337 1195.81 326.669Z" fill="url(#paint8_linear_12001_3)" fill-opacity="0.4"/>
<path fill-rule="evenodd" clip-rule="evenodd" d="M1195.81 354.995V361.65C1034.76 433.884 938.889 557.391 845.179 678.123L845.174 678.118C786.312 753.954 728.293 828.699 655.635 889.143H645.909C720.992 828.239 780.261 751.907 840.404 674.421V674.408C935.116 552.383 1032.03 427.554 1195.81 354.995Z" fill="url(#paint9_linear_12001_3)" fill-opacity="0.4"/>
<path fill-rule="evenodd" clip-rule="evenodd" d="M1195.81 384.476V391.298C1048.97 464.67 958.019 581.804 869.032 696.45L869.027 696.445C815.979 764.79 763.602 832.237 700.59 889.14H691.39C756.463 831.598 810.005 762.642 864.257 692.747V692.735C954.28 576.752 1046.29 458.233 1195.81 384.473" fill="url(#paint10_linear_12001_3)" fill-opacity="0.4"/>
<path fill-rule="evenodd" clip-rule="evenodd" d="M1195.81 415.213V422.166C1062.76 495.921 976.956 606.468 892.885 714.779L892.878 714.774C845.421 775.915 798.505 836.342 744.033 889.14H735.206C791.47 835.56 839.503 773.695 888.107 711.077V711.064C973.241 601.38 1060.16 489.431 1195.81 415.211" fill="url(#paint11_linear_12001_3)" fill-opacity="0.4"/>
<path fill-rule="evenodd" clip-rule="evenodd" d="M1195.81 447.271V454.427C1076.15 527.76 995.671 631.413 916.738 733.108L916.731 733.104C874.682 787.28 833.057 840.894 786.223 889.143H777.682C826.097 840.003 868.807 785.006 911.96 729.408V729.396C991.997 626.279 1073.61 521.164 1195.81 447.273" fill="url(#paint12_linear_12001_3)" fill-opacity="0.4"/>
<path fill-rule="evenodd" clip-rule="evenodd" d="M1195.81 480.735V488.111C1089.08 560.164 1014.16 656.651 940.591 751.438L940.584 751.433C903.787 798.841 867.31 845.813 827.39 889.143H819.103C860.431 844.837 897.949 796.516 935.811 747.735V747.723C1010.53 651.461 1086.61 553.451 1195.8 480.733" fill="url(#paint13_linear_12001_3)" fill-opacity="0.4"/>
<path fill-rule="evenodd" clip-rule="evenodd" d="M1195.81 515.706V523.319C1101.52 593.183 1032.41 682.199 964.444 769.767L964.439 769.762C932.771 810.559 901.341 851.034 867.753 889.143H859.668C894.532 849.988 926.969 808.195 959.668 766.064V766.052C1028.82 676.956 1099.14 586.359 1195.81 515.706" fill="url(#paint14_linear_12001_3)" fill-opacity="0.4"/>
<path fill-rule="evenodd" clip-rule="evenodd" d="M1195.81 552.279V560.14C1113.46 626.86 1050.4 708.081 988.296 788.094L988.292 788.089C961.654 822.405 935.186 856.495 907.458 889.14H899.506C928.405 855.39 955.871 820.013 983.519 784.391V784.379C1046.86 702.778 1111.17 619.92 1195.81 552.277" fill="url(#paint15_linear_12001_3)" fill-opacity="0.4"/>
<path fill-rule="evenodd" clip-rule="evenodd" d="M1195.81 590.524V598.643C1124.87 661.218 1068.12 734.312 1012.15 806.423L1012.14 806.418C990.454 834.363 968.875 862.154 946.64 889.14H938.794C962.124 861.006 984.689 831.947 1007.37 802.72V802.708C1064.62 728.951 1122.68 654.171 1195.81 590.521" fill="url(#paint16_linear_12001_3)" fill-opacity="0.4"/>
<path fill-rule="evenodd" clip-rule="evenodd" d="M1195.81 630.483V638.874C1135.72 696.28 1085.56 760.904 1036 824.752L1036 824.747C1019.19 846.404 1002.44 867.971 985.41 889.143H977.644C995.714 866.791 1013.43 843.972 1031.22 821.049V821.037C1082.11 755.482 1133.63 689.12 1195.81 630.483Z" fill="url(#paint17_linear_12001_3)" fill-opacity="0.4"/>
<path fill-rule="evenodd" clip-rule="evenodd" d="M1195.81 672.161V680.877C1146.02 732.082 1102.71 787.868 1059.86 843.081L1059.85 843.076C1047.87 858.514 1035.92 873.906 1023.88 889.143H1016.17C1029.21 872.702 1042.12 856.068 1055.08 839.379V839.366C1099.32 782.374 1144.03 724.768 1195.81 672.159" fill="url(#paint18_linear_12001_3)" fill-opacity="0.4"/>
<path fill-rule="evenodd" clip-rule="evenodd" d="M1195.81 715.586V724.579C1155.77 768.575 1119.58 815.194 1083.71 861.408L1083.7 861.403C1076.51 870.673 1069.32 879.928 1062.13 889.14H1054.46C1062.63 878.706 1070.77 868.218 1078.93 857.705V857.693C1116.23 809.636 1153.88 761.148 1195.81 715.583" fill="url(#paint19_linear_12001_3)" fill-opacity="0.4"/>
<path fill-rule="evenodd" clip-rule="evenodd" d="M1195.81 760.625V769.893C1164.99 805.74 1136.18 842.868 1107.56 879.737L1107.55 879.732C1105.12 882.871 1102.68 886.009 1100.25 889.143H1092.6C1095.99 884.779 1099.39 880.41 1102.78 876.035V876.022C1132.87 837.25 1163.2 798.199 1195.8 760.625" fill="url(#paint20_linear_12001_3)" fill-opacity="0.4"/>
<path fill-rule="evenodd" clip-rule="evenodd" d="M1195.81 807.13V816.649C1176.16 840.58 1157.18 864.89 1138.34 889.143H1130.68C1151.99 861.699 1173.45 834.155 1195.8 807.13" fill="url(#paint21_linear_12001_3)" fill-opacity="0.4"/>
<path fill-rule="evenodd" clip-rule="evenodd" d="M1195.81 854.843V864.556C1189.31 872.734 1182.87 880.936 1176.46 889.14H1168.79C1177.72 877.686 1186.71 866.237 1195.81 854.841" fill="url(#paint22_linear_12001_3)" fill-opacity="0.4"/>
<path fill-rule="evenodd" clip-rule="evenodd" d="M183.202 183H166.674C347.961 252.515 450.364 384.411 550.302 513.165L550.306 513.16C694.562 699.015 833.793 878.301 1195.8 856.521V850.465C836.636 872.128 698.354 694.058 555.077 509.463V509.451C457.232 383.389 357.045 254.324 183.202 183Z" fill="url(#paint23_linear_12001_3)" fill-opacity="0.4"/>
<path fill-rule="evenodd" clip-rule="evenodd" d="M108.899 183H88.0299C304.312 245.342 416.863 390.307 526.449 531.495L526.453 531.49C673.835 721.373 815.97 904.401 1195.8 873.15V867.089C818.817 898.238 677.63 716.419 531.224 527.792V527.78C424.286 390.002 314.536 248.648 108.899 183Z" fill="url(#paint24_linear_12001_3)" fill-opacity="0.4"/>
<path fill-rule="evenodd" clip-rule="evenodd" d="M15.8296 183H-15V183.162C254.46 230.137 380.36 392.339 502.596 549.824L502.601 549.819C623.972 706.19 741.793 857.904 991.721 889.143H1195.81V885.268L1195.6 883.246C800.762 924.116 656.807 738.649 507.371 546.121V546.109C389.022 393.63 267.229 236.767 15.8296 183Z" fill="url(#paint25_linear_12001_3)" fill-opacity="0.4"/>
<path fill-rule="evenodd" clip-rule="evenodd" d="M-15 199.859V206.025C238.151 258.189 360.173 415.388 478.743 568.153L478.748 568.148C584.136 703.928 686.842 836.206 875.687 889.143H900.414C698.328 841.132 592.36 704.679 483.521 564.45V564.438C364.079 410.552 241.144 252.193 -15 199.859Z" fill="url(#paint26_linear_12001_3)" fill-opacity="0.4"/>
<path fill-rule="evenodd" clip-rule="evenodd" d="M-15 223.455V229.669C222.086 286.553 340.108 438.597 454.893 586.48L454.897 586.475C549.677 708.587 642.296 827.856 797.338 889.143H814.909C651.784 830.235 556.872 708.011 459.668 582.779V582.767C343.995 433.736 225.045 280.514 -15 223.455Z" fill="url(#paint27_linear_12001_3)" fill-opacity="0.4"/>
<path fill-rule="evenodd" clip-rule="evenodd" d="M-15 247.873V254.142C206.285 315.244 320.168 461.968 431.04 604.809L431.044 604.804C517.111 715.692 601.4 824.229 732.262 889.143H746.603C609.985 825.452 523.838 714.513 435.815 601.106V601.094C324.038 457.083 209.203 309.159 -15 247.873Z" fill="url(#paint28_linear_12001_3)" fill-opacity="0.4"/>
<path fill-rule="evenodd" clip-rule="evenodd" d="M-15 273.162V279.521C190.752 344.309 300.372 485.523 407.187 623.136L407.192 623.131C485.603 724.153 562.538 823.224 674.555 889.14H687.019C570.6 823.769 492.057 722.625 411.962 619.433V619.421C304.22 480.609 193.639 338.15 -15 273.162Z" fill="url(#paint29_linear_12001_3)" fill-opacity="0.4"/>
<path fill-rule="evenodd" clip-rule="evenodd" d="M-15 299.407V305.863C175.518 373.76 280.725 509.271 383.334 641.467L383.339 641.462C454.784 733.51 525.008 823.938 621.655 889.143H632.871C532.716 824.03 461.058 731.748 388.112 637.765V637.753C284.546 504.326 178.361 367.537 -15 299.407Z" fill="url(#paint30_linear_12001_3)" fill-opacity="0.4"/>
<path fill-rule="evenodd" clip-rule="evenodd" d="M-15 326.669V333.22C160.606 403.616 261.236 533.224 359.481 659.796L359.486 659.792C424.458 743.5 488.42 825.863 572.154 889.143H582.507C495.886 825.638 430.601 741.57 364.256 656.094V656.082C265.038 528.247 163.395 397.337 -15 326.669Z" fill="url(#paint31_linear_12001_3)" fill-opacity="0.4"/>
<path fill-rule="evenodd" clip-rule="evenodd" d="M-15 354.995V361.65C146.049 433.884 241.919 557.391 335.628 678.123L335.633 678.118C394.495 753.954 452.514 828.699 525.173 889.143H534.898C459.816 828.239 400.547 751.907 340.403 674.421V674.408C245.692 552.383 148.776 427.554 -15 354.995Z" fill="url(#paint32_linear_12001_3)" fill-opacity="0.4"/>
<path fill-rule="evenodd" clip-rule="evenodd" d="M-15 384.476V391.298C131.842 464.67 222.788 581.804 311.775 696.45L311.78 696.445C364.828 764.79 417.205 832.237 480.218 889.14H489.417C424.344 831.598 370.802 762.642 316.551 692.747V692.735C226.529 576.754 134.52 458.236 -15 384.476Z" fill="url(#paint33_linear_12001_3)" fill-opacity="0.4"/>
<path fill-rule="evenodd" clip-rule="evenodd" d="M-15 415.213V422.166C118.048 495.921 203.851 606.468 287.922 714.779L287.929 714.774C335.386 775.915 382.302 836.342 436.774 889.14H445.601C389.337 835.56 341.304 773.695 292.7 711.077V711.064C207.566 601.382 120.649 489.433 -15 415.213Z" fill="url(#paint34_linear_12001_3)" fill-opacity="0.4"/>
<path fill-rule="evenodd" clip-rule="evenodd" d="M-15 447.271V454.427C104.659 527.76 185.137 631.413 264.069 733.108L264.077 733.104C306.125 787.28 347.751 840.894 394.585 889.143H403.126C354.71 840.003 312 785.006 268.847 729.408V729.396C188.81 626.279 107.197 521.161 -15 447.271Z" fill="url(#paint35_linear_12001_3)" fill-opacity="0.4"/>
<path fill-rule="evenodd" clip-rule="evenodd" d="M-15 480.735V488.111C91.7302 560.164 166.645 656.651 240.216 751.438L240.224 751.433C277.02 798.841 313.497 845.813 353.417 889.143H361.704C320.377 844.837 282.859 796.516 244.997 747.735V747.723C170.278 651.461 94.1954 553.451 -15 480.735Z" fill="url(#paint36_linear_12001_3)" fill-opacity="0.4"/>
<path fill-rule="evenodd" clip-rule="evenodd" d="M-15 515.706V523.319C79.2831 593.183 148.396 682.199 216.363 769.767L216.368 769.762C248.036 810.559 279.466 851.034 313.054 889.143H321.139C286.275 849.988 253.838 808.195 221.139 766.064V766.052C151.987 676.956 81.666 586.359 -15 515.706Z" fill="url(#paint37_linear_12001_3)" fill-opacity="0.4"/>
<path fill-rule="evenodd" clip-rule="evenodd" d="M-15 552.279V560.14C67.3422 626.86 130.408 708.081 192.511 788.094L192.515 788.089C219.153 822.405 245.621 856.495 273.349 889.14H281.301C252.402 855.39 224.936 820.013 197.288 784.391V784.379C133.954 702.78 69.6354 619.922 -15 552.279Z" fill="url(#paint38_linear_12001_3)" fill-opacity="0.4"/>
<path fill-rule="evenodd" clip-rule="evenodd" d="M-15 590.524V598.643C55.9388 661.218 112.687 734.312 168.658 806.423L168.663 806.418C190.353 834.363 211.932 862.154 234.167 889.14H242.013C218.683 861.006 196.119 831.947 173.433 802.72V802.708C116.189 728.953 58.1303 654.171 -15 590.524Z" fill="url(#paint39_linear_12001_3)" fill-opacity="0.4"/>
<path fill-rule="evenodd" clip-rule="evenodd" d="M-15 630.483V638.874C45.0851 696.28 95.2464 760.904 144.805 824.752L144.81 824.747C161.62 846.404 178.363 867.971 195.397 889.143H203.163C185.093 866.791 167.374 843.972 149.583 821.049V821.037C98.6996 755.482 47.1749 689.122 -15 630.483Z" fill="url(#paint40_linear_12001_3)" fill-opacity="0.4"/>
<path fill-rule="evenodd" clip-rule="evenodd" d="M-15 672.161V680.877C34.7836 732.082 78.099 787.868 120.952 843.081L120.957 843.076C132.939 858.514 144.89 873.906 156.932 889.143H164.638C151.597 872.702 138.683 856.068 125.727 839.379V839.366C81.4941 782.374 36.7814 724.768 -15 672.161Z" fill="url(#paint41_linear_12001_3)" fill-opacity="0.4"/>
<path fill-rule="evenodd" clip-rule="evenodd" d="M-15 715.586V724.579C25.0366 768.575 61.23 815.194 97.099 861.408L97.1038 861.403C104.298 870.673 111.483 879.928 118.68 889.14H126.347C118.179 878.706 110.033 868.218 101.874 857.705V857.693C64.5767 809.639 26.9303 761.151 -15 715.586Z" fill="url(#paint42_linear_12001_3)" fill-opacity="0.4"/>
<path fill-rule="evenodd" clip-rule="evenodd" d="M-15 760.625V769.893C15.8126 805.74 44.6298 842.868 73.2485 879.737L73.2533 879.732C75.6895 882.871 78.1232 886.009 80.5593 889.143H88.2068C84.8141 884.779 81.4214 880.41 78.0263 876.035V876.022C47.9305 837.252 17.6095 798.199 -15 760.625Z" fill="url(#paint43_linear_12001_3)" fill-opacity="0.4"/>
<path fill-rule="evenodd" clip-rule="evenodd" d="M-15 807.13V816.649C4.64414 840.58 23.6296 864.89 42.4673 889.143H50.1293C28.8215 861.699 7.35392 834.155 -15 807.13Z" fill="url(#paint44_linear_12001_3)" fill-opacity="0.4"/>
<path fill-rule="evenodd" clip-rule="evenodd" d="M-15 854.843V864.556C-8.50765 872.734 -2.06616 880.936 4.34385 889.14H12.0204C3.08704 877.688 -5.90199 866.239 -15 854.843Z" fill="url(#paint45_linear_12001_3)" fill-opacity="0.4"/>
</g>
<defs>
<linearGradient id="paint0_linear_12001_3" x1="590.405" y1="183" x2="590.405" y2="889.143" gradientUnits="userSpaceOnUse">
<stop stop-color="#7C15C9" stop-opacity="0"/>
<stop offset="0.28" stop-color="#7C15C9" stop-opacity="0"/>
<stop offset="0.5" stop-color="#7C15C9"/>
<stop offset="1" stop-color="#3D016A"/>
</linearGradient>
<linearGradient id="paint1_linear_12001_3" x1="590.405" y1="183" x2="590.405" y2="889.143" gradientUnits="userSpaceOnUse">
<stop stop-color="#7C15C9" stop-opacity="0"/>
<stop offset="0.28" stop-color="#7C15C9" stop-opacity="0"/>
<stop offset="0.5" stop-color="#7C15C9"/>
<stop offset="1" stop-color="#3D016A"/>
</linearGradient>
<linearGradient id="paint2_linear_12001_3" x1="590.405" y1="183" x2="590.405" y2="889.143" gradientUnits="userSpaceOnUse">
<stop stop-color="#7C15C9" stop-opacity="0"/>
<stop offset="0.28" stop-color="#7C15C9" stop-opacity="0"/>
<stop offset="0.5" stop-color="#7C15C9"/>
<stop offset="1" stop-color="#3D016A"/>
</linearGradient>
<linearGradient id="paint3_linear_12001_3" x1="590.405" y1="183" x2="590.405" y2="889.143" gradientUnits="userSpaceOnUse">
<stop stop-color="#7C15C9" stop-opacity="0"/>
<stop offset="0.28" stop-color="#7C15C9" stop-opacity="0"/>
<stop offset="0.5" stop-color="#7C15C9"/>
<stop offset="1" stop-color="#3D016A"/>
</linearGradient>
<linearGradient id="paint4_linear_12001_3" x1="590.405" y1="183" x2="590.405" y2="889.143" gradientUnits="userSpaceOnUse">
<stop stop-color="#7C15C9" stop-opacity="0"/>
<stop offset="0.28" stop-color="#7C15C9" stop-opacity="0"/>
<stop offset="0.5" stop-color="#7C15C9"/>
<stop offset="1" stop-color="#3D016A"/>
</linearGradient>
<linearGradient id="paint5_linear_12001_3" x1="590.405" y1="183" x2="590.405" y2="889.143" gradientUnits="userSpaceOnUse">
<stop stop-color="#7C15C9" stop-opacity="0"/>
<stop offset="0.28" stop-color="#7C15C9" stop-opacity="0"/>
<stop offset="0.5" stop-color="#7C15C9"/>
<stop offset="1" stop-color="#3D016A"/>
</linearGradient>
<linearGradient id="paint6_linear_12001_3" x1="590.405" y1="183" x2="590.405" y2="889.143" gradientUnits="userSpaceOnUse">
<stop stop-color="#7C15C9" stop-opacity="0"/>
<stop offset="0.28" stop-color="#7C15C9" stop-opacity="0"/>
<stop offset="0.5" stop-color="#7C15C9"/>
<stop offset="1" stop-color="#3D016A"/>
</linearGradient>
<linearGradient id="paint7_linear_12001_3" x1="590.405" y1="183" x2="590.405" y2="889.143" gradientUnits="userSpaceOnUse">
<stop stop-color="#7C15C9" stop-opacity="0"/>
<stop offset="0.28" stop-color="#7C15C9" stop-opacity="0"/>
<stop offset="0.5" stop-color="#7C15C9"/>
<stop offset="1" stop-color="#3D016A"/>
</linearGradient>
<linearGradient id="paint8_linear_12001_3" x1="590.405" y1="183" x2="590.405" y2="889.143" gradientUnits="userSpaceOnUse">
<stop stop-color="#7C15C9" stop-opacity="0"/>
<stop offset="0.28" stop-color="#7C15C9" stop-opacity="0"/>
<stop offset="0.5" stop-color="#7C15C9"/>
<stop offset="1" stop-color="#3D016A"/>
</linearGradient>
<linearGradient id="paint9_linear_12001_3" x1="590.405" y1="183" x2="590.405" y2="889.143" gradientUnits="userSpaceOnUse">
<stop stop-color="#7C15C9" stop-opacity="0"/>
<stop offset="0.28" stop-color="#7C15C9" stop-opacity="0"/>
<stop offset="0.5" stop-color="#7C15C9"/>
<stop offset="1" stop-color="#3D016A"/>
</linearGradient>
<linearGradient id="paint10_linear_12001_3" x1="590.405" y1="183" x2="590.405" y2="889.143" gradientUnits="userSpaceOnUse">
<stop stop-color="#7C15C9" stop-opacity="0"/>
<stop offset="0.28" stop-color="#7C15C9" stop-opacity="0"/>
<stop offset="0.5" stop-color="#7C15C9"/>
<stop offset="1" stop-color="#3D016A"/>
</linearGradient>
<linearGradient id="paint11_linear_12001_3" x1="590.405" y1="183" x2="590.405" y2="889.143" gradientUnits="userSpaceOnUse">
<stop stop-color="#7C15C9" stop-opacity="0"/>
<stop offset="0.28" stop-color="#7C15C9" stop-opacity="0"/>
<stop offset="0.5" stop-color="#7C15C9"/>
<stop offset="1" stop-color="#3D016A"/>
</linearGradient>
<linearGradient id="paint12_linear_12001_3" x1="590.405" y1="183" x2="590.405" y2="889.143" gradientUnits="userSpaceOnUse">
<stop stop-color="#7C15C9" stop-opacity="0"/>
<stop offset="0.28" stop-color="#7C15C9" stop-opacity="0"/>
<stop offset="0.5" stop-color="#7C15C9"/>
<stop offset="1" stop-color="#3D016A"/>
</linearGradient>
<linearGradient id="paint13_linear_12001_3" x1="590.405" y1="183" x2="590.405" y2="889.143" gradientUnits="userSpaceOnUse">
<stop stop-color="#7C15C9" stop-opacity="0"/>
<stop offset="0.28" stop-color="#7C15C9" stop-opacity="0"/>
<stop offset="0.5" stop-color="#7C15C9"/>
<stop offset="1" stop-color="#3D016A"/>
</linearGradient>
<linearGradient id="paint14_linear_12001_3" x1="590.405" y1="183" x2="590.405" y2="889.143" gradientUnits="userSpaceOnUse">
<stop stop-color="#7C15C9" stop-opacity="0"/>
<stop offset="0.28" stop-color="#7C15C9" stop-opacity="0"/>
<stop offset="0.5" stop-color="#7C15C9"/>
<stop offset="1" stop-color="#3D016A"/>
</linearGradient>
<linearGradient id="paint15_linear_12001_3" x1="590.405" y1="183" x2="590.405" y2="889.143" gradientUnits="userSpaceOnUse">
<stop stop-color="#7C15C9" stop-opacity="0"/>
<stop offset="0.28" stop-color="#7C15C9" stop-opacity="0"/>
<stop offset="0.5" stop-color="#7C15C9"/>
<stop offset="1" stop-color="#3D016A"/>
</linearGradient>
<linearGradient id="paint16_linear_12001_3" x1="590.405" y1="183" x2="590.405" y2="889.143" gradientUnits="userSpaceOnUse">
<stop stop-color="#7C15C9" stop-opacity="0"/>
<stop offset="0.28" stop-color="#7C15C9" stop-opacity="0"/>
<stop offset="0.5" stop-color="#7C15C9"/>
<stop offset="1" stop-color="#3D016A"/>
</linearGradient>
<linearGradient id="paint17_linear_12001_3" x1="590.405" y1="183" x2="590.405" y2="889.143" gradientUnits="userSpaceOnUse">
<stop stop-color="#7C15C9" stop-opacity="0"/>
<stop offset="0.28" stop-color="#7C15C9" stop-opacity="0"/>
<stop offset="0.5" stop-color="#7C15C9"/>
<stop offset="1" stop-color="#3D016A"/>
</linearGradient>
<linearGradient id="paint18_linear_12001_3" x1="590.405" y1="183" x2="590.405" y2="889.143" gradientUnits="userSpaceOnUse">
<stop stop-color="#7C15C9" stop-opacity="0"/>
<stop offset="0.28" stop-color="#7C15C9" stop-opacity="0"/>
<stop offset="0.5" stop-color="#7C15C9"/>
<stop offset="1" stop-color="#3D016A"/>
</linearGradient>
<linearGradient id="paint19_linear_12001_3" x1="590.405" y1="183" x2="590.405" y2="889.143" gradientUnits="userSpaceOnUse">
<stop stop-color="#7C15C9" stop-opacity="0"/>
<stop offset="0.28" stop-color="#7C15C9" stop-opacity="0"/>
<stop offset="0.5" stop-color="#7C15C9"/>
<stop offset="1" stop-color="#3D016A"/>
</linearGradient>
<linearGradient id="paint20_linear_12001_3" x1="590.405" y1="183" x2="590.405" y2="889.143" gradientUnits="userSpaceOnUse">
<stop stop-color="#7C15C9" stop-opacity="0"/>
<stop offset="0.28" stop-color="#7C15C9" stop-opacity="0"/>
<stop offset="0.5" stop-color="#7C15C9"/>
<stop offset="1" stop-color="#3D016A"/>
</linearGradient>
<linearGradient id="paint21_linear_12001_3" x1="590.405" y1="183" x2="590.405" y2="889.143" gradientUnits="userSpaceOnUse">
<stop stop-color="#7C15C9" stop-opacity="0"/>
<stop offset="0.28" stop-color="#7C15C9" stop-opacity="0"/>
<stop offset="0.5" stop-color="#7C15C9"/>
<stop offset="1" stop-color="#3D016A"/>
</linearGradient>
<linearGradient id="paint22_linear_12001_3" x1="590.405" y1="183" x2="590.405" y2="889.143" gradientUnits="userSpaceOnUse">
<stop stop-color="#7C15C9" stop-opacity="0"/>
<stop offset="0.28" stop-color="#7C15C9" stop-opacity="0"/>
<stop offset="0.5" stop-color="#7C15C9"/>
<stop offset="1" stop-color="#3D016A"/>
</linearGradient>
<linearGradient id="paint23_linear_12001_3" x1="590.405" y1="183" x2="590.405" y2="889.143" gradientUnits="userSpaceOnUse">
<stop stop-color="#7C15C9" stop-opacity="0"/>
<stop offset="0.28" stop-color="#7C15C9" stop-opacity="0"/>
<stop offset="0.5" stop-color="#7C15C9"/>
<stop offset="1" stop-color="#3D016A"/>
</linearGradient>
<linearGradient id="paint24_linear_12001_3" x1="590.405" y1="183" x2="590.405" y2="889.143" gradientUnits="userSpaceOnUse">
<stop stop-color="#7C15C9" stop-opacity="0"/>
<stop offset="0.28" stop-color="#7C15C9" stop-opacity="0"/>
<stop offset="0.5" stop-color="#7C15C9"/>
<stop offset="1" stop-color="#3D016A"/>
</linearGradient>
<linearGradient id="paint25_linear_12001_3" x1="590.405" y1="183" x2="590.405" y2="889.143" gradientUnits="userSpaceOnUse">
<stop stop-color="#7C15C9" stop-opacity="0"/>
<stop offset="0.28" stop-color="#7C15C9" stop-opacity="0"/>
<stop offset="0.5" stop-color="#7C15C9"/>
<stop offset="1" stop-color="#3D016A"/>
</linearGradient>
<linearGradient id="paint26_linear_12001_3" x1="590.405" y1="183" x2="590.405" y2="889.143" gradientUnits="userSpaceOnUse">
<stop stop-color="#7C15C9" stop-opacity="0"/>
<stop offset="0.28" stop-color="#7C15C9" stop-opacity="0"/>
<stop offset="0.5" stop-color="#7C15C9"/>
<stop offset="1" stop-color="#3D016A"/>
</linearGradient>
<linearGradient id="paint27_linear_12001_3" x1="590.405" y1="183" x2="590.405" y2="889.143" gradientUnits="userSpaceOnUse">
<stop stop-color="#7C15C9" stop-opacity="0"/>
<stop offset="0.28" stop-color="#7C15C9" stop-opacity="0"/>
<stop offset="0.5" stop-color="#7C15C9"/>
<stop offset="1" stop-color="#3D016A"/>
</linearGradient>
<linearGradient id="paint28_linear_12001_3" x1="590.405" y1="183" x2="590.405" y2="889.143" gradientUnits="userSpaceOnUse">
<stop stop-color="#7C15C9" stop-opacity="0"/>
<stop offset="0.28" stop-color="#7C15C9" stop-opacity="0"/>
<stop offset="0.5" stop-color="#7C15C9"/>
<stop offset="1" stop-color="#3D016A"/>
</linearGradient>
<linearGradient id="paint29_linear_12001_3" x1="590.405" y1="183" x2="590.405" y2="889.143" gradientUnits="userSpaceOnUse">
<stop stop-color="#7C15C9" stop-opacity="0"/>
<stop offset="0.28" stop-color="#7C15C9" stop-opacity="0"/>
<stop offset="0.5" stop-color="#7C15C9"/>
<stop offset="1" stop-color="#3D016A"/>
</linearGradient>
<linearGradient id="paint30_linear_12001_3" x1="590.405" y1="183" x2="590.405" y2="889.143" gradientUnits="userSpaceOnUse">
<stop stop-color="#7C15C9" stop-opacity="0"/>
<stop offset="0.28" stop-color="#7C15C9" stop-opacity="0"/>
<stop offset="0.5" stop-color="#7C15C9"/>
<stop offset="1" stop-color="#3D016A"/>
</linearGradient>
<linearGradient id="paint31_linear_12001_3" x1="590.405" y1="183" x2="590.405" y2="889.143" gradientUnits="userSpaceOnUse">
<stop stop-color="#7C15C9" stop-opacity="0"/>
<stop offset="0.28" stop-color="#7C15C9" stop-opacity="0"/>
<stop offset="0.5" stop-color="#7C15C9"/>
<stop offset="1" stop-color="#3D016A"/>
</linearGradient>
<linearGradient id="paint32_linear_12001_3" x1="590.405" y1="183" x2="590.405" y2="889.143" gradientUnits="userSpaceOnUse">
<stop stop-color="#7C15C9" stop-opacity="0"/>
<stop offset="0.28" stop-color="#7C15C9" stop-opacity="0"/>
<stop offset="0.5" stop-color="#7C15C9"/>
<stop offset="1" stop-color="#3D016A"/>
</linearGradient>
<linearGradient id="paint33_linear_12001_3" x1="590.405" y1="183" x2="590.405" y2="889.143" gradientUnits="userSpaceOnUse">
<stop stop-color="#7C15C9" stop-opacity="0"/>
<stop offset="0.28" stop-color="#7C15C9" stop-opacity="0"/>
<stop offset="0.5" stop-color="#7C15C9"/>
<stop offset="1" stop-color="#3D016A"/>
</linearGradient>
<linearGradient id="paint34_linear_12001_3" x1="590.405" y1="183" x2="590.405" y2="889.143" gradientUnits="userSpaceOnUse">
<stop stop-color="#7C15C9" stop-opacity="0"/>
<stop offset="0.28" stop-color="#7C15C9" stop-opacity="0"/>
<stop offset="0.5" stop-color="#7C15C9"/>
<stop offset="1" stop-color="#3D016A"/>
</linearGradient>
<linearGradient id="paint35_linear_12001_3" x1="590.405" y1="183" x2="590.405" y2="889.143" gradientUnits="userSpaceOnUse">
<stop stop-color="#7C15C9" stop-opacity="0"/>
<stop offset="0.28" stop-color="#7C15C9" stop-opacity="0"/>
<stop offset="0.5" stop-color="#7C15C9"/>
<stop offset="1" stop-color="#3D016A"/>
</linearGradient>
<linearGradient id="paint36_linear_12001_3" x1="590.405" y1="183" x2="590.405" y2="889.143" gradientUnits="userSpaceOnUse">
<stop stop-color="#7C15C9" stop-opacity="0"/>
<stop offset="0.28" stop-color="#7C15C9" stop-opacity="0"/>
<stop offset="0.5" stop-color="#7C15C9"/>
<stop offset="1" stop-color="#3D016A"/>
</linearGradient>
<linearGradient id="paint37_linear_12001_3" x1="590.405" y1="183" x2="590.405" y2="889.143" gradientUnits="userSpaceOnUse">
<stop stop-color="#7C15C9" stop-opacity="0"/>
<stop offset="0.28" stop-color="#7C15C9" stop-opacity="0"/>
<stop offset="0.5" stop-color="#7C15C9"/>
<stop offset="1" stop-color="#3D016A"/>
</linearGradient>
<linearGradient id="paint38_linear_12001_3" x1="590.405" y1="183" x2="590.405" y2="889.143" gradientUnits="userSpaceOnUse">
<stop stop-color="#7C15C9" stop-opacity="0"/>
<stop offset="0.28" stop-color="#7C15C9" stop-opacity="0"/>
<stop offset="0.5" stop-color="#7C15C9"/>
<stop offset="1" stop-color="#3D016A"/>
</linearGradient>
<linearGradient id="paint39_linear_12001_3" x1="590.405" y1="183" x2="590.405" y2="889.143" gradientUnits="userSpaceOnUse">
<stop stop-color="#7C15C9" stop-opacity="0"/>
<stop offset="0.28" stop-color="#7C15C9" stop-opacity="0"/>
<stop offset="0.5" stop-color="#7C15C9"/>
<stop offset="1" stop-color="#3D016A"/>
</linearGradient>
<linearGradient id="paint40_linear_12001_3" x1="590.405" y1="183" x2="590.405" y2="889.143" gradientUnits="userSpaceOnUse">
<stop stop-color="#7C15C9" stop-opacity="0"/>
<stop offset="0.28" stop-color="#7C15C9" stop-opacity="0"/>
<stop offset="0.5" stop-color="#7C15C9"/>
<stop offset="1" stop-color="#3D016A"/>
</linearGradient>
<linearGradient id="paint41_linear_12001_3" x1="590.405" y1="183" x2="590.405" y2="889.143" gradientUnits="userSpaceOnUse">
<stop stop-color="#7C15C9" stop-opacity="0"/>
<stop offset="0.28" stop-color="#7C15C9" stop-opacity="0"/>
<stop offset="0.5" stop-color="#7C15C9"/>
<stop offset="1" stop-color="#3D016A"/>
</linearGradient>
<linearGradient id="paint42_linear_12001_3" x1="590.405" y1="183" x2="590.405" y2="889.143" gradientUnits="userSpaceOnUse">
<stop stop-color="#7C15C9" stop-opacity="0"/>
<stop offset="0.28" stop-color="#7C15C9" stop-opacity="0"/>
<stop offset="0.5" stop-color="#7C15C9"/>
<stop offset="1" stop-color="#3D016A"/>
</linearGradient>
<linearGradient id="paint43_linear_12001_3" x1="590.405" y1="183" x2="590.405" y2="889.143" gradientUnits="userSpaceOnUse">
<stop stop-color="#7C15C9" stop-opacity="0"/>
<stop offset="0.28" stop-color="#7C15C9" stop-opacity="0"/>
<stop offset="0.5" stop-color="#7C15C9"/>
<stop offset="1" stop-color="#3D016A"/>
</linearGradient>
<linearGradient id="paint44_linear_12001_3" x1="590.405" y1="183" x2="590.405" y2="889.143" gradientUnits="userSpaceOnUse">
<stop stop-color="#7C15C9" stop-opacity="0"/>
<stop offset="0.28" stop-color="#7C15C9" stop-opacity="0"/>
<stop offset="0.5" stop-color="#7C15C9"/>
<stop offset="1" stop-color="#3D016A"/>
</linearGradient>
<linearGradient id="paint45_linear_12001_3" x1="590.405" y1="183" x2="590.405" y2="889.143" gradientUnits="userSpaceOnUse">
<stop stop-color="#7C15C9" stop-opacity="0"/>
<stop offset="0.28" stop-color="#7C15C9" stop-opacity="0"/>
<stop offset="0.5" stop-color="#7C15C9"/>
<stop offset="1" stop-color="#3D016A"/>
</linearGradient>
<clipPath id="clip0_12001_3">
<rect width="1180" height="808" rx="20" fill="white"/>
</clipPath>
</defs>
</svg>
