<svg width="1799" height="524" viewBox="0 0 1799 524" fill="none" xmlns="http://www.w3.org/2000/svg">
<path d="M1312.14 176.74C1312.02 176.45 1311.79 176.31 1311.49 176.26C1311.22 176.26 1310.99 176.09 1310.72 176.09C1310.48 176.04 1310.25 175.98 1310.01 175.93C1309.63 175.82 1309.23 175.75 1308.86 175.6C1308.52 175.44 1308.28 175.17 1308.01 174.93C1307.8 174.65 1307.64 174.33 1307.5 174.01C1307.44 173.69 1307.38 173.38 1307.28 173.08C1307.24 172.92 1307.21 172.76 1307.17 172.59C1307.12 172.27 1307.06 171.96 1306.95 171.65C1306.85 171.27 1306.56 171.02 1306.18 171C1305.81 170.98 1305.43 171.2 1305.32 171.55C1305.15 172.14 1305.01 172.74 1304.91 173.35C1304.77 173.91 1304.62 174.46 1304.25 174.92C1304.02 175.16 1303.77 175.36 1303.5 175.54C1303.26 175.65 1303.02 175.74 1302.77 175.81C1302.47 175.89 1302.15 175.91 1301.86 176.03C1301.45 176.12 1301.03 176.19 1300.63 176.3C1300.04 176.47 1299.83 177.11 1300.17 177.62C1300.34 177.87 1300.58 177.99 1300.88 178C1301.12 178.09 1301.38 178.14 1301.63 178.17C1301.94 178.27 1302.25 178.34 1302.57 178.38C1302.88 178.48 1303.2 178.57 1303.5 178.7C1303.85 178.92 1304.16 179.19 1304.41 179.53C1304.6 179.84 1304.72 180.16 1304.82 180.51L1304.99 181.33C1305.06 181.53 1305.05 181.74 1305.15 181.93C1305.21 182.25 1305.23 182.58 1305.42 182.86C1305.64 183.16 1305.93 183.29 1306.29 183.22C1306.67 183.15 1306.91 182.89 1306.99 182.52C1307.07 182.16 1307.14 181.8 1307.22 181.44C1307.34 180.91 1307.46 180.37 1307.66 179.85C1308.01 179.19 1308.55 178.75 1309.25 178.49C1309.73 178.39 1310.21 178.31 1310.67 178.16C1311.02 178.12 1311.37 178.05 1311.7 177.93C1312.18 177.76 1312.37 177.21 1312.14 176.74Z" fill="#FFBD00"/>
<path d="M1306.32 520.52C1306.27 520.39 1306.16 520.33 1306.03 520.31C1305.91 520.31 1305.81 520.23 1305.69 520.24C1305.59 520.22 1305.48 520.19 1305.38 520.17C1305.21 520.12 1305.04 520.09 1304.88 520.03C1304.73 519.96 1304.62 519.84 1304.51 519.73C1304.42 519.61 1304.35 519.47 1304.29 519.32C1304.26 519.18 1304.24 519.04 1304.19 518.91C1304.17 518.84 1304.16 518.77 1304.14 518.7C1304.12 518.56 1304.09 518.42 1304.05 518.29C1304 518.12 1303.88 518.01 1303.71 518C1303.55 518 1303.38 518.09 1303.33 518.24C1303.26 518.5 1303.19 518.76 1303.15 519.03C1303.09 519.27 1303.02 519.52 1302.86 519.72C1302.76 519.82 1302.65 519.91 1302.53 519.99C1302.43 520.04 1302.32 520.08 1302.21 520.11C1302.08 520.15 1301.94 520.15 1301.81 520.21C1301.63 520.25 1301.45 520.28 1301.27 520.33C1301.01 520.4 1300.92 520.68 1301.07 520.91C1301.15 521.02 1301.25 521.07 1301.38 521.08C1301.49 521.12 1301.6 521.14 1301.71 521.15C1301.84 521.2 1301.98 521.22 1302.12 521.24C1302.26 521.28 1302.4 521.32 1302.53 521.38C1302.68 521.48 1302.82 521.6 1302.93 521.74C1303.01 521.87 1303.07 522.02 1303.11 522.17L1303.18 522.53C1303.21 522.62 1303.21 522.71 1303.25 522.79C1303.28 522.93 1303.28 523.07 1303.37 523.2C1303.46 523.33 1303.6 523.39 1303.75 523.36C1303.92 523.33 1304.02 523.22 1304.06 523.05C1304.1 522.89 1304.13 522.73 1304.16 522.57C1304.21 522.34 1304.27 522.1 1304.35 521.87C1304.51 521.58 1304.74 521.39 1305.05 521.27C1305.26 521.23 1305.47 521.19 1305.67 521.12C1305.83 521.1 1305.98 521.07 1306.12 521.02C1306.33 520.94 1306.42 520.71 1306.31 520.5L1306.32 520.52Z" fill="#FF8B0A"/>
<path d="M1473.44 376.52C1473.37 376.34 1473.22 376.26 1473.04 376.23C1472.88 376.23 1472.73 376.12 1472.57 376.13C1472.42 376.1 1472.28 376.06 1472.13 376.03C1471.9 375.96 1471.65 375.92 1471.43 375.83C1471.22 375.73 1471.07 375.57 1470.91 375.42C1470.78 375.25 1470.68 375.05 1470.6 374.85C1470.56 374.66 1470.53 374.46 1470.46 374.28C1470.44 374.18 1470.41 374.08 1470.39 373.98C1470.36 373.78 1470.32 373.59 1470.26 373.41C1470.2 373.18 1470.02 373.03 1469.79 373.01C1469.56 373 1469.33 373.13 1469.27 373.35C1469.17 373.71 1469.08 374.08 1469.02 374.45C1468.94 374.79 1468.84 375.13 1468.62 375.41C1468.48 375.56 1468.33 375.68 1468.16 375.79C1468.02 375.86 1467.87 375.91 1467.71 375.95C1467.52 376 1467.33 376.01 1467.15 376.08C1466.9 376.13 1466.64 376.18 1466.4 376.25C1466.04 376.35 1465.91 376.75 1466.12 377.06C1466.23 377.21 1466.37 377.29 1466.56 377.29C1466.71 377.34 1466.86 377.38 1467.02 377.39C1467.21 377.45 1467.4 377.49 1467.6 377.52C1467.79 377.58 1467.99 377.63 1468.17 377.72C1468.39 377.86 1468.57 378.02 1468.73 378.23C1468.84 378.42 1468.92 378.62 1468.98 378.83L1469.08 379.33C1469.12 379.45 1469.12 379.58 1469.18 379.7C1469.22 379.89 1469.23 380.1 1469.34 380.27C1469.47 380.45 1469.65 380.53 1469.87 380.49C1470.11 380.45 1470.25 380.29 1470.3 380.06C1470.35 379.84 1470.39 379.62 1470.44 379.4C1470.52 379.07 1470.59 378.74 1470.71 378.43C1470.93 378.03 1471.26 377.75 1471.68 377.59C1471.97 377.53 1472.27 377.48 1472.55 377.39C1472.77 377.37 1472.98 377.32 1473.18 377.25C1473.48 377.14 1473.59 376.81 1473.45 376.52H1473.44Z" fill="#35D9EA"/>
<path d="M1472.14 5.74C1472.02 5.45 1471.79 5.31 1471.49 5.26C1471.22 5.26 1470.99 5.09 1470.72 5.09C1470.48 5.04 1470.25 4.98 1470.01 4.93C1469.63 4.82 1469.23 4.75 1468.86 4.6C1468.52 4.44 1468.28 4.17 1468.01 3.93C1467.8 3.65 1467.64 3.33 1467.5 3.01C1467.44 2.69 1467.38 2.38 1467.28 2.08C1467.24 1.92 1467.21 1.76 1467.17 1.59C1467.12 1.27 1467.06 0.959999 1466.95 0.649999C1466.85 0.269999 1466.56 0.0199992 1466.18 -7.76839e-07C1465.81 -0.0200008 1465.43 0.199999 1465.32 0.549999C1465.15 1.14 1465.01 1.74 1464.91 2.35C1464.77 2.91 1464.62 3.46 1464.25 3.92C1464.02 4.16 1463.77 4.36 1463.5 4.54C1463.26 4.65 1463.02 4.74 1462.77 4.81C1462.47 4.89 1462.15 4.91 1461.86 5.03C1461.45 5.12 1461.03 5.19 1460.63 5.3C1460.04 5.47 1459.83 6.11 1460.17 6.62C1460.34 6.87 1460.58 6.99 1460.88 7C1461.12 7.09 1461.38 7.14 1461.63 7.17C1461.94 7.27 1462.25 7.34 1462.57 7.38C1462.88 7.48 1463.2 7.57 1463.5 7.7C1463.85 7.92 1464.16 8.19 1464.41 8.53C1464.6 8.84 1464.72 9.16 1464.82 9.51L1464.99 10.33C1465.06 10.53 1465.05 10.74 1465.15 10.93C1465.21 11.25 1465.23 11.58 1465.42 11.86C1465.64 12.16 1465.93 12.29 1466.29 12.22C1466.67 12.15 1466.91 11.89 1466.99 11.52C1467.07 11.16 1467.14 10.8 1467.22 10.44C1467.34 9.91 1467.46 9.37 1467.66 8.85C1468.01 8.19 1468.55 7.75 1469.25 7.49C1469.73 7.39 1470.21 7.31 1470.67 7.16C1471.02 7.12 1471.37 7.05 1471.7 6.93C1472.18 6.76 1472.37 6.21 1472.14 5.74Z" fill="#FFBD00"/>
<path d="M1264.32 316.52C1264.27 316.39 1264.16 316.33 1264.03 316.31C1263.91 316.31 1263.81 316.23 1263.69 316.24C1263.59 316.22 1263.48 316.19 1263.38 316.17C1263.21 316.12 1263.04 316.09 1262.88 316.03C1262.73 315.96 1262.62 315.84 1262.51 315.73C1262.42 315.61 1262.35 315.47 1262.29 315.32C1262.26 315.18 1262.24 315.04 1262.19 314.91C1262.17 314.84 1262.16 314.77 1262.14 314.7C1262.12 314.56 1262.09 314.42 1262.05 314.29C1262 314.12 1261.88 314.01 1261.71 314C1261.55 314 1261.38 314.09 1261.33 314.24C1261.26 314.5 1261.19 314.76 1261.15 315.03C1261.09 315.27 1261.02 315.52 1260.86 315.72C1260.76 315.82 1260.65 315.91 1260.53 315.99C1260.43 316.04 1260.32 316.08 1260.21 316.11C1260.08 316.15 1259.94 316.15 1259.81 316.21C1259.63 316.25 1259.45 316.28 1259.27 316.33C1259.01 316.4 1258.92 316.68 1259.07 316.91C1259.15 317.02 1259.25 317.07 1259.38 317.08C1259.49 317.12 1259.6 317.14 1259.71 317.15C1259.84 317.2 1259.98 317.22 1260.12 317.24C1260.26 317.28 1260.4 317.32 1260.53 317.38C1260.68 317.48 1260.82 317.6 1260.93 317.74C1261.01 317.87 1261.07 318.02 1261.11 318.17L1261.18 318.53C1261.21 318.62 1261.21 318.71 1261.25 318.79C1261.28 318.93 1261.28 319.07 1261.37 319.2C1261.46 319.33 1261.6 319.39 1261.75 319.36C1261.92 319.33 1262.02 319.22 1262.06 319.05C1262.1 318.89 1262.13 318.73 1262.16 318.57C1262.21 318.34 1262.27 318.1 1262.35 317.87C1262.51 317.58 1262.74 317.39 1263.05 317.27C1263.26 317.23 1263.47 317.19 1263.67 317.12C1263.83 317.1 1263.98 317.07 1264.12 317.02C1264.33 316.94 1264.42 316.71 1264.31 316.5L1264.32 316.52Z" fill="#FF8B0A"/>
<path d="M1205.44 120.52C1205.37 120.34 1205.22 120.26 1205.04 120.23C1204.88 120.23 1204.73 120.12 1204.57 120.13C1204.42 120.1 1204.28 120.06 1204.13 120.03C1203.9 119.96 1203.65 119.92 1203.43 119.83C1203.22 119.73 1203.07 119.57 1202.91 119.42C1202.78 119.25 1202.68 119.05 1202.6 118.85C1202.56 118.66 1202.53 118.46 1202.46 118.28C1202.44 118.18 1202.41 118.08 1202.39 117.98C1202.36 117.78 1202.32 117.59 1202.26 117.41C1202.2 117.18 1202.02 117.03 1201.79 117.01C1201.56 117 1201.33 117.13 1201.27 117.35C1201.17 117.71 1201.08 118.08 1201.02 118.45C1200.94 118.79 1200.84 119.13 1200.62 119.41C1200.48 119.56 1200.33 119.68 1200.16 119.79C1200.02 119.86 1199.87 119.91 1199.71 119.95C1199.52 120 1199.33 120.01 1199.15 120.08C1198.9 120.13 1198.64 120.18 1198.4 120.25C1198.04 120.35 1197.91 120.75 1198.12 121.06C1198.23 121.21 1198.37 121.29 1198.56 121.29C1198.71 121.34 1198.86 121.38 1199.02 121.39C1199.21 121.45 1199.4 121.49 1199.6 121.52C1199.79 121.58 1199.99 121.63 1200.17 121.72C1200.39 121.86 1200.57 122.02 1200.73 122.23C1200.84 122.42 1200.92 122.62 1200.98 122.83L1201.08 123.33C1201.12 123.45 1201.12 123.58 1201.18 123.7C1201.22 123.89 1201.23 124.1 1201.34 124.27C1201.47 124.45 1201.65 124.53 1201.87 124.49C1202.11 124.45 1202.25 124.29 1202.3 124.06C1202.35 123.84 1202.39 123.62 1202.44 123.4C1202.52 123.07 1202.59 122.74 1202.71 122.43C1202.93 122.03 1203.26 121.75 1203.68 121.59C1203.97 121.53 1204.27 121.48 1204.55 121.39C1204.77 121.37 1204.98 121.32 1205.18 121.25C1205.48 121.14 1205.59 120.81 1205.45 120.52H1205.44Z" fill="#35D9EA"/>
<path d="M336.14 246.74C336.02 246.45 335.79 246.31 335.49 246.26C335.22 246.26 334.99 246.09 334.72 246.09C334.48 246.04 334.25 245.98 334.01 245.93C333.63 245.82 333.23 245.75 332.86 245.6C332.52 245.44 332.28 245.17 332.01 244.93C331.8 244.65 331.64 244.33 331.5 244.01C331.44 243.69 331.38 243.38 331.28 243.08C331.24 242.92 331.21 242.76 331.17 242.59C331.12 242.27 331.06 241.96 330.95 241.65C330.85 241.27 330.56 241.02 330.18 241C329.81 240.98 329.43 241.2 329.32 241.55C329.15 242.14 329.01 242.74 328.91 243.35C328.77 243.91 328.62 244.46 328.25 244.92C328.02 245.16 327.77 245.36 327.5 245.54C327.26 245.65 327.02 245.74 326.77 245.81C326.47 245.89 326.15 245.91 325.86 246.03C325.45 246.12 325.03 246.19 324.63 246.3C324.04 246.47 323.83 247.11 324.17 247.62C324.34 247.87 324.58 247.99 324.88 248C325.12 248.09 325.38 248.14 325.63 248.17C325.94 248.27 326.25 248.34 326.57 248.38C326.88 248.48 327.2 248.57 327.5 248.7C327.85 248.92 328.16 249.19 328.41 249.53C328.6 249.84 328.72 250.16 328.82 250.51L328.99 251.33C329.06 251.53 329.05 251.74 329.15 251.93C329.21 252.25 329.23 252.58 329.42 252.86C329.64 253.16 329.93 253.29 330.29 253.22C330.67 253.15 330.91 252.89 330.99 252.52C331.07 252.16 331.14 251.8 331.22 251.44C331.34 250.91 331.46 250.37 331.66 249.85C332.01 249.19 332.55 248.75 333.25 248.49C333.73 248.39 334.21 248.31 334.67 248.16C335.02 248.12 335.37 248.05 335.7 247.93C336.18 247.76 336.37 247.21 336.14 246.74Z" fill="#FFBD00"/>
<path d="M422.32 372.52C422.27 372.39 422.16 372.33 422.03 372.31C421.91 372.31 421.81 372.23 421.69 372.24C421.59 372.22 421.48 372.19 421.38 372.17C421.21 372.12 421.04 372.09 420.88 372.03C420.73 371.96 420.62 371.84 420.51 371.73C420.42 371.61 420.35 371.47 420.29 371.32C420.26 371.18 420.24 371.04 420.19 370.91C420.17 370.84 420.16 370.77 420.14 370.7C420.12 370.56 420.09 370.42 420.05 370.29C420 370.12 419.88 370.01 419.71 370C419.55 370 419.38 370.09 419.33 370.24C419.26 370.5 419.19 370.76 419.15 371.03C419.09 371.27 419.02 371.52 418.86 371.72C418.76 371.82 418.65 371.91 418.53 371.99C418.43 372.04 418.32 372.08 418.21 372.11C418.08 372.15 417.94 372.15 417.81 372.21C417.63 372.25 417.45 372.28 417.27 372.33C417.01 372.4 416.92 372.68 417.07 372.91C417.15 373.02 417.25 373.07 417.38 373.08C417.49 373.12 417.6 373.14 417.71 373.15C417.84 373.2 417.98 373.22 418.12 373.24C418.26 373.28 418.4 373.32 418.53 373.38C418.68 373.48 418.82 373.6 418.93 373.74C419.01 373.87 419.07 374.02 419.11 374.17L419.18 374.53C419.21 374.62 419.21 374.71 419.25 374.79C419.28 374.93 419.28 375.07 419.37 375.2C419.46 375.33 419.6 375.39 419.75 375.36C419.92 375.33 420.02 375.22 420.06 375.05C420.1 374.89 420.13 374.73 420.16 374.57C420.21 374.34 420.27 374.1 420.35 373.87C420.51 373.58 420.74 373.39 421.05 373.27C421.26 373.23 421.47 373.19 421.67 373.12C421.83 373.1 421.98 373.07 422.12 373.02C422.33 372.94 422.42 372.71 422.31 372.5L422.32 372.52Z" fill="#FF8B0A"/>
<path d="M597.44 248.52C597.37 248.34 597.22 248.26 597.04 248.23C596.88 248.23 596.73 248.12 596.57 248.13C596.42 248.1 596.28 248.06 596.13 248.03C595.9 247.96 595.65 247.92 595.43 247.83C595.22 247.73 595.07 247.57 594.91 247.42C594.78 247.25 594.68 247.05 594.6 246.85C594.56 246.66 594.53 246.46 594.46 246.28C594.44 246.18 594.41 246.08 594.39 245.98C594.36 245.78 594.32 245.59 594.26 245.41C594.2 245.18 594.02 245.03 593.79 245.01C593.56 245 593.33 245.13 593.27 245.35C593.17 245.71 593.08 246.08 593.02 246.45C592.94 246.79 592.84 247.13 592.62 247.41C592.48 247.56 592.33 247.68 592.16 247.79C592.02 247.86 591.87 247.91 591.71 247.95C591.52 248 591.33 248.01 591.15 248.08C590.9 248.13 590.64 248.18 590.4 248.25C590.04 248.35 589.91 248.75 590.12 249.06C590.23 249.21 590.37 249.29 590.56 249.29C590.71 249.34 590.86 249.38 591.02 249.39C591.21 249.45 591.4 249.49 591.6 249.52C591.79 249.58 591.99 249.63 592.17 249.72C592.39 249.86 592.57 250.02 592.73 250.23C592.84 250.42 592.92 250.62 592.98 250.83L593.08 251.33C593.12 251.45 593.12 251.58 593.18 251.7C593.22 251.89 593.23 252.1 593.34 252.27C593.47 252.45 593.65 252.53 593.87 252.49C594.11 252.45 594.25 252.29 594.3 252.06C594.35 251.84 594.39 251.62 594.44 251.4C594.52 251.07 594.59 250.74 594.71 250.43C594.93 250.03 595.26 249.75 595.68 249.59C595.97 249.53 596.27 249.48 596.55 249.39C596.77 249.37 596.98 249.32 597.18 249.25C597.48 249.14 597.59 248.81 597.45 248.52H597.44Z" fill="#35D9EA"/>
<path d="M616.14 103.74C616.02 103.45 615.79 103.31 615.49 103.26C615.22 103.26 614.99 103.09 614.72 103.09C614.48 103.04 614.25 102.98 614.01 102.93C613.63 102.82 613.23 102.75 612.86 102.6C612.52 102.44 612.28 102.17 612.01 101.93C611.8 101.65 611.64 101.33 611.5 101.01C611.44 100.69 611.38 100.38 611.28 100.08C611.24 99.92 611.21 99.76 611.17 99.59C611.12 99.27 611.06 98.96 610.95 98.65C610.85 98.27 610.56 98.02 610.18 98C609.81 97.98 609.43 98.2 609.32 98.55C609.15 99.14 609.01 99.74 608.91 100.35C608.77 100.91 608.62 101.46 608.25 101.92C608.02 102.16 607.77 102.36 607.5 102.54C607.26 102.65 607.02 102.74 606.77 102.81C606.47 102.89 606.15 102.91 605.86 103.03C605.45 103.12 605.03 103.19 604.63 103.3C604.04 103.47 603.83 104.11 604.17 104.62C604.34 104.87 604.58 104.99 604.88 105C605.12 105.09 605.38 105.14 605.63 105.17C605.94 105.27 606.25 105.34 606.57 105.38C606.88 105.48 607.2 105.57 607.5 105.7C607.85 105.92 608.16 106.19 608.41 106.53C608.6 106.84 608.72 107.16 608.82 107.51L608.99 108.33C609.06 108.53 609.05 108.74 609.15 108.93C609.21 109.25 609.23 109.58 609.42 109.86C609.64 110.16 609.93 110.29 610.29 110.22C610.67 110.15 610.91 109.89 610.99 109.52C611.07 109.16 611.14 108.8 611.22 108.44C611.34 107.91 611.46 107.37 611.66 106.85C612.01 106.19 612.55 105.75 613.25 105.49C613.73 105.39 614.21 105.31 614.67 105.16C615.02 105.12 615.37 105.05 615.7 104.93C616.18 104.76 616.37 104.21 616.14 103.74Z" fill="#FFBD00"/>
<path d="M456.32 203.52C456.27 203.39 456.16 203.33 456.03 203.31C455.91 203.31 455.81 203.23 455.69 203.24C455.59 203.22 455.48 203.19 455.38 203.17C455.21 203.12 455.04 203.09 454.88 203.03C454.73 202.96 454.62 202.84 454.51 202.73C454.42 202.61 454.35 202.47 454.29 202.32C454.26 202.18 454.24 202.04 454.19 201.91C454.17 201.84 454.16 201.77 454.14 201.7C454.12 201.56 454.09 201.42 454.05 201.29C454 201.12 453.88 201.01 453.71 201C453.55 201 453.38 201.09 453.33 201.24C453.26 201.5 453.19 201.76 453.15 202.03C453.09 202.27 453.02 202.52 452.86 202.72C452.76 202.82 452.65 202.91 452.53 202.99C452.43 203.04 452.32 203.08 452.21 203.11C452.08 203.15 451.94 203.15 451.81 203.21C451.63 203.25 451.45 203.28 451.27 203.33C451.01 203.4 450.92 203.68 451.07 203.91C451.15 204.02 451.25 204.07 451.38 204.08C451.49 204.12 451.6 204.14 451.71 204.15C451.84 204.2 451.98 204.22 452.12 204.24C452.26 204.28 452.4 204.32 452.53 204.38C452.68 204.48 452.82 204.6 452.93 204.74C453.01 204.87 453.07 205.02 453.11 205.17L453.18 205.53C453.21 205.62 453.21 205.71 453.25 205.79C453.28 205.93 453.28 206.07 453.37 206.2C453.46 206.33 453.6 206.39 453.75 206.36C453.92 206.33 454.02 206.22 454.06 206.05C454.1 205.89 454.13 205.73 454.16 205.57C454.21 205.34 454.27 205.1 454.35 204.87C454.51 204.58 454.74 204.39 455.05 204.27C455.26 204.23 455.47 204.19 455.67 204.12C455.83 204.1 455.98 204.07 456.12 204.02C456.33 203.94 456.42 203.71 456.31 203.5L456.32 203.52Z" fill="#FF8B0A"/>
<path d="M364.44 126.52C364.37 126.34 364.22 126.26 364.04 126.23C363.88 126.23 363.73 126.12 363.57 126.13C363.42 126.1 363.28 126.06 363.13 126.03C362.9 125.96 362.65 125.92 362.43 125.83C362.22 125.73 362.07 125.57 361.91 125.42C361.78 125.25 361.68 125.05 361.6 124.85C361.56 124.66 361.53 124.46 361.46 124.28C361.44 124.18 361.41 124.08 361.39 123.98C361.36 123.78 361.32 123.59 361.26 123.41C361.2 123.18 361.02 123.03 360.79 123.01C360.56 123 360.33 123.13 360.27 123.35C360.17 123.71 360.08 124.08 360.02 124.45C359.94 124.79 359.84 125.13 359.62 125.41C359.48 125.56 359.33 125.68 359.16 125.79C359.02 125.86 358.87 125.91 358.71 125.95C358.52 126 358.33 126.01 358.15 126.08C357.9 126.13 357.64 126.18 357.4 126.25C357.04 126.35 356.91 126.75 357.12 127.06C357.23 127.21 357.37 127.29 357.56 127.29C357.71 127.34 357.86 127.38 358.02 127.39C358.21 127.45 358.4 127.49 358.6 127.52C358.79 127.58 358.99 127.63 359.17 127.72C359.39 127.86 359.57 128.02 359.73 128.23C359.84 128.42 359.92 128.62 359.98 128.83L360.08 129.33C360.12 129.45 360.12 129.58 360.18 129.7C360.22 129.89 360.23 130.1 360.34 130.27C360.47 130.45 360.65 130.53 360.87 130.49C361.11 130.45 361.25 130.29 361.3 130.06C361.35 129.84 361.39 129.62 361.44 129.4C361.52 129.07 361.59 128.74 361.71 128.43C361.93 128.03 362.26 127.75 362.68 127.59C362.97 127.53 363.27 127.48 363.55 127.39C363.77 127.37 363.98 127.32 364.18 127.25C364.48 127.14 364.59 126.81 364.45 126.52H364.44Z" fill="#35D9EA"/>
<path d="M1784.14 71.74C1784.02 71.45 1783.79 71.31 1783.49 71.26C1783.22 71.26 1782.99 71.09 1782.72 71.09C1782.48 71.04 1782.25 70.98 1782.01 70.93C1781.63 70.82 1781.23 70.75 1780.86 70.6C1780.52 70.44 1780.28 70.17 1780.01 69.93C1779.8 69.65 1779.64 69.33 1779.5 69.01C1779.44 68.69 1779.38 68.38 1779.28 68.08C1779.24 67.92 1779.21 67.76 1779.17 67.59C1779.12 67.27 1779.06 66.96 1778.95 66.65C1778.85 66.27 1778.56 66.02 1778.18 66C1777.81 65.98 1777.43 66.2 1777.32 66.55C1777.15 67.14 1777.01 67.74 1776.91 68.35C1776.77 68.91 1776.62 69.46 1776.25 69.92C1776.02 70.16 1775.77 70.36 1775.5 70.54C1775.26 70.65 1775.02 70.74 1774.77 70.81C1774.47 70.89 1774.15 70.91 1773.86 71.03C1773.45 71.12 1773.03 71.19 1772.63 71.3C1772.04 71.47 1771.83 72.11 1772.17 72.62C1772.34 72.87 1772.58 72.99 1772.88 73C1773.12 73.09 1773.38 73.14 1773.63 73.17C1773.94 73.27 1774.25 73.34 1774.57 73.38C1774.88 73.48 1775.2 73.57 1775.5 73.7C1775.85 73.92 1776.16 74.19 1776.41 74.53C1776.6 74.84 1776.72 75.16 1776.82 75.51L1776.99 76.33C1777.06 76.53 1777.05 76.74 1777.15 76.93C1777.21 77.25 1777.23 77.58 1777.42 77.86C1777.64 78.16 1777.93 78.29 1778.29 78.22C1778.67 78.15 1778.91 77.89 1778.99 77.52C1779.07 77.16 1779.14 76.8 1779.22 76.44C1779.34 75.91 1779.46 75.37 1779.66 74.85C1780.01 74.19 1780.55 73.75 1781.25 73.49C1781.73 73.39 1782.21 73.31 1782.67 73.16C1783.02 73.12 1783.37 73.05 1783.7 72.93C1784.18 72.76 1784.37 72.21 1784.14 71.74Z" fill="#FFBD00"/>
<path d="M1733.32 262.52C1733.27 262.39 1733.16 262.33 1733.03 262.31C1732.91 262.31 1732.81 262.23 1732.69 262.24C1732.59 262.22 1732.48 262.19 1732.38 262.17C1732.21 262.12 1732.04 262.09 1731.88 262.03C1731.73 261.96 1731.62 261.84 1731.51 261.73C1731.42 261.61 1731.35 261.47 1731.29 261.32C1731.26 261.18 1731.24 261.04 1731.19 260.91C1731.17 260.84 1731.16 260.77 1731.14 260.7C1731.12 260.56 1731.09 260.42 1731.05 260.29C1731 260.12 1730.88 260.01 1730.71 260C1730.55 260 1730.38 260.09 1730.33 260.24C1730.26 260.5 1730.19 260.76 1730.15 261.03C1730.09 261.27 1730.02 261.52 1729.86 261.72C1729.76 261.82 1729.65 261.91 1729.53 261.99C1729.43 262.04 1729.32 262.08 1729.21 262.11C1729.08 262.15 1728.94 262.15 1728.81 262.21C1728.63 262.25 1728.45 262.28 1728.27 262.33C1728.01 262.4 1727.92 262.68 1728.07 262.91C1728.15 263.02 1728.25 263.07 1728.38 263.08C1728.49 263.12 1728.6 263.14 1728.71 263.15C1728.84 263.2 1728.98 263.22 1729.12 263.24C1729.26 263.28 1729.4 263.32 1729.53 263.38C1729.68 263.48 1729.82 263.6 1729.93 263.74C1730.01 263.87 1730.07 264.02 1730.11 264.17L1730.18 264.53C1730.21 264.62 1730.21 264.71 1730.25 264.79C1730.28 264.93 1730.28 265.07 1730.37 265.2C1730.46 265.33 1730.6 265.39 1730.75 265.36C1730.92 265.33 1731.02 265.22 1731.06 265.05C1731.1 264.89 1731.13 264.73 1731.16 264.57C1731.21 264.34 1731.27 264.1 1731.35 263.87C1731.51 263.58 1731.74 263.39 1732.05 263.27C1732.26 263.23 1732.47 263.19 1732.67 263.12C1732.83 263.1 1732.98 263.07 1733.12 263.02C1733.33 262.94 1733.42 262.71 1733.31 262.5L1733.32 262.52Z" fill="#FF8B0A"/>
<path d="M1532.44 94.52C1532.37 94.34 1532.22 94.26 1532.04 94.23C1531.88 94.23 1531.73 94.12 1531.57 94.13C1531.42 94.1 1531.28 94.06 1531.13 94.03C1530.9 93.96 1530.65 93.92 1530.43 93.83C1530.22 93.73 1530.07 93.57 1529.91 93.42C1529.78 93.25 1529.68 93.05 1529.6 92.85C1529.56 92.66 1529.53 92.46 1529.46 92.28C1529.44 92.18 1529.41 92.08 1529.39 91.98C1529.36 91.78 1529.32 91.59 1529.26 91.41C1529.2 91.18 1529.02 91.03 1528.79 91.01C1528.56 91 1528.33 91.13 1528.27 91.35C1528.17 91.71 1528.08 92.08 1528.02 92.45C1527.94 92.79 1527.84 93.13 1527.62 93.41C1527.48 93.56 1527.33 93.68 1527.16 93.79C1527.02 93.86 1526.87 93.91 1526.71 93.95C1526.52 94 1526.33 94.01 1526.15 94.08C1525.9 94.13 1525.64 94.18 1525.4 94.25C1525.04 94.35 1524.91 94.75 1525.12 95.06C1525.23 95.21 1525.37 95.29 1525.56 95.29C1525.71 95.34 1525.86 95.38 1526.02 95.39C1526.21 95.45 1526.4 95.49 1526.6 95.52C1526.79 95.58 1526.99 95.63 1527.17 95.72C1527.39 95.86 1527.57 96.02 1527.73 96.23C1527.84 96.42 1527.92 96.62 1527.98 96.83L1528.08 97.33C1528.12 97.45 1528.12 97.58 1528.18 97.7C1528.22 97.89 1528.23 98.1 1528.34 98.27C1528.47 98.45 1528.65 98.53 1528.87 98.49C1529.11 98.45 1529.25 98.29 1529.3 98.06C1529.35 97.84 1529.39 97.62 1529.44 97.4C1529.52 97.07 1529.59 96.74 1529.71 96.43C1529.93 96.03 1530.26 95.75 1530.68 95.59C1530.97 95.53 1531.27 95.48 1531.55 95.39C1531.77 95.37 1531.98 95.32 1532.18 95.25C1532.48 95.14 1532.59 94.81 1532.45 94.52H1532.44Z" fill="#35D9EA"/>
<path d="M825.14 165.74C825.02 165.45 824.79 165.31 824.49 165.26C824.22 165.26 823.99 165.09 823.72 165.09C823.48 165.04 823.25 164.98 823.01 164.93C822.63 164.82 822.23 164.75 821.86 164.6C821.52 164.44 821.28 164.17 821.01 163.93C820.8 163.65 820.64 163.33 820.5 163.01C820.44 162.69 820.38 162.38 820.28 162.08C820.24 161.92 820.21 161.76 820.17 161.59C820.12 161.27 820.06 160.96 819.95 160.65C819.85 160.27 819.56 160.02 819.18 160C818.81 159.98 818.43 160.2 818.32 160.55C818.15 161.14 818.01 161.74 817.91 162.35C817.77 162.91 817.62 163.46 817.25 163.92C817.02 164.16 816.77 164.36 816.5 164.54C816.26 164.65 816.02 164.74 815.77 164.81C815.47 164.89 815.15 164.91 814.86 165.03C814.45 165.12 814.03 165.19 813.63 165.3C813.04 165.47 812.83 166.11 813.17 166.62C813.34 166.87 813.58 166.99 813.88 167C814.12 167.09 814.38 167.14 814.63 167.17C814.94 167.27 815.25 167.34 815.57 167.38C815.88 167.48 816.2 167.57 816.5 167.7C816.85 167.92 817.16 168.19 817.41 168.53C817.6 168.84 817.72 169.16 817.82 169.51L817.99 170.33C818.06 170.53 818.05 170.74 818.15 170.93C818.21 171.25 818.23 171.58 818.42 171.86C818.64 172.16 818.93 172.29 819.29 172.22C819.67 172.15 819.91 171.89 819.99 171.52C820.07 171.16 820.14 170.8 820.22 170.44C820.34 169.91 820.46 169.37 820.66 168.85C821.01 168.19 821.55 167.75 822.25 167.49C822.73 167.39 823.21 167.31 823.67 167.16C824.02 167.12 824.37 167.05 824.7 166.93C825.18 166.76 825.37 166.21 825.14 165.74Z" fill="#FFBD00"/>
<path d="M917.32 29.52C917.27 29.39 917.16 29.33 917.03 29.31C916.91 29.31 916.81 29.23 916.69 29.24C916.59 29.22 916.48 29.19 916.38 29.17C916.21 29.12 916.04 29.09 915.88 29.03C915.73 28.96 915.62 28.84 915.51 28.73C915.42 28.61 915.35 28.47 915.29 28.32C915.26 28.18 915.24 28.04 915.19 27.91C915.17 27.84 915.16 27.77 915.14 27.7C915.12 27.56 915.09 27.42 915.05 27.29C915 27.12 914.88 27.01 914.71 27C914.55 27 914.38 27.09 914.33 27.24C914.26 27.5 914.19 27.76 914.15 28.03C914.09 28.27 914.02 28.52 913.86 28.72C913.76 28.82 913.65 28.91 913.53 28.99C913.43 29.04 913.32 29.08 913.21 29.11C913.08 29.15 912.94 29.15 912.81 29.21C912.63 29.25 912.45 29.28 912.27 29.33C912.01 29.4 911.92 29.68 912.07 29.91C912.15 30.02 912.25 30.07 912.38 30.08C912.49 30.12 912.6 30.14 912.71 30.15C912.84 30.2 912.98 30.22 913.12 30.24C913.26 30.28 913.4 30.32 913.53 30.38C913.68 30.48 913.82 30.6 913.93 30.74C914.01 30.87 914.07 31.02 914.11 31.17L914.18 31.53C914.21 31.62 914.21 31.71 914.25 31.79C914.28 31.93 914.28 32.07 914.37 32.2C914.46 32.33 914.6 32.39 914.75 32.36C914.92 32.33 915.02 32.22 915.06 32.05C915.1 31.89 915.13 31.73 915.16 31.57C915.21 31.34 915.27 31.1 915.35 30.87C915.51 30.58 915.74 30.39 916.05 30.27C916.26 30.23 916.47 30.19 916.67 30.12C916.83 30.1 916.98 30.07 917.12 30.02C917.33 29.94 917.42 29.71 917.31 29.5L917.32 29.52Z" fill="#FF8B0A"/>
<path d="M750.44 17.52C750.37 17.34 750.22 17.26 750.04 17.23C749.88 17.23 749.73 17.12 749.57 17.13C749.42 17.1 749.28 17.06 749.13 17.03C748.9 16.96 748.65 16.92 748.43 16.83C748.22 16.73 748.07 16.57 747.91 16.42C747.78 16.25 747.68 16.05 747.6 15.85C747.56 15.66 747.53 15.46 747.46 15.28C747.44 15.18 747.41 15.08 747.39 14.98C747.36 14.78 747.32 14.59 747.26 14.41C747.2 14.18 747.02 14.03 746.79 14.01C746.56 14 746.33 14.13 746.27 14.35C746.17 14.71 746.08 15.08 746.02 15.45C745.94 15.79 745.84 16.13 745.62 16.41C745.48 16.56 745.33 16.68 745.16 16.79C745.02 16.86 744.87 16.91 744.71 16.95C744.52 17 744.33 17.01 744.15 17.08C743.9 17.13 743.64 17.18 743.4 17.25C743.04 17.35 742.91 17.75 743.12 18.06C743.23 18.21 743.37 18.29 743.56 18.29C743.71 18.34 743.86 18.38 744.02 18.39C744.21 18.45 744.4 18.49 744.6 18.52C744.79 18.58 744.99 18.63 745.17 18.72C745.39 18.86 745.57 19.02 745.73 19.23C745.84 19.42 745.92 19.62 745.98 19.83L746.08 20.33C746.12 20.45 746.12 20.58 746.18 20.7C746.22 20.89 746.23 21.1 746.34 21.27C746.47 21.45 746.65 21.53 746.87 21.49C747.11 21.45 747.25 21.29 747.3 21.06C747.35 20.84 747.39 20.62 747.44 20.4C747.52 20.07 747.59 19.74 747.71 19.43C747.93 19.03 748.26 18.75 748.68 18.59C748.97 18.53 749.27 18.48 749.55 18.39C749.77 18.37 749.98 18.32 750.18 18.25C750.48 18.14 750.59 17.81 750.45 17.52H750.44Z" fill="#35D9EA"/>
<path d="M253.14 48.74C253.02 48.45 252.79 48.31 252.49 48.26C252.22 48.26 251.99 48.09 251.72 48.09C251.48 48.04 251.25 47.98 251.01 47.93C250.63 47.82 250.23 47.75 249.86 47.6C249.52 47.44 249.28 47.17 249.01 46.93C248.8 46.65 248.64 46.33 248.5 46.01C248.44 45.69 248.38 45.38 248.28 45.08C248.24 44.92 248.21 44.76 248.17 44.59C248.12 44.27 248.06 43.96 247.95 43.65C247.85 43.27 247.56 43.02 247.18 43C246.81 42.98 246.43 43.2 246.32 43.55C246.15 44.14 246.01 44.74 245.91 45.35C245.77 45.91 245.62 46.46 245.25 46.92C245.02 47.16 244.77 47.36 244.5 47.54C244.26 47.65 244.02 47.74 243.77 47.81C243.47 47.89 243.15 47.91 242.86 48.03C242.45 48.12 242.03 48.19 241.63 48.3C241.04 48.47 240.83 49.11 241.17 49.62C241.34 49.87 241.58 49.99 241.88 50C242.12 50.09 242.38 50.14 242.63 50.17C242.94 50.27 243.25 50.34 243.57 50.38C243.88 50.48 244.2 50.57 244.5 50.7C244.85 50.92 245.16 51.19 245.41 51.53C245.6 51.84 245.72 52.16 245.82 52.51L245.99 53.33C246.06 53.53 246.05 53.74 246.15 53.93C246.21 54.25 246.23 54.58 246.42 54.86C246.64 55.16 246.93 55.29 247.29 55.22C247.67 55.15 247.91 54.89 247.99 54.52C248.07 54.16 248.14 53.8 248.22 53.44C248.34 52.91 248.46 52.37 248.66 51.85C249.01 51.19 249.55 50.75 250.25 50.49C250.73 50.39 251.21 50.31 251.67 50.16C252.02 50.12 252.37 50.05 252.7 49.93C253.18 49.76 253.37 49.21 253.14 48.74Z" fill="#FFBD00"/>
<path d="M136.32 142.52C136.27 142.39 136.16 142.33 136.03 142.31C135.91 142.31 135.81 142.23 135.69 142.24C135.59 142.22 135.48 142.19 135.38 142.17C135.21 142.12 135.04 142.09 134.88 142.03C134.73 141.96 134.62 141.84 134.51 141.73C134.42 141.61 134.35 141.47 134.29 141.32C134.26 141.18 134.24 141.04 134.19 140.91C134.17 140.84 134.16 140.77 134.14 140.7C134.12 140.56 134.09 140.42 134.05 140.29C134 140.12 133.88 140.01 133.71 140C133.55 140 133.38 140.09 133.33 140.24C133.26 140.5 133.19 140.76 133.15 141.03C133.09 141.27 133.02 141.52 132.86 141.72C132.76 141.82 132.65 141.91 132.53 141.99C132.43 142.04 132.32 142.08 132.21 142.11C132.08 142.15 131.94 142.15 131.81 142.21C131.63 142.25 131.45 142.28 131.27 142.33C131.01 142.4 130.92 142.68 131.07 142.91C131.15 143.02 131.25 143.07 131.38 143.08C131.49 143.12 131.6 143.14 131.71 143.15C131.84 143.2 131.98 143.22 132.12 143.24C132.26 143.28 132.4 143.32 132.53 143.38C132.68 143.48 132.82 143.6 132.93 143.74C133.01 143.87 133.07 144.02 133.11 144.17L133.18 144.53C133.21 144.62 133.21 144.71 133.25 144.79C133.28 144.93 133.28 145.07 133.37 145.2C133.46 145.33 133.6 145.39 133.75 145.36C133.92 145.33 134.02 145.22 134.06 145.05C134.1 144.89 134.13 144.73 134.16 144.57C134.21 144.34 134.27 144.1 134.35 143.87C134.51 143.58 134.74 143.39 135.05 143.27C135.26 143.23 135.47 143.19 135.67 143.12C135.83 143.1 135.98 143.07 136.12 143.02C136.33 142.94 136.42 142.71 136.31 142.5L136.32 142.52Z" fill="#FF8B0A"/>
<path d="M7.44 107.52C7.37 107.34 7.22 107.26 7.04 107.23C6.88 107.23 6.73 107.12 6.57 107.13C6.42 107.1 6.28 107.06 6.13 107.03C5.9 106.96 5.65 106.92 5.43 106.83C5.22 106.73 5.07 106.57 4.91 106.42C4.78 106.25 4.68 106.05 4.6 105.85C4.56 105.66 4.53 105.46 4.46 105.28C4.44 105.18 4.41 105.08 4.39 104.98C4.36 104.78 4.32 104.59 4.26 104.41C4.2 104.18 4.02 104.03 3.79 104.01C3.56 104 3.33 104.13 3.27 104.35C3.17 104.71 3.08 105.08 3.02 105.45C2.94 105.79 2.84 106.13 2.62 106.41C2.48 106.56 2.33 106.68 2.16 106.79C2.02 106.86 1.87 106.91 1.71 106.95C1.52 107 1.33 107.01 1.15 107.08C0.9 107.13 0.64 107.18 0.4 107.25C0.0400003 107.35 -0.0899996 107.75 0.12 108.06C0.23 108.21 0.37 108.29 0.56 108.29C0.71 108.34 0.86 108.38 1.02 108.39C1.21 108.45 1.4 108.49 1.6 108.52C1.79 108.58 1.99 108.63 2.17 108.72C2.39 108.86 2.57 109.02 2.73 109.23C2.84 109.42 2.92 109.62 2.98 109.83L3.08 110.33C3.12 110.45 3.12 110.58 3.18 110.7C3.22 110.89 3.23 111.1 3.34 111.27C3.47 111.45 3.65 111.53 3.87 111.49C4.11 111.45 4.25 111.29 4.3 111.06C4.35 110.84 4.39 110.62 4.44 110.4C4.52 110.07 4.59 109.74 4.71 109.43C4.93 109.03 5.26 108.75 5.68 108.59C5.97 108.53 6.27 108.48 6.55 108.39C6.77 108.37 6.98 108.32 7.18 108.25C7.48 108.14 7.59 107.81 7.45 107.52H7.44Z" fill="#35D9EA"/>
<path d="M155.14 488.74C155.02 488.45 154.79 488.31 154.49 488.26C154.22 488.26 153.99 488.09 153.72 488.09C153.48 488.04 153.25 487.98 153.01 487.93C152.63 487.82 152.23 487.75 151.86 487.6C151.52 487.44 151.28 487.17 151.01 486.93C150.8 486.65 150.64 486.33 150.5 486.01C150.44 485.69 150.38 485.38 150.28 485.08C150.24 484.92 150.21 484.76 150.17 484.59C150.12 484.27 150.06 483.96 149.95 483.65C149.85 483.27 149.56 483.02 149.18 483C148.81 482.98 148.43 483.2 148.32 483.55C148.15 484.14 148.01 484.74 147.91 485.35C147.77 485.91 147.62 486.46 147.25 486.92C147.02 487.16 146.77 487.36 146.5 487.54C146.26 487.65 146.02 487.74 145.77 487.81C145.47 487.89 145.15 487.91 144.86 488.03C144.45 488.12 144.03 488.19 143.63 488.3C143.04 488.47 142.83 489.11 143.17 489.62C143.34 489.87 143.58 489.99 143.88 490C144.12 490.09 144.38 490.14 144.63 490.17C144.94 490.27 145.25 490.34 145.57 490.38C145.88 490.48 146.2 490.57 146.5 490.7C146.85 490.92 147.16 491.19 147.41 491.53C147.6 491.84 147.72 492.16 147.82 492.51L147.99 493.33C148.06 493.53 148.05 493.74 148.15 493.93C148.21 494.25 148.23 494.58 148.42 494.86C148.64 495.16 148.93 495.29 149.29 495.22C149.67 495.15 149.91 494.89 149.99 494.52C150.07 494.16 150.14 493.8 150.22 493.44C150.34 492.91 150.46 492.37 150.66 491.85C151.01 491.19 151.55 490.75 152.25 490.49C152.73 490.39 153.21 490.31 153.67 490.16C154.02 490.12 154.37 490.05 154.7 489.93C155.18 489.76 155.37 489.21 155.14 488.74Z" fill="#FFBD00"/>
<path d="M247.32 363.52C247.27 363.39 247.16 363.33 247.03 363.31C246.91 363.31 246.81 363.23 246.69 363.24C246.59 363.22 246.48 363.19 246.38 363.17C246.21 363.12 246.04 363.09 245.88 363.03C245.73 362.96 245.62 362.84 245.51 362.73C245.42 362.61 245.35 362.47 245.29 362.32C245.26 362.18 245.24 362.04 245.19 361.91C245.17 361.84 245.16 361.77 245.14 361.7C245.12 361.56 245.09 361.42 245.05 361.29C245 361.12 244.88 361.01 244.71 361C244.55 361 244.38 361.09 244.33 361.24C244.26 361.5 244.19 361.76 244.15 362.03C244.09 362.27 244.02 362.52 243.86 362.72C243.76 362.82 243.65 362.91 243.53 362.99C243.43 363.04 243.32 363.08 243.21 363.11C243.08 363.15 242.94 363.15 242.81 363.21C242.63 363.25 242.45 363.28 242.27 363.33C242.01 363.4 241.92 363.68 242.07 363.91C242.15 364.02 242.25 364.07 242.38 364.08C242.49 364.12 242.6 364.14 242.71 364.15C242.84 364.2 242.98 364.22 243.12 364.24C243.26 364.28 243.4 364.32 243.53 364.38C243.68 364.48 243.82 364.6 243.93 364.74C244.01 364.87 244.07 365.02 244.11 365.17L244.18 365.53C244.21 365.62 244.21 365.71 244.25 365.79C244.28 365.93 244.28 366.07 244.37 366.2C244.46 366.33 244.6 366.39 244.75 366.36C244.92 366.33 245.02 366.22 245.06 366.05C245.1 365.89 245.13 365.73 245.16 365.57C245.21 365.34 245.27 365.1 245.35 364.87C245.51 364.58 245.74 364.39 246.05 364.27C246.26 364.23 246.47 364.19 246.67 364.12C246.83 364.1 246.98 364.07 247.12 364.02C247.33 363.94 247.42 363.71 247.31 363.5L247.32 363.52Z" fill="#FF8B0A"/>
<path d="M80.44 394.52C80.37 394.34 80.22 394.26 80.04 394.23C79.88 394.23 79.73 394.12 79.57 394.13C79.42 394.1 79.28 394.06 79.13 394.03C78.9 393.96 78.65 393.92 78.43 393.83C78.22 393.73 78.07 393.57 77.91 393.42C77.78 393.25 77.68 393.05 77.6 392.85C77.56 392.66 77.53 392.46 77.46 392.28C77.44 392.18 77.41 392.08 77.39 391.98C77.36 391.78 77.32 391.59 77.26 391.41C77.2 391.18 77.02 391.03 76.79 391.01C76.56 391 76.33 391.13 76.27 391.35C76.17 391.71 76.08 392.08 76.02 392.45C75.94 392.79 75.84 393.13 75.62 393.41C75.48 393.56 75.33 393.68 75.16 393.79C75.02 393.86 74.87 393.91 74.71 393.95C74.52 394 74.33 394.01 74.15 394.08C73.9 394.13 73.64 394.18 73.4 394.25C73.04 394.35 72.91 394.75 73.12 395.06C73.23 395.21 73.37 395.29 73.56 395.29C73.71 395.34 73.86 395.38 74.02 395.39C74.21 395.45 74.4 395.49 74.6 395.52C74.79 395.58 74.99 395.63 75.17 395.72C75.39 395.86 75.57 396.02 75.73 396.23C75.84 396.42 75.92 396.62 75.98 396.83L76.08 397.33C76.12 397.45 76.12 397.58 76.18 397.7C76.22 397.89 76.23 398.1 76.34 398.27C76.47 398.45 76.65 398.53 76.87 398.49C77.11 398.45 77.25 398.29 77.3 398.06C77.35 397.84 77.39 397.62 77.44 397.4C77.52 397.07 77.59 396.74 77.71 396.43C77.93 396.03 78.26 395.75 78.68 395.59C78.97 395.53 79.27 395.48 79.55 395.39C79.77 395.37 79.98 395.32 80.18 395.25C80.48 395.14 80.59 394.81 80.45 394.52H80.44Z" fill="#35D9EA"/>
<path d="M1798.14 412.74C1798.02 412.45 1797.79 412.31 1797.49 412.26C1797.22 412.26 1796.99 412.09 1796.72 412.09C1796.48 412.04 1796.25 411.98 1796.01 411.93C1795.63 411.82 1795.23 411.75 1794.86 411.6C1794.52 411.44 1794.28 411.17 1794.01 410.93C1793.8 410.65 1793.64 410.33 1793.5 410.01C1793.44 409.69 1793.38 409.38 1793.28 409.08C1793.24 408.92 1793.21 408.76 1793.17 408.59C1793.12 408.27 1793.06 407.96 1792.95 407.65C1792.85 407.27 1792.56 407.02 1792.18 407C1791.81 406.98 1791.43 407.2 1791.32 407.55C1791.15 408.14 1791.01 408.74 1790.91 409.35C1790.77 409.91 1790.62 410.46 1790.25 410.92C1790.02 411.16 1789.77 411.36 1789.5 411.54C1789.26 411.65 1789.02 411.74 1788.77 411.81C1788.47 411.89 1788.15 411.91 1787.86 412.03C1787.45 412.12 1787.03 412.19 1786.63 412.3C1786.04 412.47 1785.83 413.11 1786.17 413.62C1786.34 413.87 1786.58 413.99 1786.88 414C1787.12 414.09 1787.38 414.14 1787.63 414.17C1787.94 414.27 1788.25 414.34 1788.57 414.38C1788.88 414.48 1789.2 414.57 1789.5 414.7C1789.85 414.92 1790.16 415.19 1790.41 415.53C1790.6 415.84 1790.72 416.16 1790.82 416.51L1790.99 417.33C1791.06 417.53 1791.05 417.74 1791.15 417.93C1791.21 418.25 1791.23 418.58 1791.42 418.86C1791.64 419.16 1791.93 419.29 1792.29 419.22C1792.67 419.15 1792.91 418.89 1792.99 418.52C1793.07 418.16 1793.14 417.8 1793.22 417.44C1793.34 416.91 1793.46 416.37 1793.66 415.85C1794.01 415.19 1794.55 414.75 1795.25 414.49C1795.73 414.39 1796.21 414.31 1796.67 414.16C1797.02 414.12 1797.37 414.05 1797.7 413.93C1798.18 413.76 1798.37 413.21 1798.14 412.74Z" fill="#FFBD00"/>
<path d="M1681.32 506.52C1681.27 506.39 1681.16 506.33 1681.03 506.31C1680.91 506.31 1680.81 506.23 1680.69 506.24C1680.59 506.22 1680.48 506.19 1680.38 506.17C1680.21 506.12 1680.04 506.09 1679.88 506.03C1679.73 505.96 1679.62 505.84 1679.51 505.73C1679.42 505.61 1679.35 505.47 1679.29 505.32C1679.26 505.18 1679.24 505.04 1679.19 504.91C1679.17 504.84 1679.16 504.77 1679.14 504.7C1679.12 504.56 1679.09 504.42 1679.05 504.29C1679 504.12 1678.88 504.01 1678.71 504C1678.55 504 1678.38 504.09 1678.33 504.24C1678.26 504.5 1678.19 504.76 1678.15 505.03C1678.09 505.27 1678.02 505.52 1677.86 505.72C1677.76 505.82 1677.65 505.91 1677.53 505.99C1677.43 506.04 1677.32 506.08 1677.21 506.11C1677.08 506.15 1676.94 506.15 1676.81 506.21C1676.63 506.25 1676.45 506.28 1676.27 506.33C1676.01 506.4 1675.92 506.68 1676.07 506.91C1676.15 507.02 1676.25 507.07 1676.38 507.08C1676.49 507.12 1676.6 507.14 1676.71 507.15C1676.84 507.2 1676.98 507.22 1677.12 507.24C1677.26 507.28 1677.4 507.32 1677.53 507.38C1677.68 507.48 1677.82 507.6 1677.93 507.74C1678.01 507.87 1678.07 508.02 1678.11 508.17L1678.18 508.53C1678.21 508.62 1678.21 508.71 1678.25 508.79C1678.28 508.93 1678.28 509.07 1678.37 509.2C1678.46 509.33 1678.6 509.39 1678.75 509.36C1678.92 509.33 1679.02 509.22 1679.06 509.05C1679.1 508.89 1679.13 508.73 1679.16 508.57C1679.21 508.34 1679.27 508.1 1679.35 507.87C1679.51 507.58 1679.74 507.39 1680.05 507.27C1680.26 507.23 1680.47 507.19 1680.67 507.12C1680.83 507.1 1680.98 507.07 1681.12 507.02C1681.33 506.94 1681.42 506.71 1681.31 506.5L1681.32 506.52Z" fill="#FF8B0A"/>
<path d="M1552.44 471.52C1552.37 471.34 1552.22 471.26 1552.04 471.23C1551.88 471.23 1551.73 471.12 1551.57 471.13C1551.42 471.1 1551.28 471.06 1551.13 471.03C1550.9 470.96 1550.65 470.92 1550.43 470.83C1550.22 470.73 1550.07 470.57 1549.91 470.42C1549.78 470.25 1549.68 470.05 1549.6 469.85C1549.56 469.66 1549.53 469.46 1549.46 469.28C1549.44 469.18 1549.41 469.08 1549.39 468.98C1549.36 468.78 1549.32 468.59 1549.26 468.41C1549.2 468.18 1549.02 468.03 1548.79 468.01C1548.56 468 1548.33 468.13 1548.27 468.35C1548.17 468.71 1548.08 469.08 1548.02 469.45C1547.94 469.79 1547.84 470.13 1547.62 470.41C1547.48 470.56 1547.33 470.68 1547.16 470.79C1547.02 470.86 1546.87 470.91 1546.71 470.95C1546.52 471 1546.33 471.01 1546.15 471.08C1545.9 471.13 1545.64 471.18 1545.4 471.25C1545.04 471.35 1544.91 471.75 1545.12 472.06C1545.23 472.21 1545.37 472.29 1545.56 472.29C1545.71 472.34 1545.86 472.38 1546.02 472.39C1546.21 472.45 1546.4 472.49 1546.6 472.52C1546.79 472.58 1546.99 472.63 1547.17 472.72C1547.39 472.86 1547.57 473.02 1547.73 473.23C1547.84 473.42 1547.92 473.62 1547.98 473.83L1548.08 474.33C1548.12 474.45 1548.12 474.58 1548.18 474.7C1548.22 474.89 1548.23 475.1 1548.34 475.27C1548.47 475.45 1548.65 475.53 1548.87 475.49C1549.11 475.45 1549.25 475.29 1549.3 475.06C1549.35 474.84 1549.39 474.62 1549.44 474.4C1549.52 474.07 1549.59 473.74 1549.71 473.43C1549.93 473.03 1550.26 472.75 1550.68 472.59C1550.97 472.53 1551.27 472.48 1551.55 472.39C1551.77 472.37 1551.98 472.32 1552.18 472.25C1552.48 472.14 1552.59 471.81 1552.45 471.52H1552.44Z" fill="#35D9EA"/>
<path d="M1556.14 312.74C1556.02 312.45 1555.79 312.31 1555.49 312.26C1555.22 312.26 1554.99 312.09 1554.72 312.09C1554.48 312.04 1554.25 311.98 1554.01 311.93C1553.63 311.82 1553.23 311.75 1552.86 311.6C1552.52 311.44 1552.28 311.17 1552.01 310.93C1551.8 310.65 1551.64 310.33 1551.5 310.01C1551.44 309.69 1551.38 309.38 1551.28 309.08C1551.24 308.92 1551.21 308.76 1551.17 308.59C1551.12 308.27 1551.06 307.96 1550.95 307.65C1550.85 307.27 1550.56 307.02 1550.18 307C1549.81 306.98 1549.43 307.2 1549.32 307.55C1549.15 308.14 1549.01 308.74 1548.91 309.35C1548.77 309.91 1548.62 310.46 1548.25 310.92C1548.02 311.16 1547.77 311.36 1547.5 311.54C1547.26 311.65 1547.02 311.74 1546.77 311.81C1546.47 311.89 1546.15 311.91 1545.86 312.03C1545.45 312.12 1545.03 312.19 1544.63 312.3C1544.04 312.47 1543.83 313.11 1544.17 313.62C1544.34 313.87 1544.58 313.99 1544.88 314C1545.12 314.09 1545.38 314.14 1545.63 314.17C1545.94 314.27 1546.25 314.34 1546.57 314.38C1546.88 314.48 1547.2 314.57 1547.5 314.7C1547.85 314.92 1548.16 315.19 1548.41 315.53C1548.6 315.84 1548.72 316.16 1548.82 316.51L1548.99 317.33C1549.06 317.53 1549.05 317.74 1549.15 317.93C1549.21 318.25 1549.23 318.58 1549.42 318.86C1549.64 319.16 1549.93 319.29 1550.29 319.22C1550.67 319.15 1550.91 318.89 1550.99 318.52C1551.07 318.16 1551.14 317.8 1551.22 317.44C1551.34 316.91 1551.46 316.37 1551.66 315.85C1552.01 315.19 1552.55 314.75 1553.25 314.49C1553.73 314.39 1554.21 314.31 1554.67 314.16C1555.02 314.12 1555.37 314.05 1555.7 313.93C1556.18 313.76 1556.37 313.21 1556.14 312.74Z" fill="#FFBD00"/>
<path d="M1648.32 187.52C1648.27 187.39 1648.16 187.33 1648.03 187.31C1647.91 187.31 1647.81 187.23 1647.69 187.24C1647.59 187.22 1647.48 187.19 1647.38 187.17C1647.21 187.12 1647.04 187.09 1646.88 187.03C1646.73 186.96 1646.62 186.84 1646.51 186.73C1646.42 186.61 1646.35 186.47 1646.29 186.32C1646.26 186.18 1646.24 186.04 1646.19 185.91C1646.17 185.84 1646.16 185.77 1646.14 185.7C1646.12 185.56 1646.09 185.42 1646.05 185.29C1646 185.12 1645.88 185.01 1645.71 185C1645.55 185 1645.38 185.09 1645.33 185.24C1645.26 185.5 1645.19 185.76 1645.15 186.03C1645.09 186.27 1645.02 186.52 1644.86 186.72C1644.76 186.82 1644.65 186.91 1644.53 186.99C1644.43 187.04 1644.32 187.08 1644.21 187.11C1644.08 187.15 1643.94 187.15 1643.81 187.21C1643.63 187.25 1643.45 187.28 1643.27 187.33C1643.01 187.4 1642.92 187.68 1643.07 187.91C1643.15 188.02 1643.25 188.07 1643.38 188.08C1643.49 188.12 1643.6 188.14 1643.71 188.15C1643.84 188.2 1643.98 188.22 1644.12 188.24C1644.26 188.28 1644.4 188.32 1644.53 188.38C1644.68 188.48 1644.82 188.6 1644.93 188.74C1645.01 188.87 1645.07 189.02 1645.11 189.17L1645.18 189.53C1645.21 189.62 1645.21 189.71 1645.25 189.79C1645.28 189.93 1645.28 190.07 1645.37 190.2C1645.46 190.33 1645.6 190.39 1645.75 190.36C1645.92 190.33 1646.02 190.22 1646.06 190.05C1646.1 189.89 1646.13 189.73 1646.16 189.57C1646.21 189.34 1646.27 189.1 1646.35 188.87C1646.51 188.58 1646.74 188.39 1647.05 188.27C1647.26 188.23 1647.47 188.19 1647.67 188.12C1647.83 188.1 1647.98 188.07 1648.12 188.02C1648.33 187.94 1648.42 187.71 1648.31 187.5L1648.32 187.52Z" fill="#FF8B0A"/>
<path d="M1481.44 218.52C1481.37 218.34 1481.22 218.26 1481.04 218.23C1480.88 218.23 1480.73 218.12 1480.57 218.13C1480.42 218.1 1480.28 218.06 1480.13 218.03C1479.9 217.96 1479.65 217.92 1479.43 217.83C1479.22 217.73 1479.07 217.57 1478.91 217.42C1478.78 217.25 1478.68 217.05 1478.6 216.85C1478.56 216.66 1478.53 216.46 1478.46 216.28C1478.44 216.18 1478.41 216.08 1478.39 215.98C1478.36 215.78 1478.32 215.59 1478.26 215.41C1478.2 215.18 1478.02 215.03 1477.79 215.01C1477.56 215 1477.33 215.13 1477.27 215.35C1477.17 215.71 1477.08 216.08 1477.02 216.45C1476.94 216.79 1476.84 217.13 1476.62 217.41C1476.48 217.56 1476.33 217.68 1476.16 217.79C1476.02 217.86 1475.87 217.91 1475.71 217.95C1475.52 218 1475.33 218.01 1475.15 218.08C1474.9 218.13 1474.64 218.18 1474.4 218.25C1474.04 218.35 1473.91 218.75 1474.12 219.06C1474.23 219.21 1474.37 219.29 1474.56 219.29C1474.71 219.34 1474.86 219.38 1475.02 219.39C1475.21 219.45 1475.4 219.49 1475.6 219.52C1475.79 219.58 1475.99 219.63 1476.17 219.72C1476.39 219.86 1476.57 220.02 1476.73 220.23C1476.84 220.42 1476.92 220.62 1476.98 220.83L1477.08 221.33C1477.12 221.45 1477.12 221.58 1477.18 221.7C1477.22 221.89 1477.23 222.1 1477.34 222.27C1477.47 222.45 1477.65 222.53 1477.87 222.49C1478.11 222.45 1478.25 222.29 1478.3 222.06C1478.35 221.84 1478.39 221.62 1478.44 221.4C1478.52 221.07 1478.59 220.74 1478.71 220.43C1478.93 220.03 1479.26 219.75 1479.68 219.59C1479.97 219.53 1480.27 219.48 1480.55 219.39C1480.77 219.37 1480.98 219.32 1481.18 219.25C1481.48 219.14 1481.59 218.81 1481.45 218.52H1481.44Z" fill="#35D9EA"/>
</svg>
