<svg width="20" height="20" viewBox="0 0 20 20" fill="none" xmlns="http://www.w3.org/2000/svg">
<g clip-path="url(#clip0_10029_45)">
<path d="M20 10C20 4.4772 15.5228 0 10 0C4.4772 0 0 4.4772 0 10C0 14.6896 3.2288 18.6248 7.5844 19.7056V13.056H5.5224V10H7.5844V8.6832C7.5844 5.2796 9.1248 3.702 12.4664 3.702C13.1 3.702 14.1932 3.8264 14.6404 3.9504V6.7204C14.4044 6.6956 13.9944 6.6832 13.4852 6.6832C11.8456 6.6832 11.212 7.3044 11.212 8.9192V10H14.4784L13.9172 13.056H11.212V19.9268C16.1636 19.3288 20.0004 15.1128 20.0004 10H20Z" fill="white"/>
<path d="M13.9168 13.0559L14.478 9.9999H11.2116V8.9191C11.2116 7.3043 11.8452 6.6831 13.4848 6.6831C13.994 6.6831 14.404 6.6955 14.64 6.7203V3.9503C14.1928 3.8259 13.0996 3.7019 12.466 3.7019C9.1244 3.7019 7.584 5.2795 7.584 8.6831V9.9999H5.522V13.0559H7.584V19.7055C8.3576 19.8975 9.1668 19.9999 9.9996 19.9999C10.4096 19.9999 10.814 19.9747 11.2112 19.9267V13.0559H13.9164H13.9168Z" fill="#A45CDA"/>
</g>
<defs>
<clipPath id="clip0_10029_45">
<rect width="20" height="20" fill="white"/>
</clipPath>
</defs>
</svg>
