<svg width="24" height="24" viewBox="0 0 24 24" fill="none" xmlns="http://www.w3.org/2000/svg">
<path d="M21.4256 8.12433L4.92 3.06183C4.6966 2.99667 4.4611 2.98439 4.23213 3.02594C4.00316 3.0675 3.787 3.16176 3.60075 3.30127C3.41449 3.44078 3.26325 3.62171 3.15899 3.82975C3.05472 4.0378 3.00029 4.26725 3 4.49996V18C3 18.3978 3.15804 18.7793 3.43934 19.0606C3.72064 19.3419 4.10218 19.5 4.5 19.5C4.64344 19.5 4.78614 19.4795 4.92375 19.439L12.75 17.0371V18C12.75 18.3978 12.908 18.7793 13.1893 19.0606C13.4706 19.3419 13.8522 19.5 14.25 19.5H17.25C17.6478 19.5 18.0294 19.3419 18.3107 19.0606C18.592 18.7793 18.75 18.3978 18.75 18V15.1968L21.4256 14.3765C21.7353 14.2835 22.0069 14.0934 22.2003 13.8343C22.3937 13.5752 22.4988 13.2608 22.5 12.9375V9.56246C22.4986 9.23928 22.3934 8.92509 22.2 8.66618C22.0066 8.40727 21.7351 8.21733 21.4256 8.12433ZM12.75 15.4687L4.5 18V4.49996L12.75 7.03121V15.4687ZM17.25 18H14.25V16.5768L17.25 15.6562V18ZM21 12.9375H20.9897L14.25 15.0075V7.49246L20.9897 9.55496H21V12.93V12.9375Z" fill="white"/>
</svg>
