<svg width="16" height="16" viewBox="0 0 16 16" fill="none" xmlns="http://www.w3.org/2000/svg">
<path d="M6.35372 2.64622L11.3537 7.64622C11.4002 7.69265 11.4371 7.7478 11.4623 7.8085C11.4874 7.86919 11.5004 7.93426 11.5004 7.99997C11.5004 8.06567 11.4874 8.13074 11.4623 8.19144C11.4371 8.25214 11.4002 8.30728 11.3537 8.35372L6.35372 13.3537C6.2599 13.4475 6.13265 13.5002 5.99997 13.5002C5.86729 13.5002 5.74004 13.4475 5.64622 13.3537C5.5524 13.2599 5.49969 13.1326 5.49969 13C5.49969 12.8673 5.5524 12.74 5.64622 12.6462L10.2931 7.99997L5.64622 3.35371C5.59977 3.30726 5.56292 3.25211 5.53778 3.19141C5.51263 3.13072 5.49969 3.06566 5.49969 2.99997C5.49969 2.93427 5.51263 2.86921 5.53778 2.80852C5.56292 2.74782 5.59977 2.69267 5.64622 2.64622C5.69268 2.59976 5.74783 2.56291 5.80852 2.53777C5.86922 2.51263 5.93427 2.49969 5.99997 2.49969C6.06567 2.49969 6.13072 2.51263 6.19142 2.53777C6.25212 2.56291 6.30727 2.59976 6.35372 2.64622Z" fill="#555555"/>
</svg>
