<svg width="20" height="20" viewBox="0 0 20 20" fill="none" xmlns="http://www.w3.org/2000/svg">
<g clip-path="url(#clip0_10029_48)">
<path d="M5.85839 0.0699376C4.79439 0.120138 4.06779 0.289938 3.43259 0.539538C2.77519 0.795738 2.21799 1.13954 1.66359 1.69594C1.10919 2.25234 0.767786 2.80994 0.513386 3.46834C0.267186 4.10494 0.100386 4.83214 0.0533857 5.89674C0.0063857 6.96134 -0.0040143 7.30354 0.0011857 10.0191C0.0063857 12.7347 0.0183857 13.0751 0.0699857 14.1419C0.120786 15.2057 0.289986 15.9321 0.539586 16.5675C0.796186 17.2249 1.13959 17.7819 1.69619 18.3365C2.25279 18.8911 2.80999 19.2317 3.46999 19.4865C4.10599 19.7323 4.83339 19.8999 5.89779 19.9465C6.96219 19.9931 7.30479 20.0039 10.0196 19.9987C12.7344 19.9935 13.0762 19.9815 14.1428 19.9309C15.2094 19.8803 15.932 19.7099 16.5676 19.4615C17.225 19.2043 17.7824 18.8615 18.3366 18.3047C18.8908 17.7479 19.232 17.1899 19.4862 16.5311C19.7326 15.8951 19.9 15.1677 19.9462 14.1041C19.9928 13.0367 20.0038 12.6959 19.9986 9.98074C19.9934 7.26554 19.9812 6.92514 19.9306 5.85874C19.88 4.79234 19.7106 4.06814 19.4612 3.43234C19.2042 2.77494 18.8612 2.21834 18.3048 1.66334C17.7484 1.10834 17.19 0.767338 16.5314 0.513738C15.895 0.267538 15.168 0.0997376 14.1036 0.0537376C13.0392 0.00773761 12.6966 -0.00406239 9.98079 0.00113761C7.26499 0.00633761 6.92499 0.0179376 5.85839 0.0699376ZM5.97519 18.1475C5.00019 18.1051 4.47079 17.9431 4.11799 17.8075C3.65079 17.6275 3.31799 17.4099 2.96639 17.0617C2.61479 16.7135 2.39879 16.3795 2.21639 15.9133C2.07939 15.5605 1.91439 15.0317 1.86879 14.0567C1.81919 13.0029 1.80879 12.6865 1.80299 10.0167C1.79719 7.34694 1.80739 7.03094 1.85359 5.97674C1.89519 5.00254 2.05819 4.47254 2.19359 4.11994C2.37359 3.65214 2.59039 3.31994 2.93939 2.96854C3.28839 2.61714 3.62139 2.40074 4.08799 2.21834C4.44039 2.08074 4.96919 1.91714 5.94379 1.87074C6.99839 1.82074 7.31439 1.81074 9.98379 1.80494C12.6532 1.79914 12.97 1.80914 14.025 1.85554C14.9992 1.89794 15.5294 2.05934 15.8816 2.19554C16.349 2.37554 16.6816 2.59174 17.033 2.94134C17.3844 3.29094 17.601 3.62274 17.7834 4.09034C17.9212 4.44174 18.0848 4.97034 18.1308 5.94554C18.181 7.00014 18.1924 7.31634 18.1972 9.98554C18.202 12.6547 18.1926 12.9717 18.1464 14.0255C18.1038 15.0005 17.9422 15.5301 17.8064 15.8833C17.6264 16.3503 17.4094 16.6833 17.0602 17.0345C16.711 17.3857 16.3784 17.6021 15.9116 17.7845C15.5596 17.9219 15.0302 18.0859 14.0564 18.1323C13.0018 18.1819 12.6858 18.1923 10.0154 18.1981C7.34499 18.2039 7.02999 18.1931 5.97539 18.1475M14.1274 4.65534C14.1278 4.89269 14.1986 5.1246 14.3308 5.32173C14.463 5.51885 14.6507 5.67235 14.8701 5.76279C15.0896 5.85324 15.3309 5.87658 15.5636 5.82986C15.7963 5.78313 16.0099 5.66845 16.1775 5.50031C16.345 5.33216 16.4589 5.11812 16.5048 4.88524C16.5506 4.65236 16.5264 4.4111 16.4352 4.19199C16.3439 3.97288 16.1897 3.78575 15.9921 3.65427C15.7945 3.52279 15.5623 3.45286 15.325 3.45334C15.0068 3.45397 14.7019 3.58096 14.4773 3.80636C14.2527 4.03177 14.1269 4.33715 14.1274 4.65534ZM4.86539 10.0099C4.87099 12.8459 7.17419 15.1397 10.0096 15.1343C12.845 15.1289 15.1404 12.8259 15.135 9.98994C15.1296 7.15394 12.8258 4.85954 9.98999 4.86514C7.15419 4.87074 4.85999 7.17434 4.86539 10.0099ZM6.66659 10.0063C6.66528 9.34706 6.85951 8.70219 7.2247 8.15329C7.58989 7.6044 8.10965 7.17612 8.71825 6.92262C9.32685 6.66911 9.99695 6.60177 10.6438 6.72911C11.2907 6.85645 11.8853 7.17275 12.3524 7.63801C12.8195 8.10327 13.1381 8.6966 13.268 9.34296C13.3979 9.98932 13.3332 10.6597 13.0822 11.2693C12.8311 11.8789 12.4049 12.4003 11.8574 12.7677C11.31 13.1351 10.6659 13.3318 10.0066 13.3331C9.56882 13.3341 9.13517 13.2487 8.73038 13.082C8.3256 12.9153 7.95762 12.6705 7.64746 12.3616C7.33731 12.0527 7.09104 11.6857 6.92274 11.2815C6.75444 10.8774 6.6674 10.4441 6.66659 10.0063Z" fill="white"/>
</g>
<defs>
<clipPath id="clip0_10029_48">
<rect width="20" height="20" fill="white"/>
</clipPath>
</defs>
</svg>
