<svg width="172" height="50" viewBox="0 0 172 50" fill="none" xmlns="http://www.w3.org/2000/svg">
<g clip-path="url(#clip0_10029_828)">
<path d="M159.228 35.8455L140.585 41.2422C139.04 41.691 137.495 40.5324 137.495 38.9249V20.4697C137.495 19.3946 138.205 18.4447 139.238 18.1524L157.881 12.7558C159.426 12.3069 160.971 13.4656 160.971 15.0731V33.5178C160.971 34.5929 160.261 35.5428 159.228 35.8351V35.8455Z" fill="#E5D0F4"/>
<path d="M144.656 46.1795C144.113 46.1795 143.622 45.8246 143.466 45.2818C143.278 44.6242 143.653 43.9353 144.311 43.7474L160.073 39.1962C160.271 39.1441 163.977 38.1211 163.977 33.737V16.0125C163.977 15.3236 164.53 14.7704 165.219 14.7704C165.908 14.7704 166.461 15.3236 166.461 16.0125V33.7474C166.461 38.8309 162.704 41.1065 160.72 41.5971L145 46.1378C144.885 46.1691 144.77 46.19 144.656 46.19V46.1795Z" fill="#BD89E3"/>
<path d="M150.24 50C149.697 50 149.207 49.6451 149.05 49.1023C148.862 48.4447 149.238 47.7557 149.896 47.5679L162.182 44.071C162.526 43.9875 169.301 42.2651 169.301 34.0188V18.9457C169.301 18.2568 169.854 17.7036 170.543 17.7036C171.232 17.7036 171.785 18.2568 171.785 18.9457V34.0188C171.785 44.2798 162.902 46.4509 162.808 46.4718L150.585 49.9478C150.47 49.9791 150.355 50 150.24 50Z" fill="#9644D4"/>
<path d="M157.756 4.06054C157.672 3.85177 157.505 3.75783 157.296 3.71607C157.109 3.71607 156.942 3.59081 156.754 3.59081C156.587 3.54906 156.42 3.51775 156.253 3.47599C155.981 3.39248 155.699 3.35073 155.438 3.24635C155.198 3.13152 155.021 2.94363 154.833 2.76618C154.676 2.56785 154.572 2.3382 154.468 2.10856C154.426 1.88935 154.384 1.65971 154.311 1.45094C154.29 1.33612 154.259 1.22129 154.238 1.10647C154.207 0.876827 154.165 0.65762 154.081 0.438414C154.008 0.167015 153.8 2.42144e-07 153.539 -0.0208766C153.278 -0.031315 153.006 0.114823 152.933 0.365345C152.808 0.782881 152.714 1.21086 152.641 1.63883C152.547 2.03549 152.432 2.42171 152.182 2.7453C152.025 2.91232 151.837 3.05845 151.649 3.18372C151.482 3.26722 151.315 3.31942 151.127 3.37161C150.919 3.43424 150.689 3.44468 150.48 3.52818C150.188 3.59081 149.896 3.64301 149.603 3.72651C149.186 3.85177 149.04 4.30063 149.28 4.66597C149.405 4.84342 149.572 4.92693 149.781 4.93737C149.958 5 150.136 5.04175 150.313 5.06263C150.532 5.1357 150.752 5.18789 150.981 5.21921C151.2 5.29228 151.43 5.35491 151.639 5.44885C151.889 5.60543 152.109 5.79332 152.286 6.0334C152.422 6.25261 152.505 6.48225 152.578 6.72234L152.693 7.30689C152.745 7.44259 152.735 7.59916 152.808 7.73486C152.85 7.96451 152.86 8.19415 152.996 8.39248C153.152 8.60125 153.361 8.6952 153.612 8.65344C153.883 8.60125 154.05 8.4238 154.113 8.1524C154.175 7.90188 154.217 7.64092 154.269 7.37996C154.353 7.00418 154.447 6.61795 154.582 6.26305C154.833 5.79332 155.219 5.48017 155.71 5.30271C156.044 5.22965 156.388 5.17745 156.712 5.06263C156.962 5.04175 157.213 4.97912 157.443 4.89562C157.787 4.77036 157.923 4.39457 157.756 4.0501V4.06054Z" fill="#FFBD00"/>
<path d="M165.167 9.77035C165.115 9.64509 165.01 9.58246 164.885 9.56159C164.77 9.56159 164.666 9.48852 164.551 9.48852C164.447 9.46764 164.342 9.44676 164.238 9.41545C164.071 9.36326 163.904 9.34238 163.737 9.26931C163.591 9.19624 163.486 9.08142 163.372 8.97704C163.278 8.85177 163.205 8.71608 163.152 8.58038C163.132 8.44468 163.1 8.30898 163.058 8.17328C163.038 8.10021 163.027 8.03758 163.006 7.96451C162.985 7.82881 162.965 7.69311 162.912 7.55741C162.871 7.3904 162.745 7.28601 162.578 7.27557C162.422 7.27557 162.255 7.35908 162.203 7.51566C162.129 7.76618 162.067 8.02714 162.025 8.29854C161.962 8.53862 161.9 8.77871 161.743 8.97704C161.649 9.08142 161.534 9.16493 161.42 9.24843C161.315 9.30063 161.211 9.33194 161.106 9.36326C160.971 9.39457 160.835 9.40501 160.71 9.4572C160.532 9.49896 160.355 9.53027 160.177 9.57202C159.927 9.64509 159.833 9.92693 159.979 10.1461C160.052 10.2505 160.157 10.3027 160.282 10.3132C160.386 10.3549 160.501 10.3758 160.605 10.3862C160.741 10.428 160.877 10.4593 161.013 10.4802C161.148 10.5219 161.284 10.5637 161.42 10.6159C161.576 10.7098 161.701 10.8351 161.816 10.9708C161.9 11.1065 161.952 11.2422 161.994 11.3987L162.067 11.7537C162.098 11.8372 162.088 11.9311 162.14 12.0146C162.171 12.1503 162.171 12.2965 162.255 12.4217C162.349 12.5574 162.474 12.6096 162.63 12.5783C162.798 12.547 162.902 12.4321 162.933 12.2756C162.965 12.119 162.996 11.9624 163.027 11.8058C163.079 11.5762 163.132 11.3466 163.215 11.1169C163.372 10.8351 163.601 10.6367 163.904 10.5219C164.113 10.4802 164.322 10.4384 164.52 10.3758C164.676 10.3653 164.823 10.3236 164.969 10.2714C165.177 10.1983 165.261 9.95825 165.157 9.75992L165.167 9.77035Z" fill="#35D9EA"/>
<path d="M148.142 9.81211C148.1 9.71816 148.027 9.67641 147.944 9.66597C147.86 9.66597 147.787 9.61378 147.704 9.61378C147.631 9.5929 147.557 9.58246 147.484 9.56159C147.37 9.53027 147.244 9.5094 147.129 9.4572C147.025 9.40501 146.952 9.3215 146.869 9.24843C146.806 9.16493 146.754 9.06054 146.712 8.9666C146.691 8.87265 146.681 8.76827 146.639 8.67432C146.628 8.62213 146.618 8.56994 146.608 8.52818C146.597 8.43424 146.576 8.32985 146.545 8.23591C146.514 8.12109 146.42 8.03758 146.305 8.03758C146.19 8.03758 146.075 8.10021 146.044 8.20459C145.992 8.39248 145.95 8.56994 145.919 8.75783C145.877 8.93528 145.825 9.1023 145.71 9.24843C145.637 9.3215 145.564 9.38413 145.48 9.43633C145.407 9.46764 145.334 9.49896 145.251 9.51983C145.157 9.54071 145.063 9.55115 144.969 9.5929C144.843 9.62422 144.708 9.64509 144.582 9.67641C144.405 9.7286 144.332 9.92693 144.436 10.0835C144.489 10.1566 144.562 10.1983 144.656 10.1983C144.729 10.2296 144.812 10.2401 144.885 10.2505C144.979 10.2818 145.084 10.3027 145.177 10.3132C145.271 10.3445 145.376 10.3758 145.47 10.4175C145.574 10.4906 145.679 10.5741 145.752 10.6785C145.814 10.7724 145.846 10.8768 145.877 10.9812L145.929 11.2317C145.95 11.2944 145.95 11.357 145.981 11.4196C146.002 11.5136 146.002 11.618 146.065 11.7119C146.127 11.8058 146.221 11.8476 146.336 11.8267C146.451 11.8058 146.524 11.7223 146.555 11.6075C146.576 11.4927 146.608 11.3883 146.628 11.2735C146.67 11.1065 146.701 10.9395 146.764 10.7829C146.879 10.5741 147.046 10.4384 147.255 10.3549C147.401 10.3236 147.547 10.3027 147.693 10.2505C147.808 10.2401 147.912 10.2192 148.017 10.1775C148.163 10.1253 148.225 9.95825 148.152 9.81211H148.142Z" fill="#FF8B0A"/>
<path d="M3.5073 39.071C3.31941 39.071 3.20459 39.0188 3.1524 38.9249C3.1002 38.8309 3.03757 38.6848 2.95407 38.4969C2.75574 37.6618 2.53653 36.7746 2.30689 35.8351C2.0668 34.8957 1.82672 33.9353 1.56576 32.9645C1.31524 31.9938 1.05428 31.0334 0.803754 30.0731C0.553232 29.1232 0.30271 28.2151 0.0626262 27.3591C-0.0626348 26.9207 0.0417494 26.6597 0.375779 26.5762L2.3382 26.0543C2.52609 25.9917 2.68267 25.9917 2.82881 26.0334C2.97494 26.0752 3.05845 26.19 3.1002 26.3675C3.30897 27.3696 3.53862 28.476 3.7787 29.6764C4.01878 30.8769 4.27975 32.0877 4.54071 33.3299C4.85386 32.1817 5.15657 31.0752 5.43841 30C5.73068 28.9249 5.98121 27.975 6.17954 27.1399C6.22129 26.9625 6.27348 26.8372 6.33611 26.7537C6.39874 26.6702 6.51357 26.6284 6.70146 26.6284H8.59081C8.7787 26.6284 8.89352 26.6702 8.95615 26.7537C9.00835 26.8372 9.06054 26.9729 9.11273 27.1399C9.3215 27.9959 9.57202 28.9666 9.8643 30.0627C10.1566 31.1587 10.4593 32.286 10.7724 33.4552L12.3382 26.3988C12.3695 26.2213 12.4635 26.1169 12.62 26.0648C12.7662 26.023 12.9332 26.023 13.1002 26.0856L14.7286 26.5554C14.906 26.618 15.0104 26.7015 15.0626 26.8372C15.1044 26.9625 15.1044 27.1295 15.0417 27.3382C14.6347 29.0084 14.2067 30.7829 13.7474 32.6931C13.2881 34.5929 12.8184 36.5345 12.3382 38.5178C12.2756 38.7057 12.2234 38.8414 12.1607 38.9458C12.0981 39.0397 11.9729 39.0919 11.785 39.0919H10.0104C9.82254 39.0919 9.69728 39.0397 9.63465 38.9458C9.57202 38.8518 9.50939 38.7057 9.4572 38.5178C9.15448 37.4009 8.85177 36.2944 8.54906 35.2088C8.24634 34.1232 7.94363 32.9959 7.64091 31.8476C7.3382 33.0063 7.03549 34.1232 6.74321 35.2088C6.4405 36.2944 6.13778 37.4009 5.84551 38.5178C5.79331 38.7057 5.73068 38.8414 5.66805 38.9458C5.60542 39.0397 5.48016 39.0919 5.29227 39.0919H3.51774L3.5073 39.071Z" fill="#7C15C9"/>
<path d="M19.4885 36.6076C20.6054 36.6284 21.6493 36.6076 22.62 36.5345C23.5908 36.4614 24.5511 36.3466 25.5115 36.19C25.8455 36.1274 26.0334 36.2526 26.0856 36.5345L26.3466 37.975C26.3987 38.309 26.2839 38.5073 25.9812 38.5804C25.2714 38.7265 24.5929 38.8518 23.9353 38.9458C23.2777 39.0397 22.6096 39.1128 21.952 39.1545C21.2839 39.1963 20.6054 39.238 19.9165 39.2485C19.2276 39.2589 18.5073 39.2693 17.7557 39.2485C16.9624 39.2276 16.5553 38.8309 16.5449 38.0481L16.3361 27.3069C16.3257 26.8998 16.4301 26.5971 16.6701 26.3988C16.9102 26.2005 17.1921 26.0961 17.5574 26.0961L25.6889 26.0648C25.8768 26.0648 26.023 26.1169 26.1273 26.2318C26.2422 26.3362 26.2944 26.4927 26.2944 26.6702V28.0898C26.2944 28.2777 26.2422 28.4238 26.1273 28.5282C26.0125 28.6326 25.8664 28.6952 25.6889 28.6952L19.4781 28.7787V31.3675L25 31.2631C25.1879 31.2631 25.334 31.3153 25.4384 31.4301C25.5428 31.5449 25.6054 31.6911 25.6054 31.8685V33.2881C25.6054 33.476 25.5532 33.6222 25.4384 33.7266C25.3236 33.8309 25.1775 33.8936 25 33.8936L19.4781 33.9458L19.499 36.5867L19.4885 36.6076Z" fill="#7C15C9"/>
<path d="M28.5699 39.071C28.2255 39.071 28.048 38.8936 28.048 38.5491L27.8392 26.785C27.8392 26.5867 27.9019 26.4197 28.0376 26.2944C28.1733 26.1587 28.3403 26.0961 28.5282 26.0961H30.6263C30.8038 26.0961 30.9603 26.1483 31.1169 26.2526C31.263 26.357 31.3883 26.4823 31.4822 26.618L34.2067 34.1858L36.9311 26.618C37.025 26.4823 37.1503 26.357 37.2964 26.2526C37.4426 26.1483 37.6096 26.0961 37.7871 26.0961H39.8852C40.0835 26.0961 40.2505 26.1587 40.3758 26.2944C40.5115 26.4301 40.5741 26.5971 40.5741 26.785L40.3653 38.5491C40.3653 38.8936 40.1879 39.071 39.8434 39.071H38.3194C37.9749 39.071 37.7975 38.8936 37.7975 38.5491L37.6722 31.3883L35.4906 38.2359C35.428 38.4134 35.3445 38.5387 35.2401 38.6117C35.1253 38.6848 34.9896 38.7265 34.833 38.7265H33.5699C33.2359 38.7265 33.0167 38.5595 32.9332 38.2359L30.7516 31.3883L30.6263 38.5491C30.6263 38.8936 30.4488 39.071 30.1044 39.071H28.5699Z" fill="#7C15C9"/>
<path d="M42.1921 38.5804C41.8163 38.4552 41.7119 38.1942 41.8789 37.7975C42.2443 36.9416 42.6305 36.0439 43.0271 35.1044C43.4238 34.165 43.81 33.2151 44.1962 32.2547C44.5825 31.2944 44.9791 30.3341 45.3653 29.3842C45.762 28.4343 46.1378 27.5261 46.5136 26.6597C46.5971 26.4719 46.6597 26.3362 46.7119 26.2318C46.7641 26.1274 46.8789 26.0856 47.0668 26.0856H49.0083C49.1962 26.0856 49.3215 26.1378 49.3841 26.2318C49.4468 26.3257 49.5094 26.4719 49.5616 26.6597C50.3236 28.403 51.0751 30.1984 51.8267 32.0355C52.5678 33.8727 53.3612 35.8038 54.1962 37.8288C54.3632 38.2255 54.2589 38.4865 53.8831 38.6117L52.2547 39.0815C51.8893 39.2067 51.6284 39.1023 51.4927 38.7683C51.2944 38.3195 51.096 37.8497 50.8977 37.3696C50.6994 36.8894 50.501 36.3883 50.3027 35.8664L46.0751 35.8455C45.8768 36.3675 45.6889 36.8685 45.4906 37.3591C45.3027 37.8497 45.1044 38.3195 44.906 38.7787C44.7703 39.1336 44.5094 39.238 44.144 39.0919L42.1816 38.57L42.1921 38.5804ZM49.2693 33.2151L48.1211 30.3132C47.9436 30.8038 47.7766 31.284 47.5992 31.7641C47.4217 32.2443 47.2443 32.7245 47.0668 33.2151H49.2693Z" fill="#7C15C9"/>
<path d="M56.2213 39.0815C55.8768 39.0815 55.6994 38.904 55.6994 38.5595L55.4906 26.6076C55.4906 26.2631 55.6576 26.0856 55.9916 26.0856H58.1733C58.5177 26.0856 58.6847 26.2631 58.6743 26.6076L58.6012 31.357L63.0063 26.0334C63.1315 25.8873 63.2568 25.7725 63.3612 25.689C63.476 25.6055 63.6117 25.6159 63.7683 25.7203L65.4906 27.0042C65.6576 27.1086 65.7411 27.2234 65.7516 27.3382C65.762 27.4531 65.7202 27.5679 65.6263 27.6618L61.8476 31.7746L65.7724 37.4322C65.8873 37.5992 65.8977 37.7245 65.8142 37.8288C65.7307 37.9332 65.6054 38.0376 65.4593 38.142L64.0501 39.165C63.8726 39.2276 63.7474 39.2172 63.6534 39.1441C63.5595 39.071 63.4551 38.9666 63.3194 38.8101L59.8017 33.9875L58.5386 35.3445L58.5073 38.5491C58.5073 38.8936 58.3298 39.071 57.9854 39.071H56.2108L56.2213 39.0815Z" fill="#7C15C9"/>
<path d="M70.4175 36.6076C71.5344 36.6284 72.5783 36.6076 73.5491 36.5345C74.5198 36.4614 75.4802 36.3466 76.4405 36.19C76.7745 36.1274 76.9624 36.2526 77.0146 36.5345L77.2756 37.975C77.3278 38.309 77.2129 38.5073 76.9102 38.5804C76.2004 38.7265 75.5219 38.8518 74.8643 38.9458C74.2067 39.0397 73.5386 39.1128 72.881 39.1545C72.2129 39.1963 71.5344 39.238 70.8455 39.2485C70.1566 39.2589 69.4363 39.2693 68.6848 39.2485C67.8914 39.2276 67.4843 38.8309 67.4739 38.0481L67.2651 27.3069C67.2547 26.8998 67.3591 26.5971 67.5992 26.3988C67.8392 26.2005 68.1211 26.0961 68.4864 26.0961L76.618 26.0648C76.8058 26.0648 76.952 26.1169 77.0564 26.2318C77.1712 26.3362 77.2234 26.4927 77.2234 26.6702V28.0898C77.2234 28.2777 77.1712 28.4238 77.0564 28.5282C76.9415 28.6326 76.7954 28.6952 76.618 28.6952L70.4071 28.7787V31.3675L75.929 31.2631C76.1169 31.2631 76.263 31.3153 76.3674 31.4301C76.4718 31.5449 76.5344 31.6911 76.5344 31.8685V33.2881C76.5344 33.476 76.4823 33.6222 76.3674 33.7266C76.2526 33.8309 76.1065 33.8936 75.929 33.8936L70.4071 33.9458L70.428 36.5867L70.4175 36.6076Z" fill="#7C15C9"/>
<path d="M79.4781 39.2589C79.1545 39.2589 78.9875 39.0815 78.9875 38.737L78.7996 27.1608C78.7891 26.7537 78.8935 26.4614 79.1336 26.2631C79.3633 26.0752 79.6555 25.9604 80.0209 25.9395C82.8914 25.6994 85.0417 25.9395 86.4718 26.6597C87.9019 27.38 88.6221 28.5282 88.6221 30.1044C88.6221 30.4906 88.5595 30.8455 88.4447 31.19C88.3299 31.5345 88.1628 31.8372 87.9436 32.119C87.7244 32.4009 87.4635 32.6305 87.1607 32.8288C86.858 33.0272 86.5344 33.1629 86.1691 33.2464C86.5136 33.3195 86.8267 33.4343 87.119 33.5908C87.4008 33.7579 87.6409 33.9458 87.8392 34.165C88.0376 34.3842 88.1837 34.6243 88.2881 34.8748C88.3925 35.1253 88.4447 35.3863 88.4447 35.6368C88.4447 36.2005 88.309 36.7119 88.048 37.1608C87.787 37.6096 87.38 37.9959 86.8372 38.309C86.3048 38.6222 85.6159 38.8622 84.7912 39.0293C83.9666 39.1963 82.9958 39.2798 81.8893 39.2589L79.4781 39.238V39.2589ZM81.7536 37.2339H83.0167C83.7891 37.2339 84.405 37.0773 84.8643 36.7746C85.3236 36.4719 85.5532 36.0648 85.5532 35.5637C85.5532 35.3132 85.4906 35.0835 85.3549 34.8957C85.2192 34.7078 85.0417 34.5512 84.8121 34.4155C84.5825 34.2902 84.3006 34.1963 83.9875 34.1336C83.6743 34.071 83.3194 34.0397 82.9436 34.0397H81.7954L81.7641 37.2339H81.7536ZM81.858 31.9416H82.9332C83.3403 31.9416 83.7056 31.8998 84.0501 31.8268C84.3946 31.7537 84.6869 31.6493 84.9374 31.5032C85.1879 31.357 85.3758 31.19 85.5219 30.9917C85.6681 30.7934 85.7307 30.5637 85.7307 30.3028C85.7307 29.7182 85.3967 29.2798 84.7182 28.9979C84.0397 28.7161 83.1002 28.6639 81.8789 28.8205L81.858 31.9311V31.9416Z" fill="#7C15C9"/>
<path d="M93.5282 38.7787C92.7662 38.4552 92.1086 37.9959 91.5553 37.4113C91.0021 36.8268 90.5845 36.1169 90.2818 35.3027C89.9791 34.4886 89.833 33.5908 89.833 32.6096C89.833 31.6284 89.9791 30.7203 90.2818 29.8957C90.5845 29.071 91.0125 28.3508 91.5553 27.7558C92.0981 27.1608 92.7662 26.6911 93.5282 26.3466C94.2902 26.0021 95.1357 25.8455 96.0751 25.8455C97.0146 25.8455 97.8497 26.0126 98.6117 26.3466C99.3737 26.6806 100.031 27.1503 100.574 27.7558C101.117 28.3612 101.534 29.071 101.837 29.8957C102.14 30.7203 102.286 31.6284 102.286 32.6096C102.286 33.5908 102.14 34.4886 101.837 35.3027C101.534 36.1169 101.117 36.8268 100.574 37.4113C100.031 38.0063 99.3737 38.4552 98.6117 38.7787C97.8497 39.1023 97.0042 39.2589 96.0751 39.2589C95.1461 39.2589 94.2902 39.0919 93.5282 38.7787ZM93.9248 35.5637C94.2276 35.8769 94.572 36.1169 94.9791 36.284C95.3758 36.451 95.7933 36.5345 96.2422 36.5345C96.691 36.5345 97.0981 36.451 97.4948 36.2944C97.8914 36.1169 98.2359 35.8769 98.5386 35.5533C98.8413 35.2297 99.0814 34.8435 99.2589 34.3737C99.4363 33.904 99.5303 33.3716 99.5303 32.7662C99.5303 32.1608 99.4363 31.6284 99.2589 31.1587C99.0814 30.689 98.8413 30.2923 98.5386 29.9687C98.2359 29.6451 97.8914 29.3946 97.4948 29.2276C97.0981 29.0606 96.6806 28.9771 96.2422 28.9771C95.8037 28.9771 95.3653 29.0606 94.9687 29.2276C94.572 29.3946 94.2276 29.6451 93.9248 29.9687C93.6326 30.2923 93.3925 30.689 93.2255 31.1587C93.048 31.6284 92.9645 32.1608 92.9645 32.7662C92.9645 33.3716 93.048 33.904 93.2255 34.3737C93.4029 34.8435 93.6326 35.2401 93.9353 35.5637H93.9248Z" fill="#7C15C9"/>
<path d="M107.37 38.7787C106.608 38.4552 105.95 37.9959 105.397 37.4113C104.843 36.8268 104.426 36.1169 104.123 35.3027C103.82 34.4886 103.674 33.5908 103.674 32.6096C103.674 31.6284 103.82 30.7203 104.123 29.8957C104.426 29.071 104.854 28.3508 105.397 27.7558C105.939 27.1608 106.608 26.6911 107.37 26.3466C108.132 26.0021 108.977 25.8455 109.916 25.8455C110.856 25.8455 111.691 26.0126 112.453 26.3466C113.215 26.6806 113.873 27.1503 114.415 27.7558C114.958 28.3612 115.376 29.071 115.678 29.8957C115.981 30.7203 116.127 31.6284 116.127 32.6096C116.127 33.5908 115.981 34.4886 115.678 35.3027C115.376 36.1169 114.958 36.8268 114.415 37.4113C113.873 38.0063 113.215 38.4552 112.453 38.7787C111.691 39.1023 110.846 39.2589 109.916 39.2589C108.987 39.2589 108.132 39.0919 107.37 38.7787ZM107.766 35.5637C108.069 35.8769 108.413 36.1169 108.82 36.284C109.217 36.451 109.635 36.5345 110.084 36.5345C110.532 36.5345 110.939 36.451 111.336 36.2944C111.733 36.1169 112.077 35.8769 112.38 35.5533C112.683 35.2297 112.923 34.8435 113.1 34.3737C113.278 33.904 113.372 33.3716 113.372 32.7662C113.372 32.1608 113.278 31.6284 113.1 31.1587C112.923 30.689 112.683 30.2923 112.38 29.9687C112.077 29.6451 111.733 29.3946 111.336 29.2276C110.939 29.0606 110.522 28.9771 110.084 28.9771C109.645 28.9771 109.207 29.0606 108.81 29.2276C108.413 29.3946 108.069 29.6451 107.766 29.9687C107.474 30.2923 107.234 30.689 107.067 31.1587C106.889 31.6284 106.806 32.1608 106.806 32.7662C106.806 33.3716 106.889 33.904 107.067 34.3737C107.244 34.8435 107.474 35.2401 107.777 35.5637H107.766Z" fill="#7C15C9"/>
<path d="M118.591 39.0815C118.246 39.0815 118.069 38.904 118.069 38.5595L117.86 26.6076C117.86 26.2631 118.027 26.0856 118.361 26.0856H120.543C120.887 26.0856 121.054 26.2631 121.044 26.6076L120.971 31.357L125.376 26.0334C125.501 25.8873 125.626 25.7725 125.731 25.689C125.846 25.6055 125.981 25.6159 126.138 25.7203L127.86 27.0042C128.027 27.1086 128.111 27.2234 128.121 27.3382C128.132 27.4531 128.09 27.5679 127.996 27.6618L124.217 31.7746L128.142 37.4322C128.257 37.5992 128.267 37.7245 128.184 37.8288C128.1 37.9332 127.975 38.0376 127.829 38.142L126.42 39.165C126.242 39.2276 126.117 39.2172 126.023 39.1441C125.929 39.071 125.825 38.9666 125.689 38.8101L122.171 33.9875L120.908 35.3445L120.877 38.5491C120.877 38.8936 120.699 39.071 120.355 39.071H118.58L118.591 39.0815Z" fill="#7C15C9"/>
</g>
<defs>
<clipPath id="clip0_10029_828">
<rect width="171.785" height="50" fill="white"/>
</clipPath>
</defs>
</svg>
