<svg width="240" height="418" viewBox="0 0 240 418" fill="none" xmlns="http://www.w3.org/2000/svg">
<g filter="url(#filter0_d_10030_88)">
<g clip-path="url(#clip0_10030_88)">
<rect x="20" y="5" width="200" height="378" fill="white"/>
<path d="M146.806 368.6C146.931 366.104 147.411 364.52 148.745 362.658H145.424V361.726H149.974V362.398C148.352 364.424 148.054 365.922 147.939 368.6H146.806ZM151.868 363.829C151.868 364.674 152.271 365.154 153.02 365.154C153.443 365.154 153.951 364.904 154.345 364.299C154.22 363.032 153.702 362.446 152.953 362.446C152.348 362.446 151.868 362.955 151.868 363.829ZM152.723 368.725C151.926 368.725 151.35 368.398 150.956 367.976L151.561 367.294C151.82 367.611 152.252 367.822 152.665 367.822C153.567 367.822 154.326 367.131 154.374 365.115C153.961 365.643 153.347 365.95 152.828 365.95C151.638 365.95 150.841 365.25 150.841 363.829C150.841 362.475 151.801 361.592 152.943 361.592C154.297 361.592 155.391 362.658 155.391 364.933C155.391 367.64 154.115 368.725 152.723 368.725ZM156.738 370.741V363.32H157.641L157.727 363.896H157.756C158.217 363.512 158.793 363.186 159.388 363.186C160.722 363.186 161.471 364.251 161.471 365.874C161.471 367.688 160.386 368.725 159.196 368.725C158.726 368.725 158.255 368.514 157.804 368.13L157.842 369.032V370.741H156.738ZM158.985 367.813C159.753 367.813 160.329 367.131 160.329 365.893C160.329 364.789 159.974 364.107 159.09 364.107C158.678 364.107 158.284 364.318 157.842 364.75V367.333C158.255 367.688 158.658 367.813 158.985 367.813ZM163.893 368.725C162.981 368.725 162.337 368.13 162.337 367.198C162.337 366.066 163.297 365.48 165.496 365.24C165.486 364.626 165.265 364.088 164.488 364.088C163.931 364.088 163.413 364.338 162.961 364.626L162.549 363.877C163.096 363.531 163.835 363.186 164.68 363.186C165.995 363.186 166.6 364.021 166.6 365.422V368.6H165.697L165.611 367.995H165.573C165.093 368.408 164.526 368.725 163.893 368.725ZM164.229 367.851C164.689 367.851 165.064 367.63 165.496 367.237V365.941C163.931 366.123 163.403 366.526 163.403 367.122C163.403 367.64 163.758 367.851 164.229 367.851ZM169.971 370.971C168.704 370.971 167.782 370.501 167.782 369.579C167.782 369.138 168.061 368.725 168.55 368.427V368.379C168.282 368.216 168.07 367.938 168.07 367.506C168.07 367.093 168.368 366.738 168.666 366.526V366.488C168.301 366.21 167.965 365.71 167.965 365.077C167.965 363.886 168.915 363.186 170.01 363.186C170.307 363.186 170.576 363.243 170.778 363.32H172.65V364.146H171.642C171.843 364.357 171.987 364.712 171.987 365.115C171.987 366.267 171.114 366.93 170.01 366.93C169.77 366.93 169.501 366.872 169.27 366.766C169.098 366.92 168.982 367.064 168.982 367.323C168.982 367.64 169.194 367.842 169.866 367.842H170.835C172.083 367.842 172.736 368.226 172.736 369.128C172.736 370.146 171.661 370.971 169.971 370.971ZM170.01 366.219C170.557 366.219 171.008 365.787 171.008 365.077C171.008 364.376 170.566 363.963 170.01 363.963C169.453 363.963 169.011 364.366 169.011 365.077C169.011 365.787 169.462 366.219 170.01 366.219ZM170.134 370.242C171.056 370.242 171.67 369.79 171.67 369.301C171.67 368.859 171.325 368.725 170.682 368.725H169.885C169.635 368.725 169.395 368.696 169.174 368.648C168.858 368.878 168.723 369.147 168.723 369.416C168.723 369.934 169.261 370.242 170.134 370.242ZM175.756 368.725C174.325 368.725 173.183 367.707 173.183 365.96C173.183 364.251 174.364 363.186 175.592 363.186C176.994 363.186 177.752 364.194 177.752 365.682C177.752 365.902 177.724 366.114 177.695 366.248H174.268C174.354 367.256 174.988 367.861 175.9 367.861C176.37 367.861 176.773 367.717 177.157 367.467L177.541 368.168C177.052 368.494 176.447 368.725 175.756 368.725ZM174.258 365.48H176.792C176.792 364.578 176.38 364.05 175.612 364.05C174.949 364.05 174.364 364.558 174.258 365.48ZM185.893 364.789L185.385 365.547C184.415 365.23 183.724 364.568 183.349 363.742C182.965 364.654 182.245 365.365 181.228 365.72L180.709 364.942C182.082 364.482 182.841 363.378 182.841 362.187V362.034H180.997V361.227H185.653V362.034H183.839V362.187C183.839 363.282 184.569 364.347 185.893 364.789ZM181.861 367.112V366.315H187.564V369.339H186.575V367.112H181.861ZM188.793 362.878V363.694H187.564V365.893H186.575V360.661H187.564V362.878H188.793ZM195.819 365.778V363.205H194.062V362.398H195.819V360.661H196.808V365.778H195.819ZM194.773 364.654L194.245 365.432C193.314 365.096 192.642 364.443 192.267 363.598C191.883 364.558 191.154 365.317 190.107 365.691L189.589 364.894C190.981 364.424 191.739 363.253 191.739 361.986V361.131H192.738V361.938C192.738 363.138 193.458 364.222 194.773 364.654ZM193.918 368.562C195.147 368.562 195.858 368.245 195.858 367.678C195.858 367.112 195.147 366.795 193.918 366.795C192.69 366.795 191.989 367.112 191.989 367.678C191.989 368.245 192.69 368.562 193.918 368.562ZM193.918 366.018C195.733 366.018 196.846 366.632 196.846 367.678C196.846 368.725 195.733 369.339 193.918 369.339C192.114 369.339 191 368.725 191 367.678C191 366.632 192.114 366.018 193.918 366.018ZM199.198 364.232L198.842 363.454C200.446 363.291 201.559 362.619 201.694 361.842H199.178V361.045H205.582V361.842H203.047C203.182 362.619 204.295 363.291 205.898 363.454L205.553 364.232C204.026 364.069 202.836 363.445 202.375 362.552C201.905 363.445 200.714 364.069 199.198 364.232ZM204.343 367.803C204.343 367.285 203.623 367.016 202.356 367.016C201.089 367.016 200.378 367.285 200.378 367.803C200.378 368.302 201.089 368.581 202.356 368.581C203.623 368.581 204.343 368.302 204.343 367.803ZM206.292 365.461H202.865V366.267C204.43 366.363 205.342 366.901 205.342 367.803C205.342 368.782 204.228 369.339 202.356 369.339C200.494 369.339 199.37 368.782 199.37 367.803C199.37 366.901 200.302 366.354 201.876 366.258V365.461H198.449V364.674H206.292V365.461Z" fill="#555555"/>
<path d="M38.3872 364.789L37.8784 365.547C36.9088 365.23 36.2176 364.568 35.8432 363.742C35.4592 364.654 34.7392 365.365 33.7216 365.72L33.2032 364.942C34.576 364.482 35.3344 363.378 35.3344 362.187V362.034H33.4912V361.227H38.1472V362.034H36.3328V362.187C36.3328 363.282 37.0624 364.347 38.3872 364.789ZM34.3552 367.112V366.315H40.0576V369.339H39.0688V367.112H34.3552ZM41.2864 362.878V363.694H40.0576V365.893H39.0688V360.661H40.0576V362.878H41.2864ZM48.3129 365.778V363.205H46.5561V362.398H48.3129V360.661H49.3017V365.778H48.3129ZM47.2665 364.654L46.7385 365.432C45.8073 365.096 45.1353 364.443 44.7609 363.598C44.3769 364.558 43.6473 365.317 42.6009 365.691L42.0825 364.894C43.4745 364.424 44.2329 363.253 44.2329 361.986V361.131H45.2313V361.938C45.2313 363.138 45.9513 364.222 47.2665 364.654ZM46.4121 368.562C47.6409 368.562 48.3513 368.245 48.3513 367.678C48.3513 367.112 47.6409 366.795 46.4121 366.795C45.1833 366.795 44.4825 367.112 44.4825 367.678C44.4825 368.245 45.1833 368.562 46.4121 368.562ZM46.4121 366.018C48.2265 366.018 49.3401 366.632 49.3401 367.678C49.3401 368.725 48.2265 369.339 46.4121 369.339C44.6073 369.339 43.4937 368.725 43.4937 367.678C43.4937 366.632 44.6073 366.018 46.4121 366.018ZM51.6913 364.232L51.3361 363.454C52.9393 363.291 54.0529 362.619 54.1873 361.842H51.6721V361.045H58.0753V361.842H55.5409C55.6753 362.619 56.7889 363.291 58.3921 363.454L58.0465 364.232C56.5201 364.069 55.3297 363.445 54.8689 362.552C54.3985 363.445 53.2081 364.069 51.6913 364.232ZM56.8369 367.803C56.8369 367.285 56.1169 367.016 54.8497 367.016C53.5825 367.016 52.8721 367.285 52.8721 367.803C52.8721 368.302 53.5825 368.581 54.8497 368.581C56.1169 368.581 56.8369 368.302 56.8369 367.803ZM58.7857 365.461H55.3585V366.267C56.9233 366.363 57.8353 366.901 57.8353 367.803C57.8353 368.782 56.7217 369.339 54.8497 369.339C52.9873 369.339 51.8641 368.782 51.8641 367.803C51.8641 366.901 52.7953 366.354 54.3697 366.258V365.461H50.9425V364.674H58.7857V365.461ZM66.9258 360.67V366.968H65.937V360.67H66.9258ZM60.9162 363.416C60.9162 364.203 61.4826 364.731 62.2506 364.731C63.009 364.731 63.585 364.203 63.585 363.416C63.585 362.619 63.009 362.101 62.2506 362.101C61.4826 362.101 60.9162 362.619 60.9162 363.416ZM64.545 363.416C64.545 364.674 63.5562 365.586 62.2506 365.586C60.945 365.586 59.9466 364.674 59.9466 363.416C59.9466 362.149 60.945 361.246 62.2506 361.246C63.5562 361.246 64.545 362.149 64.545 363.416ZM62.2602 368.37H67.1754V369.176H61.2618V366.334H62.2602V368.37ZM72.3741 362.514V366.44C72.6621 366.43 72.9501 366.421 73.2477 366.402V362.514H72.3741ZM74.1501 362.514V366.344C74.4285 366.315 74.7069 366.286 74.9565 366.248L75.0237 366.968C73.6701 367.237 71.8845 367.275 70.7901 367.275L70.6749 366.459C70.9149 366.459 71.1837 366.459 71.4717 366.459V362.514H70.8477V361.717H74.7933V362.514H74.1501ZM75.5805 363.906V360.862H76.5117V368.907H75.5805V364.779H74.5533V363.906H75.5805ZM77.2797 360.67H78.2301V369.339H77.2797V360.67ZM85.7365 360.661H86.7349V369.358H85.7365V360.661ZM82.1173 361.304C83.4133 361.304 84.3541 362.494 84.3541 364.357C84.3541 366.238 83.4133 367.419 82.1173 367.419C80.8309 367.419 79.8901 366.238 79.8901 364.357C79.8901 362.494 80.8309 361.304 82.1173 361.304ZM82.1173 362.197C81.3685 362.197 80.8405 363.013 80.8405 364.357C80.8405 365.72 81.3685 366.536 82.1173 366.536C82.8757 366.536 83.4037 365.72 83.4037 364.357C83.4037 363.013 82.8757 362.197 82.1173 362.197ZM91.6302 362.35V363.176C91.6302 364.616 92.523 366.114 93.8766 366.69L93.3294 367.467C92.3214 367.026 91.5438 366.085 91.1406 364.962C90.7566 366.171 89.979 367.198 88.9614 367.688L88.395 366.901C89.739 366.277 90.6318 364.664 90.6318 363.176V362.35H88.7022V361.534H93.5598V362.35H91.6302ZM94.5678 360.67H95.5662V369.339H94.5678V360.67Z" fill="#999999"/>
<path d="M148.874 341.669V342.466H143.719V341.669H145.812V340.699H146.8V341.669H148.874ZM145.159 344.52C145.159 345.048 145.629 345.374 146.311 345.374C146.992 345.374 147.453 345.048 147.453 344.52C147.453 343.982 146.992 343.656 146.311 343.656C145.629 343.656 145.159 343.982 145.159 344.52ZM146.8 346.094V346.901C147.54 346.862 148.279 346.814 148.97 346.709L149.047 347.438C147.194 347.765 145.188 347.784 143.7 347.784L143.565 346.968C144.228 346.968 145.005 346.968 145.812 346.939V346.094C144.852 345.931 144.228 345.346 144.228 344.52C144.228 343.541 145.072 342.898 146.311 342.898C147.54 342.898 148.384 343.541 148.384 344.52C148.384 345.346 147.76 345.941 146.8 346.094ZM151.677 344.29V345.106H150.448V349.339H149.46V340.661H150.448V344.29H151.677ZM152.771 350.52L152.521 349.896C153.184 349.627 153.568 349.138 153.568 348.581C153.529 348.59 153.501 348.59 153.462 348.59C153.069 348.59 152.723 348.341 152.723 347.88C152.723 347.448 153.069 347.17 153.491 347.17C154.029 347.17 154.345 347.621 154.345 348.36C154.345 349.368 153.76 350.146 152.771 350.52ZM165.015 343.867L164.631 344.664C163.191 344.434 162.011 343.704 161.444 342.706C160.887 343.714 159.687 344.434 158.247 344.664L157.863 343.867C159.63 343.618 160.916 342.552 160.916 341.41V340.949H161.963V341.41C161.963 342.533 163.268 343.618 165.015 343.867ZM165.351 345.48V346.286H161.905V349.349H160.916V346.286H157.518V345.48H165.351ZM166.618 350.52L166.368 349.896C167.031 349.627 167.415 349.138 167.415 348.581C167.376 348.59 167.347 348.59 167.309 348.59C166.915 348.59 166.57 348.341 166.57 347.88C166.57 347.448 166.915 347.17 167.338 347.17C167.875 347.17 168.192 347.621 168.192 348.36C168.192 349.368 167.607 350.146 166.618 350.52ZM172.238 347.352V346.555H178.238V349.339H177.249V347.352H172.238ZM173.323 341.803V343.234H177.23V341.803H173.323ZM175.771 344.99H179.208V345.787H171.355V344.99H174.773V344.021H172.353V341.016H178.2V344.021H175.771V344.99ZM180.465 350.52L180.215 349.896C180.877 349.627 181.261 349.138 181.261 348.581C181.223 348.59 181.194 348.59 181.156 348.59C180.762 348.59 180.417 348.341 180.417 347.88C180.417 347.448 180.762 347.17 181.185 347.17C181.722 347.17 182.039 347.621 182.039 348.36C182.039 349.368 181.453 350.146 180.465 350.52ZM187.132 346.891V348.446H191.116V346.891H187.132ZM186.162 349.234V346.104H192.085V349.234H186.162ZM191.864 344.251H193.064V345.058H185.212V344.251H190.876C191.096 343.282 191.116 342.552 191.116 341.899H186.2V341.093H192.085V341.765C192.085 342.446 192.085 343.214 191.864 344.251ZM194.312 350.52L194.062 349.896C194.724 349.627 195.108 349.138 195.108 348.581C195.07 348.59 195.041 348.59 195.003 348.59C194.609 348.59 194.264 348.341 194.264 347.88C194.264 347.448 194.609 347.17 195.032 347.17C195.569 347.17 195.886 347.621 195.886 348.36C195.886 349.368 195.3 350.146 194.312 350.52ZM206.201 340.661V345.067H205.212V340.661H206.201ZM200.182 342.907C200.182 343.598 200.738 344.05 201.487 344.05C202.246 344.05 202.812 343.598 202.812 342.907C202.812 342.216 202.246 341.765 201.487 341.765C200.738 341.765 200.182 342.216 200.182 342.907ZM203.772 342.907C203.772 344.05 202.802 344.856 201.487 344.856C200.182 344.856 199.222 344.05 199.222 342.907C199.222 341.765 200.182 340.949 201.487 340.949C202.802 340.949 203.772 341.765 203.772 342.907ZM201.506 348.456H206.46V349.234H200.537V346.958H205.222V346.238H200.518V345.461H206.201V347.688H201.506V348.456Z" fill="#555555"/>
<path d="M37.5808 344.866L37.1296 345.605C36.3328 345.298 35.7856 344.741 35.4688 344.03C35.1712 344.798 34.6144 345.422 33.7888 345.758L33.3184 345.019C34.4224 344.587 34.9792 343.608 34.9792 342.59V342.523H33.52V341.736H34.9792V340.757H35.9296V341.736H37.3504V342.523H35.9296V342.59C35.9296 343.56 36.496 344.472 37.5808 344.866ZM34.7488 347.208V346.411H40.624V349.349H39.6352V347.208H34.7488ZM39.6832 340.68H40.624V345.989H39.6832V343.733H38.7904V345.941H37.8592V340.824H38.7904V342.926H39.6832V340.68ZM52.0916 345.01L51.5731 345.749C50.7475 345.394 50.2099 344.731 49.9123 343.934C49.6147 344.75 49.0579 345.48 48.1843 345.864C47.3203 345.47 46.7635 344.731 46.4659 343.915C46.1587 344.702 45.6211 345.384 44.8051 345.749L44.2867 345.01C45.4195 344.501 45.9763 343.368 45.9763 342.389V341.333H46.9651V342.389C46.9651 343.205 47.3395 344.213 48.1939 344.827C49.0387 344.222 49.4035 343.243 49.4035 342.389V341.333H50.4019V342.389C50.4019 343.435 50.9491 344.51 52.0916 345.01ZM44.2579 347.41H52.1395V348.226H44.2579V347.41ZM60.0684 343.157V343.963H54.1164V340.978H55.1052V343.157H60.0684ZM55.0476 346.594V348.35H60.1164V349.147H54.0588V346.594H55.0476ZM53.0988 345H60.9708V345.797H53.0988V345ZM66.9183 345.586V347.467H69.1071V345.576C68.7711 345.662 68.3967 345.701 68.0127 345.701C67.6287 345.701 67.2543 345.662 66.9183 345.586ZM68.0127 341.947C66.6975 341.947 65.7855 342.523 65.7855 343.435C65.7855 344.357 66.6975 344.933 68.0127 344.933C69.3183 344.933 70.2303 344.357 70.2303 343.435C70.2303 342.523 69.3183 341.947 68.0127 341.947ZM70.0959 347.467H71.9487V348.274H64.0959V347.467H65.9295V345.211C65.2383 344.827 64.8255 344.203 64.8255 343.435C64.8255 342.053 66.1599 341.17 68.0127 341.17C69.8559 341.17 71.1999 342.053 71.1999 343.435C71.1999 344.203 70.7871 344.818 70.0959 345.211V347.467ZM80.0696 340.661V345.067H79.0808V340.661H80.0696ZM74.0503 342.907C74.0503 343.598 74.6071 344.05 75.3559 344.05C76.1143 344.05 76.6808 343.598 76.6808 342.907C76.6808 342.216 76.1143 341.765 75.3559 341.765C74.6071 341.765 74.0503 342.216 74.0503 342.907ZM77.6408 342.907C77.6408 344.05 76.6711 344.856 75.3559 344.856C74.0503 344.856 73.0903 344.05 73.0903 342.907C73.0903 341.765 74.0503 340.949 75.3559 340.949C76.6711 340.949 77.6408 341.765 77.6408 342.907ZM75.3751 348.456H80.3288V349.234H74.4055V346.958H79.0904V346.238H74.3863V345.461H80.0696V347.688H75.3751V348.456Z" fill="#999999"/>
<path d="M188.724 325.845H190.673V323.992C190.673 323.608 190.702 323.013 190.721 322.619H190.683C190.51 322.984 190.318 323.349 190.116 323.714L188.724 325.845ZM190.673 328.6V326.699H187.611V325.96L190.424 321.525H191.71V325.845H192.603V326.699H191.71V328.6H190.673ZM195.63 328.725C194.247 328.725 193.345 327.496 193.345 325.038C193.345 322.59 194.247 321.4 195.63 321.4C197.012 321.4 197.915 322.6 197.915 325.038C197.915 327.496 197.012 328.725 195.63 328.725ZM195.63 327.851C196.35 327.851 196.859 327.083 196.859 325.038C196.859 323.013 196.35 322.274 195.63 322.274C194.91 322.274 194.401 323.013 194.401 325.038C194.401 327.083 194.91 327.851 195.63 327.851ZM206.001 320.661V325.067H205.012V320.661H206.001ZM199.982 322.907C199.982 323.598 200.538 324.05 201.287 324.05C202.046 324.05 202.612 323.598 202.612 322.907C202.612 322.216 202.046 321.765 201.287 321.765C200.538 321.765 199.982 322.216 199.982 322.907ZM203.572 322.907C203.572 324.05 202.602 324.856 201.287 324.856C199.982 324.856 199.022 324.05 199.022 322.907C199.022 321.765 199.982 320.949 201.287 320.949C202.602 320.949 203.572 321.765 203.572 322.907ZM201.306 328.456H206.26V329.234H200.337V326.958H205.022V326.238H200.318V325.461H206.001V327.688H201.306V328.456Z" fill="#555555"/>
<path d="M33.7312 328.6V321.525H35.5648C37.7344 321.525 38.9728 322.734 38.9728 325.038C38.9728 327.333 37.7344 328.6 35.6224 328.6H33.7312ZM34.8448 327.688H35.488C37.0048 327.688 37.8208 326.795 37.8208 325.038C37.8208 323.272 37.0048 322.437 35.488 322.437H34.8448V327.688ZM39.9637 326.296V325.48H42.4981V326.296H39.9637ZM43.875 328.6V321.525H45.7086C47.8782 321.525 49.1166 322.734 49.1166 325.038C49.1166 327.333 47.8782 328.6 45.7662 328.6H43.875ZM44.9886 327.688H45.6318C47.1486 327.688 47.9646 326.795 47.9646 325.038C47.9646 323.272 47.1486 322.437 45.6318 322.437H44.9886V327.688ZM51.7395 328.725C50.8275 328.725 50.1843 328.13 50.1843 327.198C50.1843 326.066 51.1443 325.48 53.3427 325.24C53.3331 324.626 53.1123 324.088 52.3347 324.088C51.7779 324.088 51.2595 324.338 50.8083 324.626L50.3955 323.877C50.9427 323.531 51.6819 323.186 52.5267 323.186C53.8419 323.186 54.4467 324.021 54.4467 325.422V328.6H53.5443L53.4579 327.995H53.4195C52.9395 328.408 52.3731 328.725 51.7395 328.725ZM52.0755 327.851C52.5363 327.851 52.9107 327.63 53.3427 327.237V325.941C51.7779 326.123 51.2499 326.526 51.2499 327.122C51.2499 327.64 51.6051 327.851 52.0755 327.851ZM56.2534 330.808C55.9846 330.808 55.7734 330.77 55.591 330.702L55.8022 329.838C55.8982 329.867 56.0518 329.915 56.1862 329.915C56.7622 329.915 57.0982 329.493 57.2902 328.926L57.3958 328.562L55.303 323.32H56.4358L57.415 326.037C57.5686 326.507 57.7318 327.035 57.895 327.525H57.943C58.0774 327.045 58.2214 326.517 58.3558 326.037L59.2006 323.32H60.2758L58.3366 328.917C57.9238 330.05 57.367 330.808 56.2534 330.808Z" fill="#999999"/>
<path d="M41.068 297.82V304.653H39.9968V297.82H41.068ZM39.1232 302.552L38.5824 303.394C37.5008 303.041 36.7104 302.313 36.2944 301.387C35.8784 302.386 35.088 303.186 33.9648 303.561L33.4032 302.729C34.8904 302.23 35.7328 301.013 35.7328 299.744V299.401H33.6944V298.538H38.832V299.401H36.8248V299.744C36.8248 300.94 37.6776 302.084 39.1232 302.552ZM36.0136 306.15H41.3384V307.024H34.932V304.029H36.0136V306.15ZM47.6712 305.194H51.4048V306.078H42.8976V305.194H46.6V302.978H43.9376V298.517H50.3648V299.38H45.0088V302.115H50.448V302.978H47.6712V305.194ZM57.6192 300.347V300.68C57.6192 302.146 58.2536 303.644 59.5432 304.341L58.9504 305.142C58.0664 304.663 57.4632 303.8 57.12 302.781C56.7872 303.883 56.1944 304.83 55.3 305.35L54.6864 304.538C55.976 303.779 56.6 302.178 56.6 300.68V300.347H54.9776V299.463H56.6V298.132H57.6192V299.463H59.2312V300.347H57.6192ZM59.8968 301.45V297.997H60.9056V306.743H59.8968V302.323H58.628V301.45H59.8968ZM61.7896 297.81H62.8088V307.201H61.7896V297.81ZM65.096 301.512L70.8264 301.294C70.8472 300.794 70.8472 300.316 70.8472 299.838V299.567H65.356V298.704H71.8976V299.838C71.8976 301.2 71.8976 302.49 71.4816 304.466L70.4208 304.372C70.6184 303.53 70.7224 302.791 70.7744 302.105L65.2312 302.386L65.096 301.512ZM64.368 305.1H72.8544V305.984H64.368V305.1Z" fill="#222222"/>
<rect x="20" y="280.8" width="200" height="0.8" fill="#CCCCCC"/>
<rect x="20" y="280.8" width="200" height="0.8" fill="#CCCCCC"/>
<path d="M146.872 259.813V257.682H147.794V265.717H146.872V262.798H145.451V261.992H146.872V260.619H145.605C145.202 262.078 144.29 263.336 142.667 264.306L142.101 263.605C143.886 262.52 144.75 261.109 144.894 259.333H142.523V258.536H145.874C145.874 258.978 145.845 259.41 145.778 259.813H146.872ZM148.619 257.47H149.57V266.139H148.619V257.47ZM156.375 258.2V258.92H151.306V258.2H153.342V257.403H154.34V258.2H156.375ZM152.689 260.475C152.689 260.878 153.14 261.109 153.841 261.109C154.551 261.109 155.002 260.878 155.002 260.475C155.002 260.091 154.551 259.861 153.841 259.861C153.14 259.861 152.689 260.091 152.689 260.475ZM156.529 262.059L156.606 262.741C154.734 263.058 152.708 263.086 151.162 263.086L151.038 262.318C151.729 262.318 152.526 262.318 153.342 262.29V261.752C152.362 261.637 151.748 261.166 151.748 260.475C151.748 259.688 152.583 259.189 153.841 259.189C155.108 259.189 155.943 259.688 155.943 260.475C155.943 261.166 155.319 261.637 154.34 261.752V262.251C155.089 262.213 155.828 262.155 156.529 262.059ZM152.257 264.469V263.682H158.132V266.149H157.143V264.469H152.257ZM157.143 257.48H158.132V263.317H157.143V257.48ZM161.079 259.304V263.259C162.077 263.25 162.864 263.202 163.757 263.019L163.843 263.835C162.797 264.037 161.904 264.075 160.685 264.075H160.109V258.498H163.315V259.304H161.079ZM166.272 257.461H167.213V266.13H166.272V261.694H165.245V265.707H164.314V257.643H165.245V260.888H166.272V257.461ZM173.059 264.306H176.505V265.122H168.652V264.306H172.07V262.827H169.603V260.034H174.595V258.872H169.583V258.075H175.574V260.821H170.572V262.03H175.766V262.827H173.059V264.306ZM186.782 257.48V263.787H185.793V257.48H186.782ZM184.987 261.848L184.488 262.626C183.489 262.299 182.76 261.627 182.376 260.773C181.992 261.694 181.262 262.434 180.225 262.779L179.707 262.011C181.08 261.55 181.857 260.427 181.857 259.256V258.939H179.976V258.142H184.718V258.939H182.865V259.256C182.865 260.36 183.652 261.416 184.987 261.848ZM182.116 265.17H187.032V265.976H181.118V263.211H182.116V265.17ZM193.962 260.542V262.635H193.041V257.634H193.962V259.726H194.865V257.461H195.805V262.933H194.865V260.542H193.962ZM192.743 258.44V259.218H188.423V258.44H190.103V257.547H191.073V258.44H192.743ZM189.623 261.09C189.623 261.56 190.007 261.867 190.593 261.867C191.178 261.867 191.572 261.56 191.572 261.09C191.572 260.619 191.178 260.312 190.593 260.312C190.007 260.312 189.623 260.619 189.623 261.09ZM192.455 261.09C192.455 261.992 191.687 262.587 190.593 262.587C189.508 262.587 188.74 261.992 188.74 261.09C188.74 260.197 189.508 259.592 190.593 259.592C191.687 259.592 192.455 260.197 192.455 261.09ZM192.925 265.39C194.173 265.39 194.865 265.112 194.865 264.594C194.865 264.075 194.173 263.806 192.925 263.806C191.687 263.806 190.977 264.075 190.977 264.594C190.977 265.112 191.687 265.39 192.925 265.39ZM192.925 263.058C194.749 263.058 195.853 263.614 195.853 264.594C195.853 265.573 194.749 266.139 192.925 266.139C191.092 266.139 189.988 265.573 189.988 264.594C189.988 263.614 191.092 263.058 192.925 263.058ZM200.198 261.032L199.842 260.254C201.446 260.091 202.559 259.419 202.694 258.642H200.178V257.845H206.582V258.642H204.047C204.182 259.419 205.295 260.091 206.898 260.254L206.553 261.032C205.026 260.869 203.836 260.245 203.375 259.352C202.905 260.245 201.714 260.869 200.198 261.032ZM205.343 264.603C205.343 264.085 204.623 263.816 203.356 263.816C202.089 263.816 201.378 264.085 201.378 264.603C201.378 265.102 202.089 265.381 203.356 265.381C204.623 265.381 205.343 265.102 205.343 264.603ZM207.292 262.261H203.865V263.067C205.43 263.163 206.342 263.701 206.342 264.603C206.342 265.582 205.228 266.139 203.356 266.139C201.494 266.139 200.37 265.582 200.37 264.603C200.37 263.701 201.302 263.154 202.876 263.058V262.261H199.449V261.474H207.292V262.261Z" fill="#555555"/>
<path d="M39.4816 264.085V262.347H38.1568V261.55H39.4816V260.514H38.1568V259.707H39.4816V257.47H40.4704V264.085H39.4816ZM38.1184 258.459V259.246H33.3088V258.459H35.2576V257.461H36.2464V258.459H38.1184ZM34.6912 261.33C34.6912 261.896 35.1232 262.232 35.7472 262.232C36.3808 262.232 36.8128 261.896 36.8128 261.33C36.8128 260.773 36.3808 260.418 35.7472 260.418C35.1232 260.418 34.6912 260.773 34.6912 261.33ZM37.744 261.33C37.744 262.328 36.928 263.01 35.7472 263.01C34.576 263.01 33.76 262.328 33.76 261.33C33.76 260.322 34.576 259.65 35.7472 259.65C36.928 259.65 37.744 260.322 37.744 261.33ZM35.824 265.17H40.672V265.976H34.8256V263.528H35.824V265.17ZM44.7609 259.237V259.717C44.7609 261.282 45.3081 262.702 46.5657 263.355L45.9897 264.114C45.1641 263.662 44.6265 262.875 44.3097 261.915C44.0121 263.019 43.4553 263.902 42.6009 264.411L41.9961 263.672C43.2537 262.942 43.8009 261.435 43.8009 259.717V259.237H42.2361V258.421H46.2105V259.237H44.7609ZM48.6201 257.461H49.5609V266.139H48.6201V261.704H47.6697V265.736H46.7385V257.624H47.6697V260.888H48.6201V257.461ZM58.1484 261.435L57.63 262.213C56.6988 261.877 56.0076 261.214 55.6428 260.398C55.2588 261.339 54.5484 262.088 53.55 262.453L53.022 261.666C54.3852 261.195 55.1244 260.014 55.1244 258.766V257.912H56.1228V258.843C56.1228 259.957 56.862 261.013 58.1484 261.435ZM57.0828 265.362C58.2924 265.362 58.9932 265.064 58.9932 264.507C58.9932 263.97 58.2924 263.662 57.0828 263.662C55.8732 263.662 55.1724 263.97 55.1724 264.507C55.1724 265.064 55.8732 265.362 57.0828 265.362ZM57.0828 262.885C58.878 262.885 59.9724 263.49 59.9724 264.507C59.9724 265.534 58.878 266.139 57.0828 266.139C55.2972 266.139 54.1932 265.534 54.1932 264.507C54.1932 263.49 55.2972 262.885 57.0828 262.885ZM59.8764 259.611H61.1052V260.427H59.8764V262.674H58.8876V257.461H59.8764V259.611ZM67.0373 258.162V258.891H62.0837V258.162H64.0709V257.403H65.0693V258.162H67.0373ZM63.4277 260.418C63.4277 260.792 63.8693 261.003 64.5605 261.003C65.2613 261.003 65.6933 260.792 65.6933 260.418C65.6933 260.053 65.2613 259.842 64.5605 259.842C63.8693 259.842 63.4277 260.053 63.4277 260.418ZM67.2773 262.002L67.3541 262.674C65.5301 263 63.4949 263.029 61.9781 263.029L61.8629 262.261C62.5157 262.261 63.2741 262.261 64.0709 262.232V261.627C63.0917 261.512 62.4965 261.08 62.4965 260.418C62.4965 259.65 63.3125 259.189 64.5605 259.189C65.8085 259.189 66.6245 259.65 66.6245 260.418C66.6245 261.07 66.0293 261.512 65.0693 261.627V262.194C65.8181 262.155 66.5765 262.098 67.2773 262.002ZM65.8949 265.419C67.1429 265.419 67.7861 265.208 67.7861 264.795C67.7861 264.373 67.1429 264.162 65.8949 264.162C64.6373 264.162 63.9941 264.373 63.9941 264.795C63.9941 265.208 64.6373 265.419 65.8949 265.419ZM65.8949 263.442C67.7189 263.442 68.7845 263.912 68.7845 264.795C68.7845 265.669 67.7189 266.149 65.8949 266.149C64.0613 266.149 62.9957 265.669 62.9957 264.795C62.9957 263.912 64.0613 263.442 65.8949 263.442ZM68.7269 260.014H69.9173V260.83H68.7269V263.326H67.7381V257.48H68.7269V260.014Z" fill="#999999"/>
<path d="M40.0384 240.142V237.355H38.1352V236.482H40.0384V234.599H41.1096V240.142H40.0384ZM38.9048 238.926L38.3328 239.768C37.324 239.404 36.596 238.697 36.1904 237.782C35.7744 238.822 34.984 239.643 33.8504 240.049L33.2888 239.186C34.7968 238.676 35.6184 237.407 35.6184 236.034V235.109H36.7V235.982C36.7 237.282 37.48 238.458 38.9048 238.926ZM37.9792 243.158C39.3104 243.158 40.08 242.815 40.08 242.202C40.08 241.588 39.3104 241.245 37.9792 241.245C36.648 241.245 35.8888 241.588 35.8888 242.202C35.8888 242.815 36.648 243.158 37.9792 243.158ZM37.9792 240.402C39.9448 240.402 41.1512 241.068 41.1512 242.202C41.1512 243.335 39.9448 244.001 37.9792 244.001C36.024 244.001 34.8176 243.335 34.8176 242.202C34.8176 241.068 36.024 240.402 37.9792 240.402ZM50.0736 238.343L49.0232 238.229C49.2624 237.303 49.2728 236.627 49.2728 235.92H43.8856V235.057H50.3336V235.847C50.3336 236.596 50.3336 237.376 50.0736 238.343ZM47.1096 243.179C48.4928 243.179 49.3248 242.836 49.3248 242.243C49.3248 241.661 48.4928 241.318 47.1096 241.318C45.716 241.318 44.8632 241.661 44.8632 242.243C44.8632 242.836 45.716 243.179 47.1096 243.179ZM47.1096 240.496C49.1064 240.496 50.396 241.162 50.396 242.243C50.396 243.335 49.1064 244.001 47.1096 244.001C45.0816 244.001 43.8024 243.335 43.8024 242.243C43.8024 241.162 45.0816 240.496 47.1096 240.496ZM47.3176 238.905H51.3736V239.768H42.908V238.905H46.236V237.178H47.3176V238.905ZM59.6264 239.57H61.5192V237.511H59.5952C59.668 237.854 59.7096 238.208 59.7096 238.603C59.7096 238.957 59.6784 239.269 59.6264 239.57ZM57.328 240.964C58.1392 240.964 58.6904 240.08 58.6904 238.603C58.6904 237.147 58.1392 236.263 57.328 236.263C56.5272 236.263 55.9656 237.147 55.9656 238.603C55.9656 240.08 56.5272 240.964 57.328 240.964ZM61.5192 234.599H62.6008V244.022H61.5192V240.454H59.356C58.9608 241.38 58.2224 241.921 57.328 241.921C55.9448 241.921 54.9568 240.642 54.9568 238.603C54.9568 236.586 55.9448 235.296 57.328 235.296C58.1808 235.296 58.8776 235.785 59.304 236.627H61.5192V234.599ZM70.7536 238.218V237.022H66.4584V238.218H70.7536ZM71.8248 234.974V239.082H65.3872V234.974H66.4584V236.159H70.7536V234.974H71.8248ZM72.8752 240.101V240.964H69.1208V244.011H68.0496V240.964H64.3576V240.101H72.8752Z" fill="#222222"/>
<rect x="20" y="217.6" width="200" height="0.8" fill="#CCCCCC"/>
<rect x="20" y="217.6" width="200" height="0.8" fill="#CCCCCC"/>
<path d="M33.2224 202.2V201.557C35.3056 199.714 36.3808 198.341 36.3808 197.179C36.3808 196.411 35.9776 195.883 35.1808 195.883C34.624 195.883 34.1632 196.238 33.7888 196.67L33.1648 196.056C33.7696 195.394 34.3936 195 35.3152 195C36.6112 195 37.4464 195.845 37.4464 197.122C37.4464 198.485 36.3616 199.896 34.864 201.326C35.2288 201.288 35.6704 201.259 36.016 201.259H37.7824V202.2H33.2224ZM40.8478 202.325C39.7342 202.325 39.0334 201.874 38.5342 201.384L39.0622 200.664C39.4654 201.067 39.9742 201.422 40.7134 201.422C41.5102 201.422 42.115 200.856 42.115 199.915C42.115 198.974 41.5774 198.437 40.771 198.437C40.3198 198.437 40.051 198.571 39.6382 198.84L39.1006 198.485L39.3118 195.125H42.8926V196.066H40.2718L40.1086 197.88C40.4158 197.726 40.6942 197.63 41.0782 197.63C42.259 197.63 43.2286 198.331 43.2286 199.877C43.2286 201.442 42.0862 202.325 40.8478 202.325ZM45.0556 199.445H47.0044V197.592C47.0044 197.208 47.0332 196.613 47.0524 196.219H47.014C46.8412 196.584 46.6492 196.949 46.4476 197.314L45.0556 199.445ZM47.0044 202.2V200.299H43.942V199.56L46.7548 195.125H48.0413V199.445H48.9341V200.299H48.0413V202.2H47.0044ZM55.0677 194.99V196.411C55.0677 198.005 55.9509 199.598 57.3141 200.213L56.7381 201C55.7397 200.53 54.9813 199.57 54.5877 198.398C54.1941 199.656 53.4261 200.683 52.3797 201.192L51.7941 200.366C53.1765 199.742 54.0789 198.082 54.0789 196.411V194.99H55.0677ZM58.0053 194.261H59.0037V202.958H58.0053V194.261ZM61.0382 194.933H65.1374C65.1374 197.227 63.611 198.859 61.0862 199.627L60.6734 198.84C62.6606 198.235 63.8894 197.112 64.0622 195.739H61.0382V194.933ZM62.9678 199.915V201.97H67.8062V202.776H61.9694V199.915H62.9678ZM67.4606 196.805H68.699V197.621H67.4606V200.549H66.4718V194.27H67.4606V196.805Z" fill="#7C15C9"/>
<path d="M163.706 198.139L163.408 197.39C165.165 197.266 166.25 196.642 166.365 195.864H163.792V195.086H166.432V194.261H167.421V195.086H170.061V195.864H167.488C167.603 196.642 168.688 197.266 170.445 197.39L170.138 198.139C168.631 198.014 167.469 197.525 166.922 196.757C166.384 197.525 165.223 198.014 163.706 198.139ZM166.912 202.19C168.199 202.19 168.899 201.95 168.899 201.48C168.899 201.01 168.199 200.76 166.912 200.76C165.635 200.76 164.935 201.01 164.935 201.48C164.935 201.95 165.635 202.19 166.912 202.19ZM166.912 200.03C168.794 200.03 169.898 200.539 169.898 201.48C169.898 202.421 168.794 202.939 166.912 202.939C165.04 202.939 163.927 202.421 163.927 201.48C163.927 200.539 165.04 200.03 166.912 200.03ZM167.421 198.696H170.848V199.483H163.005V198.696H166.432V197.746H167.421V198.696ZM176.383 198.59C175.98 198.59 175.49 198.811 175.068 199.416C175.183 200.818 175.692 201.48 176.45 201.48C177.064 201.48 177.554 200.923 177.554 200.002C177.554 199.099 177.141 198.59 176.383 198.59ZM176.46 202.325C175.116 202.325 174.021 201.202 174.021 198.802C174.021 196.085 175.298 195 176.69 195C177.477 195 178.053 195.336 178.456 195.758L177.852 196.43C177.592 196.123 177.16 195.902 176.748 195.902C175.845 195.902 175.096 196.584 175.048 198.6C175.461 198.091 176.076 197.784 176.584 197.784C177.775 197.784 178.572 198.514 178.572 200.002C178.572 201.403 177.612 202.325 176.46 202.325ZM181.723 202.325C180.341 202.325 179.439 201.096 179.439 198.638C179.439 196.19 180.341 195 181.723 195C183.106 195 184.008 196.2 184.008 198.638C184.008 201.096 183.106 202.325 181.723 202.325ZM181.723 201.451C182.443 201.451 182.952 200.683 182.952 198.638C182.952 196.613 182.443 195.874 181.723 195.874C181.003 195.874 180.495 196.613 180.495 198.638C180.495 200.683 181.003 201.451 181.723 201.451ZM187.198 202.325C185.816 202.325 184.914 201.096 184.914 198.638C184.914 196.19 185.816 195 187.198 195C188.581 195 189.483 196.2 189.483 198.638C189.483 201.096 188.581 202.325 187.198 202.325ZM187.198 201.451C187.918 201.451 188.427 200.683 188.427 198.638C188.427 196.613 187.918 195.874 187.198 195.874C186.478 195.874 185.97 196.613 185.97 198.638C185.97 200.683 186.478 201.451 187.198 201.451ZM193.624 194.99V196.411C193.624 198.005 194.507 199.598 195.87 200.213L195.294 201C194.296 200.53 193.537 199.57 193.144 198.398C192.75 199.656 191.982 200.683 190.936 201.192L190.35 200.366C191.733 199.742 192.635 198.082 192.635 196.411V194.99H193.624ZM196.561 194.261H197.56V202.958H196.561V194.261ZM199.594 194.933H203.694C203.694 197.227 202.167 198.859 199.642 199.627L199.23 198.84C201.217 198.235 202.446 197.112 202.618 195.739H199.594V194.933ZM201.524 199.915V201.97H206.362V202.776H200.526V199.915H201.524ZM206.017 196.805H207.255V197.621H206.017V200.549H205.028V194.27H206.017V196.805Z" fill="#999999"/>
<rect x="32.8" y="183.2" width="174.4" height="3.2" rx="1.6" fill="#F6EBFF"/>
<rect x="32.8" y="183.2" width="74.4" height="3.2" rx="1.6" fill="#7C15C9"/>
<path d="M38.9152 167.653L38.3848 168.495C37.3448 168.121 36.596 167.382 36.1904 166.478C35.7744 167.486 34.984 168.308 33.8712 168.693L33.32 167.85C34.776 167.351 35.6288 166.103 35.6288 164.845V164.782H33.6424V163.909H38.6656V164.782H36.7104V164.834C36.7104 165.999 37.5112 167.164 38.9152 167.653ZM40.0384 171.823V170.814H36.0656V171.823H40.0384ZM40.0384 169.972V168.953H41.1096V172.686H35.0048V168.953H36.0656V169.972H40.0384ZM40.028 163.41H41.1096V168.537H40.028V166.488H38.3744V165.604H40.028V163.41ZM50.8952 166.394L50.4896 167.226C48.9816 166.987 47.7232 166.29 47.12 165.282C46.5272 166.28 45.2792 166.998 43.7608 167.226L43.3656 166.394C45.2168 166.145 46.5792 165.084 46.5792 163.919V163.566H47.6816V163.919C47.6816 165.105 49.0128 166.145 50.8952 166.394ZM43.8336 170.586V169.722H50.344V172.811H49.2728V170.586H43.8336ZM47.6608 168.048H51.4048V168.911H42.8872V168.048H46.5896V166.717H47.6608V168.048ZM58.264 164.19V165.729C58.264 167.455 59.2208 169.182 60.6976 169.847L60.0736 170.7C58.992 170.19 58.1704 169.15 57.744 167.882C57.3176 169.244 56.4856 170.357 55.352 170.908L54.7176 170.014C56.2152 169.338 57.1928 167.538 57.1928 165.729V164.19H58.264ZM61.4464 163.399H62.528V172.822H61.4464V163.399ZM64.732 164.127H69.1728C69.1728 166.613 67.5192 168.381 64.784 169.213L64.3368 168.36C66.4896 167.705 67.8208 166.488 68.008 165.001H64.732V164.127ZM66.8224 169.525V171.75H72.064V172.624H65.7408V169.525H66.8224ZM71.6896 166.155H73.0312V167.039H71.6896V170.211H70.6184V163.41H71.6896V166.155Z" fill="#222222"/>
<rect x="20" y="146.4" width="200" height="0.8" fill="#CCCCCC"/>
<rect x="20" y="146.4" width="200" height="0.8" fill="#CCCCCC"/>
<path d="M35.3728 131.125C34.2592 131.125 33.5392 130.683 33.0688 130.155L33.6064 129.445C34.0192 129.867 34.5472 130.222 35.2768 130.222C36.0736 130.222 36.6208 129.781 36.6208 129.042C36.6208 128.264 36.1216 127.755 34.528 127.755V126.939C35.92 126.939 36.3808 126.411 36.3808 125.701C36.3808 125.077 35.968 124.693 35.296 124.683C34.7488 124.693 34.288 124.952 33.8848 125.346L33.3088 124.654C33.8656 124.155 34.5184 123.8 35.3344 123.8C36.6016 123.8 37.4944 124.462 37.4944 125.624C37.4944 126.44 37.024 127.006 36.2752 127.285V127.333C37.0912 127.534 37.7344 128.149 37.7344 129.099C37.7344 130.376 36.6688 131.125 35.3728 131.125ZM38.6974 131V130.357C40.7806 128.514 41.8558 127.141 41.8558 125.979C41.8558 125.211 41.4526 124.683 40.6558 124.683C40.099 124.683 39.6382 125.038 39.2638 125.47L38.6398 124.856C39.2446 124.194 39.8686 123.8 40.7902 123.8C42.0862 123.8 42.9214 124.645 42.9214 125.922C42.9214 127.285 41.8366 128.696 40.339 130.126C40.7038 130.088 41.1454 130.059 41.491 130.059H43.2574V131H38.6974ZM44.5084 132.92L44.2588 132.296C44.9212 132.027 45.3052 131.538 45.3052 130.981C45.2668 130.99 45.238 130.99 45.1996 130.99C44.806 130.99 44.4604 130.741 44.4604 130.28C44.4604 129.848 44.806 129.57 45.2284 129.57C45.766 129.57 46.0828 130.021 46.0828 130.76C46.0828 131.768 45.4972 132.546 44.5084 132.92ZM49.3454 131.125C47.963 131.125 47.0606 129.896 47.0606 127.438C47.0606 124.99 47.963 123.8 49.3454 123.8C50.7278 123.8 51.6302 125 51.6302 127.438C51.6302 129.896 50.7278 131.125 49.3454 131.125ZM49.3454 130.251C50.0654 130.251 50.5742 129.483 50.5742 127.438C50.5742 125.413 50.0654 124.674 49.3454 124.674C48.6254 124.674 48.1166 125.413 48.1166 127.438C48.1166 129.483 48.6254 130.251 49.3454 130.251ZM54.8204 131.125C53.438 131.125 52.5356 129.896 52.5356 127.438C52.5356 124.99 53.438 123.8 54.8204 123.8C56.2028 123.8 57.1052 125 57.1052 127.438C57.1052 129.896 56.2028 131.125 54.8204 131.125ZM54.8204 130.251C55.5404 130.251 56.0492 129.483 56.0492 127.438C56.0492 125.413 55.5404 124.674 54.8204 124.674C54.1004 124.674 53.5916 125.413 53.5916 127.438C53.5916 129.483 54.1004 130.251 54.8204 130.251ZM60.2954 131.125C58.913 131.125 58.0106 129.896 58.0106 127.438C58.0106 124.99 58.913 123.8 60.2954 123.8C61.6778 123.8 62.5802 125 62.5802 127.438C62.5802 129.896 61.6778 131.125 60.2954 131.125ZM60.2954 130.251C61.0154 130.251 61.5242 129.483 61.5242 127.438C61.5242 125.413 61.0154 124.674 60.2954 124.674C59.5754 124.674 59.0666 125.413 59.0666 127.438C59.0666 129.483 59.5754 130.251 60.2954 130.251ZM70.7779 127.189L70.2691 127.947C69.2995 127.63 68.6083 126.968 68.2339 126.142C67.8499 127.054 67.1299 127.765 66.1123 128.12L65.5939 127.342C66.9667 126.882 67.7251 125.778 67.7251 124.587V124.434H65.8819V123.627H70.5379V124.434H68.7235V124.587C68.7235 125.682 69.4531 126.747 70.7779 127.189ZM66.7459 129.512V128.715H72.4483V131.739H71.4595V129.512H66.7459ZM73.6771 125.278V126.094H72.4483V128.293H71.4595V123.061H72.4483V125.278H73.6771ZM80.7035 128.178V125.605H78.9467V124.798H80.7035V123.061H81.6923V128.178H80.7035ZM79.6571 127.054L79.1291 127.832C78.1979 127.496 77.5259 126.843 77.1515 125.998C76.7675 126.958 76.0379 127.717 74.9915 128.091L74.4731 127.294C75.8651 126.824 76.6235 125.653 76.6235 124.386V123.531H77.6219V124.338C77.6219 125.538 78.3419 126.622 79.6571 127.054ZM78.8027 130.962C80.0315 130.962 80.7419 130.645 80.7419 130.078C80.7419 129.512 80.0315 129.195 78.8027 129.195C77.5739 129.195 76.8731 129.512 76.8731 130.078C76.8731 130.645 77.5739 130.962 78.8027 130.962ZM78.8027 128.418C80.6171 128.418 81.7307 129.032 81.7307 130.078C81.7307 131.125 80.6171 131.739 78.8027 131.739C76.9979 131.739 75.8843 131.125 75.8843 130.078C75.8843 129.032 76.9979 128.418 78.8027 128.418ZM84.082 126.632L83.7268 125.854C85.33 125.691 86.4436 125.019 86.578 124.242H84.0628V123.445H90.466V124.242H87.9316C88.066 125.019 89.1796 125.691 90.7828 125.854L90.4372 126.632C88.9108 126.469 87.7204 125.845 87.2596 124.952C86.7892 125.845 85.5988 126.469 84.082 126.632ZM89.2276 130.203C89.2276 129.685 88.5076 129.416 87.2404 129.416C85.9732 129.416 85.2628 129.685 85.2628 130.203C85.2628 130.702 85.9732 130.981 87.2404 130.981C88.5076 130.981 89.2276 130.702 89.2276 130.203ZM91.1764 127.861H87.7492V128.667C89.314 128.763 90.226 129.301 90.226 130.203C90.226 131.182 89.1124 131.739 87.2404 131.739C85.378 131.739 84.2548 131.182 84.2548 130.203C84.2548 129.301 85.186 128.754 86.7604 128.658V127.861H83.3332V127.074H91.1764V127.861Z" fill="#7C15C9"/>
<path d="M155.054 131V130.088H156.599V125.173H155.332V124.472C155.994 124.347 156.465 124.184 156.868 123.925H157.703V130.088H159.086V131H155.054ZM162.439 131.125C161.057 131.125 160.154 129.896 160.154 127.438C160.154 124.99 161.057 123.8 162.439 123.8C163.821 123.8 164.724 125 164.724 127.438C164.724 129.896 163.821 131.125 162.439 131.125ZM162.439 130.251C163.159 130.251 163.668 129.483 163.668 127.438C163.668 125.413 163.159 124.674 162.439 124.674C161.719 124.674 161.21 125.413 161.21 127.438C161.21 129.483 161.719 130.251 162.439 130.251ZM167.914 131.125C166.532 131.125 165.629 129.896 165.629 127.438C165.629 124.99 166.532 123.8 167.914 123.8C169.296 123.8 170.199 125 170.199 127.438C170.199 129.896 169.296 131.125 167.914 131.125ZM167.914 130.251C168.634 130.251 169.143 129.483 169.143 127.438C169.143 125.413 168.634 124.674 167.914 124.674C167.194 124.674 166.685 125.413 166.685 127.438C166.685 129.483 167.194 130.251 167.914 130.251ZM171.411 132.92L171.162 132.296C171.824 132.027 172.208 131.538 172.208 130.981C172.17 130.99 172.141 130.99 172.103 130.99C171.709 130.99 171.363 130.741 171.363 130.28C171.363 129.848 171.709 129.57 172.131 129.57C172.669 129.57 172.986 130.021 172.986 130.76C172.986 131.768 172.4 132.546 171.411 132.92ZM176.248 131.125C174.866 131.125 173.964 129.896 173.964 127.438C173.964 124.99 174.866 123.8 176.248 123.8C177.631 123.8 178.533 125 178.533 127.438C178.533 129.896 177.631 131.125 176.248 131.125ZM176.248 130.251C176.968 130.251 177.477 129.483 177.477 127.438C177.477 125.413 176.968 124.674 176.248 124.674C175.528 124.674 175.02 125.413 175.02 127.438C175.02 129.483 175.528 130.251 176.248 130.251ZM181.723 131.125C180.341 131.125 179.439 129.896 179.439 127.438C179.439 124.99 180.341 123.8 181.723 123.8C183.106 123.8 184.008 125 184.008 127.438C184.008 129.896 183.106 131.125 181.723 131.125ZM181.723 130.251C182.443 130.251 182.952 129.483 182.952 127.438C182.952 125.413 182.443 124.674 181.723 124.674C181.003 124.674 180.495 125.413 180.495 127.438C180.495 129.483 181.003 130.251 181.723 130.251ZM187.198 131.125C185.816 131.125 184.914 129.896 184.914 127.438C184.914 124.99 185.816 123.8 187.198 123.8C188.581 123.8 189.483 125 189.483 127.438C189.483 129.896 188.581 131.125 187.198 131.125ZM187.198 130.251C187.918 130.251 188.427 129.483 188.427 127.438C188.427 125.413 187.918 124.674 187.198 124.674C186.478 124.674 185.97 125.413 185.97 127.438C185.97 129.483 186.478 130.251 187.198 130.251ZM195.39 126.766L195.486 127.563C194.363 127.803 193.345 127.861 191.483 127.861H190.782V123.781H194.641V124.587H191.771V127.045C193.413 127.035 194.344 126.987 195.39 126.766ZM192.702 128.706V130.77H197.541V131.576H191.704V128.706H192.702ZM197.195 125.547H198.424V126.363H197.195V129.339H196.206V123.061H197.195V125.547ZM201.591 128.936C202.34 128.936 202.849 128.13 202.849 126.757C202.849 125.413 202.34 124.597 201.591 124.597C200.852 124.597 200.343 125.413 200.343 126.757C200.343 128.13 200.852 128.936 201.591 128.936ZM205.46 123.061H206.458V131.758H205.46V127.102H203.78C203.665 128.782 202.782 129.819 201.591 129.819C200.314 129.819 199.402 128.638 199.402 126.757C199.402 124.894 200.314 123.704 201.591 123.704C202.753 123.704 203.636 124.702 203.77 126.296H205.46V123.061Z" fill="#999999"/>
<rect x="32.8" y="112" width="174.4" height="3.2" rx="1.6" fill="#F6EBFF"/>
<rect x="32.8" y="112" width="65.6" height="3.2" rx="1.6" fill="#7C15C9"/>
<path d="M197.334 97.2056V95.1816H195.724V94.4512H197.334V93.1224H198.241V97.2056H197.334ZM196.349 96.3696L195.873 97.0736C195.011 96.7832 194.377 96.1936 194.043 95.4544C193.691 96.2816 193.031 96.924 192.098 97.2496L191.632 96.5368C192.873 96.132 193.568 95.1376 193.568 94.0464V93.3776H194.474V94.0464C194.474 95.0496 195.161 95.9824 196.349 96.3696ZM193.981 100.268H198.513V100.981H193.084V98.9216H197.343V98.288H193.066V97.584H198.241V99.5904H193.981V100.268ZM204.022 95.1288H205.43V93.1312H206.336V97.8656H205.43V95.868H204.022V95.1288ZM204.479 96.8976L204.03 97.6104C203.15 97.3024 202.517 96.6776 202.182 95.912C201.83 96.7832 201.162 97.4872 200.22 97.8216L199.754 97.1C200.986 96.66 201.698 95.604 201.698 94.5128V94.3984H200.018V93.668H204.268V94.3984H202.614V94.504C202.614 95.4984 203.291 96.484 204.479 96.8976ZM203.696 100.382C204.814 100.382 205.465 100.101 205.465 99.5816C205.465 99.0624 204.814 98.7808 203.696 98.7808C202.561 98.7808 201.918 99.0624 201.918 99.5816C201.918 100.101 202.561 100.382 203.696 100.382ZM203.696 98.0768C205.35 98.0768 206.371 98.64 206.371 99.5816C206.371 100.532 205.35 101.086 203.696 101.086C202.033 101.086 201.012 100.532 201.012 99.5816C201.012 98.64 202.033 98.0768 203.696 98.0768Z" fill="#777777"/>
<path d="M37.9896 96.4632L37.5008 97.264C36.6272 96.9416 36.0344 96.328 35.6912 95.5688C35.3688 96.3904 34.7656 97.0768 33.8608 97.4304L33.3512 96.6296C34.516 96.172 35.1296 95.1632 35.1608 94.1336H33.58V93.2808H35.1608V92.272H36.1904V93.2808H37.7296V94.1336H36.1904C36.2216 95.1008 36.8456 96.0472 37.9896 96.4632ZM40.2256 100.623V99.6352H36.0864V100.623H40.2256ZM40.2256 98.7928V97.8464H41.276V101.486H35.0256V97.8464H36.0864V98.7928H40.2256ZM40.2568 92.2096H41.276V97.4616H40.2568V95.2256H39.2896V97.3992H38.2808V92.376H39.2896V94.352H40.2568V92.2096ZM44.3848 96.5152V98.5432C45.8824 98.5328 46.9536 98.4808 48.1808 98.2728L48.2744 99.136C46.9328 99.3752 45.7576 99.4168 44.052 99.4168H43.3136V93.0208H47.6712V93.9048H44.3848V95.6624H47.2864V96.5152H44.3848ZM49.616 92.1888H50.6976V101.611H49.616V96.5256H47.8168V95.6416H49.616V92.1888ZM60.1776 96.2136L60.2816 97.0768C59.0648 97.3368 57.9624 97.3992 55.9448 97.3992H55.1856V92.9792H59.3664V93.8528H56.2568V96.5152C58.0352 96.5048 59.044 96.4528 60.1776 96.2136ZM57.2656 98.3144V100.55H62.5072V101.424H56.184V98.3144H57.2656ZM62.1328 94.8928H63.464V95.7768H62.1328V99.0008H61.0616V92.1992H62.1328V94.8928ZM66.8952 98.564C67.7064 98.564 68.2576 97.6904 68.2576 96.2032C68.2576 94.7472 67.7064 93.8632 66.8952 93.8632C66.0944 93.8632 65.5432 94.7472 65.5432 96.2032C65.5432 97.6904 66.0944 98.564 66.8952 98.564ZM71.0864 92.1992H72.168V101.622H71.0864V96.5776H69.2664C69.1416 98.3976 68.1848 99.5208 66.8952 99.5208C65.512 99.5208 64.524 98.2416 64.524 96.2032C64.524 94.1856 65.512 92.896 66.8952 92.896C68.1536 92.896 69.1104 93.9776 69.256 95.704H71.0864V92.1992ZM82.0575 95.6728L81.6415 96.536C80.0815 96.2864 78.8023 95.496 78.1887 94.4144C77.5855 95.5064 76.2855 96.2864 74.7255 96.536L74.3095 95.6728C76.2231 95.4024 77.6167 94.248 77.6167 93.0104V92.5112H78.7503V93.0104C78.7503 94.2272 80.1647 95.4024 82.0575 95.6728ZM82.4215 97.42V98.2936H78.6879V101.611H77.6167V98.2936H73.9351V97.42H82.4215Z" fill="#222222"/>
<rect x="20" y="75.2" width="200" height="0.8" fill="#CCCCCC"/>
<rect x="20" y="75.2" width="200" height="0.8" fill="#CCCCCC"/>
<path d="M33.2224 59.8V59.1568C35.3056 57.3136 36.3808 55.9408 36.3808 54.7792C36.3808 54.0112 35.9776 53.4832 35.1808 53.4832C34.624 53.4832 34.1632 53.8384 33.7888 54.2704L33.1648 53.656C33.7696 52.9936 34.3936 52.6 35.3152 52.6C36.6112 52.6 37.4464 53.4448 37.4464 54.7216C37.4464 56.0848 36.3616 57.496 34.864 58.9264C35.2288 58.888 35.6704 58.8592 36.016 58.8592H37.7824V59.8H33.2224ZM39.1006 59.8V58.888H40.6462V53.9728H39.379V53.272C40.0414 53.1472 40.5118 52.984 40.915 52.7248H41.7502V58.888H43.1326V59.8H39.1006ZM46.6204 56.1904C46.2172 56.1904 45.7276 56.4112 45.3052 57.016C45.4204 58.4176 45.9292 59.08 46.6876 59.08C47.302 59.08 47.7917 58.5232 47.7917 57.6016C47.7917 56.6992 47.3788 56.1904 46.6204 56.1904ZM46.6972 59.9248C45.3532 59.9248 44.2588 58.8016 44.2588 56.4016C44.2588 53.6848 45.5356 52.6 46.9277 52.6C47.7148 52.6 48.2908 52.936 48.6941 53.3584L48.0892 54.0304C47.83 53.7232 47.398 53.5024 46.9852 53.5024C46.0828 53.5024 45.334 54.184 45.286 56.2C45.6988 55.6912 46.3132 55.384 46.822 55.384C48.0125 55.384 48.8092 56.1136 48.8092 57.6016C48.8092 59.0032 47.8492 59.9248 46.6972 59.9248ZM49.9835 61.72L49.7339 61.096C50.3963 60.8272 50.7803 60.3376 50.7803 59.7808C50.7419 59.7904 50.7131 59.7904 50.6747 59.7904C50.2811 59.7904 49.9355 59.5408 49.9355 59.08C49.9355 58.648 50.2811 58.3696 50.7035 58.3696C51.2411 58.3696 51.5579 58.8208 51.5579 59.56C51.5579 60.568 50.9723 61.3456 49.9835 61.72ZM54.8204 59.9248C53.438 59.9248 52.5356 58.696 52.5356 56.2384C52.5356 53.7904 53.438 52.6 54.8204 52.6C56.2028 52.6 57.1052 53.8 57.1052 56.2384C57.1052 58.696 56.2028 59.9248 54.8204 59.9248ZM54.8204 59.0512C55.5404 59.0512 56.0492 58.2832 56.0492 56.2384C56.0492 54.2128 55.5404 53.4736 54.8204 53.4736C54.1004 53.4736 53.5916 54.2128 53.5916 56.2384C53.5916 58.2832 54.1004 59.0512 54.8204 59.0512ZM60.2954 59.9248C58.913 59.9248 58.0106 58.696 58.0106 56.2384C58.0106 53.7904 58.913 52.6 60.2954 52.6C61.6778 52.6 62.5802 53.8 62.5802 56.2384C62.5802 58.696 61.6778 59.9248 60.2954 59.9248ZM60.2954 59.0512C61.0154 59.0512 61.5242 58.2832 61.5242 56.2384C61.5242 54.2128 61.0154 53.4736 60.2954 53.4736C59.5754 53.4736 59.0666 54.2128 59.0666 56.2384C59.0666 58.2832 59.5754 59.0512 60.2954 59.0512ZM65.7704 59.9248C64.388 59.9248 63.4856 58.696 63.4856 56.2384C63.4856 53.7904 64.388 52.6 65.7704 52.6C67.1528 52.6 68.0552 53.8 68.0552 56.2384C68.0552 58.696 67.1528 59.9248 65.7704 59.9248ZM65.7704 59.0512C66.4904 59.0512 66.9992 58.2832 66.9992 56.2384C66.9992 54.2128 66.4904 53.4736 65.7704 53.4736C65.0504 53.4736 64.5416 54.2128 64.5416 56.2384C64.5416 58.2832 65.0504 59.0512 65.7704 59.0512ZM76.2529 55.9888L75.7441 56.7472C74.7745 56.4304 74.0833 55.768 73.7089 54.9424C73.3249 55.8544 72.6049 56.5648 71.5873 56.92L71.0689 56.1424C72.4417 55.6816 73.2001 54.5776 73.2001 53.3872V53.2336H71.3569V52.4272H76.0129V53.2336H74.1985V53.3872C74.1985 54.4816 74.9281 55.5472 76.2529 55.9888ZM72.2209 58.312V57.5152H77.9233V60.5392H76.9345V58.312H72.2209ZM79.1521 54.0784V54.8944H77.9233V57.0928H76.9345V51.8608H77.9233V54.0784H79.1521ZM86.1785 56.9776V54.4048H84.4217V53.5984H86.1785V51.8608H87.1673V56.9776H86.1785ZM85.1321 55.8544L84.6041 56.632C83.6729 56.296 83.0009 55.6432 82.6265 54.7984C82.2425 55.7584 81.5129 56.5168 80.4665 56.8912L79.9481 56.0944C81.3401 55.624 82.0985 54.4528 82.0985 53.1856V52.3312H83.0969V53.1376C83.0969 54.3376 83.8169 55.4224 85.1321 55.8544ZM84.2777 59.7616C85.5065 59.7616 86.2169 59.4448 86.2169 58.8784C86.2169 58.312 85.5065 57.9952 84.2777 57.9952C83.0489 57.9952 82.3481 58.312 82.3481 58.8784C82.3481 59.4448 83.0489 59.7616 84.2777 59.7616ZM84.2777 57.2176C86.0921 57.2176 87.2057 57.832 87.2057 58.8784C87.2057 59.9248 86.0921 60.5392 84.2777 60.5392C82.4729 60.5392 81.3593 59.9248 81.3593 58.8784C81.3593 57.832 82.4729 57.2176 84.2777 57.2176ZM89.557 55.432L89.2018 54.6544C90.805 54.4912 91.9186 53.8192 92.053 53.0416H89.5378V52.2448H95.941V53.0416H93.4066C93.541 53.8192 94.6546 54.4912 96.2578 54.6544L95.9122 55.432C94.3858 55.2688 93.1954 54.6448 92.7346 53.752C92.2642 54.6448 91.0738 55.2688 89.557 55.432ZM94.7026 59.0032C94.7026 58.4848 93.9826 58.216 92.7154 58.216C91.4482 58.216 90.7378 58.4848 90.7378 59.0032C90.7378 59.5024 91.4482 59.7808 92.7154 59.7808C93.9826 59.7808 94.7026 59.5024 94.7026 59.0032ZM96.6514 56.6608H93.2242V57.4672C94.789 57.5632 95.701 58.1008 95.701 59.0032C95.701 59.9824 94.5874 60.5392 92.7154 60.5392C90.853 60.5392 89.7298 59.9824 89.7298 59.0032C89.7298 58.1008 90.661 57.5536 92.2354 57.4576V56.6608H88.8082V55.8736H96.6514V56.6608Z" fill="#7C15C9"/>
<path d="M156.801 59.9248C155.687 59.9248 154.967 59.4832 154.497 58.9552L155.034 58.2448C155.447 58.6672 155.975 59.0224 156.705 59.0224C157.502 59.0224 158.049 58.5808 158.049 57.8416C158.049 57.064 157.55 56.5552 155.956 56.5552V55.7392C157.348 55.7392 157.809 55.2112 157.809 54.5008C157.809 53.8768 157.396 53.4928 156.724 53.4832C156.177 53.4928 155.716 53.752 155.313 54.1456L154.737 53.4544C155.294 52.9552 155.946 52.6 156.762 52.6C158.03 52.6 158.922 53.2624 158.922 54.424C158.922 55.24 158.452 55.8064 157.703 56.0848V56.1328C158.519 56.3344 159.162 56.9488 159.162 57.8992C159.162 59.176 158.097 59.9248 156.801 59.9248ZM162.439 59.9248C161.057 59.9248 160.154 58.696 160.154 56.2384C160.154 53.7904 161.057 52.6 162.439 52.6C163.821 52.6 164.724 53.8 164.724 56.2384C164.724 58.696 163.821 59.9248 162.439 59.9248ZM162.439 59.0512C163.159 59.0512 163.668 58.2832 163.668 56.2384C163.668 54.2128 163.159 53.4736 162.439 53.4736C161.719 53.4736 161.21 54.2128 161.21 56.2384C161.21 58.2832 161.719 59.0512 162.439 59.0512ZM167.914 59.9248C166.532 59.9248 165.629 58.696 165.629 56.2384C165.629 53.7904 166.532 52.6 167.914 52.6C169.296 52.6 170.199 53.8 170.199 56.2384C170.199 58.696 169.296 59.9248 167.914 59.9248ZM167.914 59.0512C168.634 59.0512 169.143 58.2832 169.143 56.2384C169.143 54.2128 168.634 53.4736 167.914 53.4736C167.194 53.4736 166.685 54.2128 166.685 56.2384C166.685 58.2832 167.194 59.0512 167.914 59.0512ZM171.411 61.72L171.162 61.096C171.824 60.8272 172.208 60.3376 172.208 59.7808C172.17 59.7904 172.141 59.7904 172.103 59.7904C171.709 59.7904 171.363 59.5408 171.363 59.08C171.363 58.648 171.709 58.3696 172.131 58.3696C172.669 58.3696 172.986 58.8208 172.986 59.56C172.986 60.568 172.4 61.3456 171.411 61.72ZM176.248 59.9248C174.866 59.9248 173.964 58.696 173.964 56.2384C173.964 53.7904 174.866 52.6 176.248 52.6C177.631 52.6 178.533 53.8 178.533 56.2384C178.533 58.696 177.631 59.9248 176.248 59.9248ZM176.248 59.0512C176.968 59.0512 177.477 58.2832 177.477 56.2384C177.477 54.2128 176.968 53.4736 176.248 53.4736C175.528 53.4736 175.02 54.2128 175.02 56.2384C175.02 58.2832 175.528 59.0512 176.248 59.0512ZM181.723 59.9248C180.341 59.9248 179.439 58.696 179.439 56.2384C179.439 53.7904 180.341 52.6 181.723 52.6C183.106 52.6 184.008 53.8 184.008 56.2384C184.008 58.696 183.106 59.9248 181.723 59.9248ZM181.723 59.0512C182.443 59.0512 182.952 58.2832 182.952 56.2384C182.952 54.2128 182.443 53.4736 181.723 53.4736C181.003 53.4736 180.495 54.2128 180.495 56.2384C180.495 58.2832 181.003 59.0512 181.723 59.0512ZM187.198 59.9248C185.816 59.9248 184.914 58.696 184.914 56.2384C184.914 53.7904 185.816 52.6 187.198 52.6C188.581 52.6 189.483 53.8 189.483 56.2384C189.483 58.696 188.581 59.9248 187.198 59.9248ZM187.198 59.0512C187.918 59.0512 188.427 58.2832 188.427 56.2384C188.427 54.2128 187.918 53.4736 187.198 53.4736C186.478 53.4736 185.97 54.2128 185.97 56.2384C185.97 58.2832 186.478 59.0512 187.198 59.0512ZM195.39 55.5664L195.486 56.3632C194.363 56.6032 193.345 56.6608 191.483 56.6608H190.782V52.5808H194.641V53.3872H191.771V55.8448C193.413 55.8352 194.344 55.7872 195.39 55.5664ZM192.702 57.5056V59.5696H197.541V60.376H191.704V57.5056H192.702ZM197.195 54.3472H198.424V55.1632H197.195V58.1392H196.206V51.8608H197.195V54.3472ZM201.591 57.736C202.34 57.736 202.849 56.9296 202.849 55.5568C202.849 54.2128 202.34 53.3968 201.591 53.3968C200.852 53.3968 200.343 54.2128 200.343 55.5568C200.343 56.9296 200.852 57.736 201.591 57.736ZM205.46 51.8608H206.458V60.5584H205.46V55.9024H203.78C203.665 57.5824 202.782 58.6192 201.591 58.6192C200.314 58.6192 199.402 57.4384 199.402 55.5568C199.402 53.6944 200.314 52.504 201.591 52.504C202.753 52.504 203.636 53.5024 203.77 55.096H205.46V51.8608Z" fill="#999999"/>
<rect x="32.8" y="40.8" width="174.4" height="3.2" rx="1.6" fill="#F6EBFF"/>
<rect x="32.8" y="40.8" width="136" height="3.2" rx="1.6" fill="#7C15C9"/>
<path d="M197.334 26.0056V23.9816H195.724V23.2512H197.334V21.9224H198.241V26.0056H197.334ZM196.349 25.1696L195.873 25.8736C195.011 25.5832 194.377 24.9936 194.043 24.2544C193.691 25.0816 193.031 25.724 192.098 26.0496L191.632 25.3368C192.873 24.932 193.568 23.9376 193.568 22.8464V22.1776H194.474V22.8464C194.474 23.8496 195.161 24.7824 196.349 25.1696ZM193.981 29.068H198.513V29.7808H193.084V27.7216H197.343V27.088H193.066V26.384H198.241V28.3904H193.981V29.068ZM204.022 23.9288H205.43V21.9312H206.336V26.6656H205.43V24.668H204.022V23.9288ZM204.479 25.6976L204.03 26.4104C203.15 26.1024 202.517 25.4776 202.182 24.712C201.83 25.5832 201.162 26.2872 200.22 26.6216L199.754 25.9C200.986 25.46 201.698 24.404 201.698 23.3128V23.1984H200.018V22.468H204.268V23.1984H202.614V23.304C202.614 24.2984 203.291 25.284 204.479 25.6976ZM203.696 29.1824C204.814 29.1824 205.465 28.9008 205.465 28.3816C205.465 27.8624 204.814 27.5808 203.696 27.5808C202.561 27.5808 201.918 27.8624 201.918 28.3816C201.918 28.9008 202.561 29.1824 203.696 29.1824ZM203.696 26.8768C205.35 26.8768 206.371 27.44 206.371 28.3816C206.371 29.332 205.35 29.8864 203.696 29.8864C202.033 29.8864 201.012 29.332 201.012 28.3816C201.012 27.44 202.033 26.8768 203.696 26.8768Z" fill="#777777"/>
<path d="M38.3328 23.5264H40.0384V21.02H41.1096V27.884H40.0384V24.4104H38.3328V23.5264ZM38.9152 25.7208L38.3848 26.5528C37.3448 26.1992 36.5856 25.4608 36.1904 24.5352C35.7744 25.5544 34.984 26.376 33.8712 26.7608L33.32 25.9184C34.776 25.4088 35.6288 24.1712 35.6288 22.9024V22.58H33.6424V21.7168H38.6656V22.58H36.7104V22.9024C36.7104 24.0568 37.5112 25.232 38.9152 25.7208ZM36.0968 29.3504H41.3488V30.224H35.0256V27.2912H36.0968V29.3504ZM45.716 23.5472V23.88C45.716 25.3464 46.3504 26.844 47.64 27.5408L47.0472 28.3416C46.1632 27.8632 45.56 27 45.2168 25.9808C44.884 27.0832 44.2912 28.0296 43.3968 28.5496L42.7832 27.7384C44.0728 26.9792 44.6968 25.3776 44.6968 23.88V23.5472H43.0744V22.6632H44.6968V21.332H45.716V22.6632H47.328V23.5472H45.716ZM47.9936 24.6496V21.1968H49.0024V29.9432H47.9936V25.5232H46.7248V24.6496H47.9936ZM49.8864 21.0096H50.9056V30.4008H49.8864V21.0096ZM60.1776 25.0136L60.2816 25.8768C59.0648 26.1368 57.9624 26.1992 55.9448 26.1992H55.1856V21.7792H59.3664V22.6528H56.2568V25.3152C58.0352 25.3048 59.044 25.2528 60.1776 25.0136ZM57.2656 27.1144V29.3504H62.5072V30.224H56.184V27.1144H57.2656ZM62.1328 23.6928H63.464V24.5768H62.1328V27.8008H61.0616V20.9992H62.1328V23.6928ZM66.8952 27.364C67.7064 27.364 68.2576 26.4904 68.2576 25.0032C68.2576 23.5472 67.7064 22.6632 66.8952 22.6632C66.0944 22.6632 65.5432 23.5472 65.5432 25.0032C65.5432 26.4904 66.0944 27.364 66.8952 27.364ZM71.0864 20.9992H72.168V30.4216H71.0864V25.3776H69.2664C69.1416 27.1976 68.1848 28.3208 66.8952 28.3208C65.512 28.3208 64.524 27.0416 64.524 25.0032C64.524 22.9856 65.512 21.696 66.8952 21.696C68.1536 21.696 69.1104 22.7776 69.256 24.504H71.0864V20.9992ZM82.0575 24.4728L81.6415 25.336C80.0815 25.0864 78.8023 24.296 78.1887 23.2144C77.5855 24.3064 76.2855 25.0864 74.7255 25.336L74.3095 24.4728C76.2231 24.2024 77.6167 23.048 77.6167 21.8104V21.3112H78.7503V21.8104C78.7503 23.0272 80.1647 24.2024 82.0575 24.4728ZM82.4215 26.22V27.0936H78.6879V30.4112H77.6167V27.0936H73.9351V26.22H82.4215Z" fill="#222222"/>
</g>
</g>
<defs>
<filter id="filter0_d_10030_88" x="0" y="0" width="240" height="418" filterUnits="userSpaceOnUse" color-interpolation-filters="sRGB">
<feFlood flood-opacity="0" result="BackgroundImageFix"/>
<feColorMatrix in="SourceAlpha" type="matrix" values="0 0 0 0 0 0 0 0 0 0 0 0 0 0 0 0 0 0 127 0" result="hardAlpha"/>
<feOffset dy="15"/>
<feGaussianBlur stdDeviation="10"/>
<feComposite in2="hardAlpha" operator="out"/>
<feColorMatrix type="matrix" values="0 0 0 0 0 0 0 0 0 0 0 0 0 0 0 0 0 0 0.12 0"/>
<feBlend mode="normal" in2="BackgroundImageFix" result="effect1_dropShadow_10030_88"/>
<feBlend mode="normal" in="SourceGraphic" in2="effect1_dropShadow_10030_88" result="shape"/>
</filter>
<clipPath id="clip0_10030_88">
<rect x="20" y="5" width="200" height="378" rx="15" fill="white"/>
</clipPath>
</defs>
</svg>
