<svg width="1180" height="220" viewBox="0 0 1180 220" fill="none" xmlns="http://www.w3.org/2000/svg">
<g clip-path="url(#clip0_10029_128)">
<path d="M355.37 186.61L348.84 193.14H355.37V186.61Z" fill="#F2E8FA"/>
<path d="M367.16 186.61L360.63 193.14H367.16V186.61Z" fill="#F2E8FA"/>
<path d="M378.95 186.61L372.43 193.14H378.95V186.61Z" fill="#F2E8FA"/>
<path d="M390.74 186.61L384.22 193.14H390.74V186.61Z" fill="#F2E8FA"/>
<path d="M343.4 197.93L336.87 204.46H343.4V197.93Z" fill="#F2E8FA"/>
<path d="M355.19 197.93L348.67 204.46H355.19V197.93Z" fill="#F2E8FA"/>
<path d="M366.98 197.93L360.46 204.46H366.98V197.93Z" fill="#F2E8FA"/>
<path d="M378.78 197.93L372.25 204.46H378.78V197.93Z" fill="#F2E8FA"/>
<path d="M390.57 197.93L384.04 204.46H390.57V197.93Z" fill="#F2E8FA"/>
<path d="M331.43 209.26L324.91 215.78H331.43V209.26Z" fill="#F2E8FA"/>
<path d="M343.23 209.26L336.7 215.78H343.23V209.26Z" fill="#F2E8FA"/>
<path d="M355.02 209.26L348.49 215.78H355.02V209.26Z" fill="#F2E8FA"/>
<path d="M366.81 209.26L360.28 215.78H366.81V209.26Z" fill="#F2E8FA"/>
<path d="M378.6 209.26L372.07 215.78H378.6V209.26Z" fill="#F2E8FA"/>
<path d="M390.39 209.26L383.86 215.78H390.39V209.26Z" fill="#F2E8FA"/>
<path d="M319.47 220.58L312.94 227.11H319.47V220.58Z" fill="#F2E8FA"/>
<path d="M331.26 220.58L324.73 227.11H331.26V220.58Z" fill="#F2E8FA"/>
<path d="M343.05 220.58L336.52 227.11H343.05V220.58Z" fill="#F2E8FA"/>
<path d="M354.84 220.58L348.31 227.11H354.84V220.58Z" fill="#F2E8FA"/>
<path d="M366.63 220.58L360.1 227.11H366.63V220.58Z" fill="#F2E8FA"/>
<path d="M378.42 220.58L371.89 227.11H378.42V220.58Z" fill="#F2E8FA"/>
<path d="M390.21 220.58L383.68 227.11H390.21V220.58Z" fill="#F2E8FA"/>
<path d="M307.5 231.9L300.97 238.43H307.5V231.9Z" fill="#F2E8FA"/>
<path d="M319.29 231.9L312.76 238.43H319.29V231.9Z" fill="#F2E8FA"/>
<path d="M331.08 231.9L324.55 238.43H331.08V231.9Z" fill="#F2E8FA"/>
<path d="M342.87 231.9L336.34 238.43H342.87V231.9Z" fill="#F2E8FA"/>
<path d="M354.66 231.9L348.13 238.43H354.66V231.9Z" fill="#F2E8FA"/>
<path d="M366.45 231.9L359.92 238.43H366.45V231.9Z" fill="#F2E8FA"/>
<path d="M378.24 231.9L371.71 238.43H378.24V231.9Z" fill="#F2E8FA"/>
<path d="M295.53 243.23L289 249.75H295.53V243.23Z" fill="#F2E8FA"/>
<path d="M307.32 243.23L300.79 249.75H307.32V243.23Z" fill="#F2E8FA"/>
<path d="M319.11 243.23L312.58 249.75H319.11V243.23Z" fill="#F2E8FA"/>
<path d="M330.9 243.23L324.37 249.75H330.9V243.23Z" fill="#F2E8FA"/>
<path d="M342.69 243.23L336.16 249.75H342.69V243.23Z" fill="#F2E8FA"/>
<path d="M354.48 243.23L347.95 249.75H354.48V243.23Z" fill="#F2E8FA"/>
<path d="M366.27 243.23L359.74 249.75H366.27V243.23Z" fill="#F2E8FA"/>
<path d="M391.28 152.64L384.75 159.17H391.28V152.64Z" fill="#F2E8FA"/>
<path d="M379.31 163.96L372.78 170.49H379.31V163.96Z" fill="#F2E8FA"/>
<path d="M391.1 163.96L384.57 170.49H391.1V163.96Z" fill="#F2E8FA"/>
<path d="M367.34 175.29L360.81 181.82H367.34V175.29Z" fill="#F2E8FA"/>
<path d="M379.13 175.29L372.6 181.82H379.13V175.29Z" fill="#F2E8FA"/>
<path d="M390.92 175.29L384.39 181.82H390.92V175.29Z" fill="#F2E8FA"/>
<path d="M402.41 186.61L395.88 193.14H402.41V186.61Z" fill="#F2E8FA"/>
<path d="M414.2 186.61L407.67 193.14H414.2V186.61Z" fill="#F2E8FA"/>
<path d="M425.99 186.61L419.46 193.14H425.99V186.61Z" fill="#F2E8FA"/>
<path d="M402.23 197.93L395.7 204.46H402.23V197.93Z" fill="#F2E8FA"/>
<path d="M414.02 197.93L407.49 204.46H414.02V197.93Z" fill="#F2E8FA"/>
<path d="M402.05 209.26L395.52 215.78H402.05V209.26Z" fill="#F2E8FA"/>
<path d="M415.09 130L408.56 136.52H415.09V130Z" fill="#F2E8FA"/>
<path d="M426.88 130L420.35 136.52H426.88V130Z" fill="#F2E8FA"/>
<path d="M438.67 130L432.14 136.52H438.67V130Z" fill="#F2E8FA"/>
<path d="M450.46 130L443.93 136.52H450.46V130Z" fill="#F2E8FA"/>
<path d="M462.25 130L455.73 136.52H462.25V130Z" fill="#F2E8FA"/>
<path d="M474.04 130L467.52 136.52H474.04V130Z" fill="#F2E8FA"/>
<path d="M485.83 130L479.31 136.52H485.83V130Z" fill="#F2E8FA"/>
<path d="M403.12 141.32L396.59 147.85H403.12V141.32Z" fill="#F2E8FA"/>
<path d="M414.91 141.32L408.38 147.85H414.91V141.32Z" fill="#F2E8FA"/>
<path d="M426.7 141.32L420.17 147.85H426.7V141.32Z" fill="#F2E8FA"/>
<path d="M438.49 141.32L431.97 147.85H438.49V141.32Z" fill="#F2E8FA"/>
<path d="M450.28 141.32L443.76 147.85H450.28V141.32Z" fill="#F2E8FA"/>
<path d="M462.08 141.32L455.55 147.85H462.08V141.32Z" fill="#F2E8FA"/>
<path d="M473.87 141.32L467.34 147.85H473.87V141.32Z" fill="#F2E8FA"/>
<path d="M402.94 152.64L396.41 159.17H402.94V152.64Z" fill="#F2E8FA"/>
<path d="M414.73 152.64L408.21 159.17H414.73V152.64Z" fill="#F2E8FA"/>
<path d="M426.52 152.64L420 159.17H426.52V152.64Z" fill="#F2E8FA"/>
<path d="M438.32 152.64L431.79 159.17H438.32V152.64Z" fill="#F2E8FA"/>
<path d="M450.11 152.64L443.58 159.17H450.11V152.64Z" fill="#F2E8FA"/>
<path d="M461.9 152.64L455.37 159.17H461.9V152.64Z" fill="#F2E8FA"/>
<path d="M402.76 163.96L396.24 170.49H402.76V163.96Z" fill="#F2E8FA"/>
<path d="M414.56 163.96L408.03 170.49H414.56V163.96Z" fill="#F2E8FA"/>
<path d="M426.35 163.96L419.82 170.49H426.35V163.96Z" fill="#F2E8FA"/>
<path d="M438.14 163.96L431.61 170.49H438.14V163.96Z" fill="#F2E8FA"/>
<path d="M449.93 163.96L443.4 170.49H449.93V163.96Z" fill="#F2E8FA"/>
<path d="M402.59 175.29L396.06 181.82H402.59V175.29Z" fill="#F2E8FA"/>
<path d="M414.38 175.29L407.85 181.82H414.38V175.29Z" fill="#F2E8FA"/>
<path d="M426.17 175.29L419.64 181.82H426.17V175.29Z" fill="#F2E8FA"/>
<path d="M437.96 175.29L431.43 181.82H437.96V175.29Z" fill="#F2E8FA"/>
<path d="M-54.9325 52.9475C-54.0025 53.8775 -54.0025 55.3875 -54.9325 56.3175C-55.8625 57.2475 -57.3725 57.2475 -58.3025 56.3175C-59.2325 55.3875 -59.2325 53.8775 -58.3025 52.9475C-57.3725 52.0175 -55.8625 52.0175 -54.9325 52.9475Z" fill="#F2E8FA"/>
<path d="M-41.4025 39.4275C-40.4725 40.3575 -40.4725 41.8675 -41.4025 42.7975C-42.3325 43.7275 -43.8425 43.7275 -44.7725 42.7975C-45.7025 41.8675 -45.7025 40.3575 -44.7725 39.4275C-43.8425 38.4975 -42.3325 38.4975 -41.4025 39.4275Z" fill="#F2E8FA"/>
<path d="M-27.8725 25.8975C-26.9425 26.8275 -26.9425 28.3375 -27.8725 29.2675C-28.8025 30.1975 -30.3125 30.1975 -31.2425 29.2675C-32.1725 28.3375 -32.1725 26.8275 -31.2425 25.8975C-30.3125 24.9675 -28.8025 24.9675 -27.8725 25.8975Z" fill="#F2E8FA"/>
<path d="M-14.3525 12.3775C-13.4225 13.3075 -13.4225 14.8175 -14.3525 15.7475C-15.2825 16.6775 -16.7925 16.6775 -17.7225 15.7475C-18.6525 14.8175 -18.6525 13.3075 -17.7225 12.3775C-16.7925 11.4475 -15.2825 11.4475 -14.3525 12.3775Z" fill="#F2E8FA"/>
<path d="M-0.822498 -1.1525C0.107502 -0.222504 0.107502 1.2875 -0.822498 2.2175C-1.7525 3.1475 -3.2625 3.1475 -4.1925 2.2175C-5.1225 1.2875 -5.1225 -0.222504 -4.1925 -1.1525C-3.2625 -2.0825 -1.7525 -2.0825 -0.822498 -1.1525Z" fill="#F2E8FA"/>
<path d="M12.6975 -14.6725C13.6275 -13.7425 13.6275 -12.2325 12.6975 -11.3025C11.7675 -10.3725 10.2575 -10.3725 9.32749 -11.3025C8.39749 -12.2325 8.39749 -13.7425 9.32749 -14.6725C10.2575 -15.6025 11.7675 -15.6025 12.6975 -14.6725Z" fill="#F2E8FA"/>
<path d="M26.2275 -28.2025C27.1575 -27.2725 27.1575 -25.7625 26.2275 -24.8325C25.2975 -23.9025 23.7875 -23.9025 22.8575 -24.8325C21.9275 -25.7625 21.9275 -27.2725 22.8575 -28.2025C23.7875 -29.1325 25.2975 -29.1325 26.2275 -28.2025Z" fill="#F2E8FA"/>
<path d="M39.7475 -41.7325C40.6775 -40.8025 40.6775 -39.2925 39.7475 -38.3625C38.8175 -37.4325 37.3075 -37.4325 36.3775 -38.3625C35.4475 -39.2925 35.4475 -40.8025 36.3775 -41.7325C37.3075 -42.6625 38.8175 -42.6625 39.7475 -41.7325Z" fill="#F2E8FA"/>
<path d="M53.2775 -55.2525C54.2075 -54.3225 54.2075 -52.8125 53.2775 -51.8825C52.3475 -50.9525 50.8375 -50.9525 49.9075 -51.8825C48.9775 -52.8125 48.9775 -54.3225 49.9075 -55.2525C50.8375 -56.1825 52.3475 -56.1825 53.2775 -55.2525Z" fill="#F2E8FA"/>
<path d="M66.8075 -68.7825C67.7375 -67.8525 67.7375 -66.3425 66.8075 -65.4125C65.8775 -64.4825 64.3675 -64.4825 63.4375 -65.4125C62.5075 -66.3425 62.5075 -67.8525 63.4375 -68.7825C64.3675 -69.7125 65.8775 -69.7125 66.8075 -68.7825Z" fill="#F2E8FA"/>
<path d="M80.3275 -82.3025C81.2575 -81.3725 81.2575 -79.8625 80.3275 -78.9325C79.3975 -78.0025 77.8875 -78.0025 76.9575 -78.9325C76.0275 -79.8625 76.0275 -81.3725 76.9575 -82.3025C77.8875 -83.2325 79.3975 -83.2325 80.3275 -82.3025Z" fill="#F2E8FA"/>
<path d="M-43.1025 64.7775C-42.1725 65.7075 -42.1725 67.2175 -43.1025 68.1475C-44.0325 69.0775 -45.5425 69.0775 -46.4725 68.1475C-47.4025 67.2175 -47.4025 65.7075 -46.4725 64.7775C-45.5425 63.8475 -44.0325 63.8475 -43.1025 64.7775Z" fill="#F2E8FA"/>
<path d="M-29.5725 51.2575C-28.6425 52.1875 -28.6425 53.6975 -29.5725 54.6275C-30.5025 55.5575 -32.0125 55.5575 -32.9425 54.6275C-33.8725 53.6975 -33.8725 52.1875 -32.9425 51.2575C-32.0125 50.3275 -30.5025 50.3275 -29.5725 51.2575Z" fill="#F2E8FA"/>
<path d="M-16.0525 37.7275C-15.1225 38.6575 -15.1225 40.1675 -16.0525 41.0975C-16.9825 42.0275 -18.4925 42.0275 -19.4225 41.0975C-20.3525 40.1675 -20.3525 38.6575 -19.4225 37.7275C-18.4925 36.7975 -16.9825 36.7975 -16.0525 37.7275Z" fill="#F2E8FA"/>
<path d="M-2.5225 24.2075C-1.5925 25.1375 -1.5925 26.6475 -2.5225 27.5775C-3.4525 28.5075 -4.9625 28.5075 -5.8925 27.5775C-6.8225 26.6475 -6.8225 25.1375 -5.8925 24.2075C-4.9625 23.2775 -3.4525 23.2775 -2.5225 24.2075Z" fill="#F2E8FA"/>
<path d="M11.0075 10.6775C11.9375 11.6075 11.9375 13.1175 11.0075 14.0475C10.0775 14.9775 8.5675 14.9775 7.6375 14.0475C6.7075 13.1175 6.7075 11.6075 7.6375 10.6775C8.5675 9.7475 10.0775 9.7475 11.0075 10.6775Z" fill="#F2E8FA"/>
<path d="M24.5275 -2.8525C25.4575 -1.9225 25.4575 -0.412498 24.5275 0.517502C23.5975 1.4475 22.0875 1.4475 21.1575 0.517502C20.2275 -0.412498 20.2275 -1.9225 21.1575 -2.8525C22.0875 -3.7825 23.5975 -3.7825 24.5275 -2.8525Z" fill="#F2E8FA"/>
<path d="M38.0575 -16.3725C38.9875 -15.4425 38.9875 -13.9325 38.0575 -13.0025C37.1275 -12.0725 35.6175 -12.0725 34.6875 -13.0025C33.7575 -13.9325 33.7575 -15.4425 34.6875 -16.3725C35.6175 -17.3025 37.1275 -17.3025 38.0575 -16.3725Z" fill="#F2E8FA"/>
<path d="M51.5775 -29.9025C52.5075 -28.9725 52.5075 -27.4625 51.5775 -26.5325C50.6475 -25.6025 49.1375 -25.6025 48.2075 -26.5325C47.2775 -27.4625 47.2775 -28.9725 48.2075 -29.9025C49.1375 -30.8325 50.6475 -30.8325 51.5775 -29.9025Z" fill="#F2E8FA"/>
<path d="M65.1075 -43.4225C66.0375 -42.4925 66.0375 -40.9825 65.1075 -40.0525C64.1775 -39.1225 62.6675 -39.1225 61.7375 -40.0525C60.8075 -40.9825 60.8075 -42.4925 61.7375 -43.4225C62.6675 -44.3525 64.1775 -44.3525 65.1075 -43.4225Z" fill="#F2E8FA"/>
<path d="M78.6275 -56.9525C79.5575 -56.0225 79.5575 -54.5125 78.6275 -53.5825C77.6975 -52.6525 76.1875 -52.6525 75.2575 -53.5825C74.3275 -54.5125 74.3275 -56.0225 75.2575 -56.9525C76.1875 -57.8825 77.6975 -57.8825 78.6275 -56.9525Z" fill="#F2E8FA"/>
<path d="M92.1575 -70.4725C93.0875 -69.5425 93.0875 -68.0325 92.1575 -67.1025C91.2275 -66.1725 89.7175 -66.1725 88.7875 -67.1025C87.8575 -68.0325 87.8575 -69.5425 88.7875 -70.4725C89.7175 -71.4025 91.2275 -71.4025 92.1575 -70.4725Z" fill="#F2E8FA"/>
<path d="M-31.2725 76.6075C-30.3425 77.5375 -30.3425 79.0475 -31.2725 79.9775C-32.2025 80.9075 -33.7125 80.9075 -34.6425 79.9775C-35.5725 79.0475 -35.5725 77.5375 -34.6425 76.6075C-33.7125 75.6775 -32.2025 75.6775 -31.2725 76.6075Z" fill="#F2E8FA"/>
<path d="M-17.7425 63.0775C-16.8125 64.0075 -16.8125 65.5175 -17.7425 66.4475C-18.6725 67.3775 -20.1825 67.3775 -21.1125 66.4475C-22.0425 65.5175 -22.0425 64.0075 -21.1125 63.0775C-20.1825 62.1475 -18.6725 62.1475 -17.7425 63.0775Z" fill="#F2E8FA"/>
<path d="M-4.2225 49.5575C-3.2925 50.4875 -3.2925 51.9975 -4.2225 52.9275C-5.1525 53.8575 -6.66251 53.8575 -7.59251 52.9275C-8.52251 51.9975 -8.52251 50.4875 -7.59251 49.5575C-6.66251 48.6275 -5.1525 48.6275 -4.2225 49.5575Z" fill="#F2E8FA"/>
<path d="M9.3075 36.0275C10.2375 36.9575 10.2375 38.4675 9.3075 39.3975C8.3775 40.3275 6.86749 40.3275 5.93749 39.3975C5.00749 38.4675 5.00749 36.9575 5.93749 36.0275C6.86749 35.0975 8.3775 35.0975 9.3075 36.0275Z" fill="#F2E8FA"/>
<path d="M22.8275 22.5075C23.7575 23.4375 23.7575 24.9475 22.8275 25.8775C21.8975 26.8075 20.3875 26.8075 19.4575 25.8775C18.5275 24.9475 18.5275 23.4375 19.4575 22.5075C20.3875 21.5775 21.8975 21.5775 22.8275 22.5075Z" fill="#F2E8FA"/>
<path d="M36.3575 8.9775C37.2875 9.9075 37.2875 11.4175 36.3575 12.3475C35.4275 13.2775 33.9175 13.2775 32.9875 12.3475C32.0575 11.4175 32.0575 9.9075 32.9875 8.9775C33.9175 8.0475 35.4275 8.0475 36.3575 8.9775Z" fill="#F2E8FA"/>
<path d="M49.8775 -4.5425C50.8075 -3.6125 50.8075 -2.1025 49.8775 -1.1725C48.9475 -0.242501 47.4375 -0.242501 46.5075 -1.1725C45.5775 -2.1025 45.5775 -3.6125 46.5075 -4.5425C47.4375 -5.4725 48.9475 -5.4725 49.8775 -4.5425Z" fill="#F2E8FA"/>
<path d="M63.4075 -18.0725C64.3375 -17.1425 64.3375 -15.6325 63.4075 -14.7025C62.4775 -13.7725 60.9675 -13.7725 60.0375 -14.7025C59.1075 -15.6325 59.1075 -17.1425 60.0375 -18.0725C60.9675 -19.0025 62.4775 -19.0025 63.4075 -18.0725Z" fill="#F2E8FA"/>
<path d="M76.9375 -31.5925C77.8675 -30.6625 77.8675 -29.1525 76.9375 -28.2225C76.0075 -27.2925 74.4975 -27.2925 73.5675 -28.2225C72.6375 -29.1525 72.6375 -30.6625 73.5675 -31.5925C74.4975 -32.5225 76.0075 -32.5225 76.9375 -31.5925Z" fill="#F2E8FA"/>
<path d="M90.4575 -45.1225C91.3875 -44.1925 91.3875 -42.6825 90.4575 -41.7525C89.5275 -40.8225 88.0175 -40.8225 87.0875 -41.7525C86.1575 -42.6825 86.1575 -44.1925 87.0875 -45.1225C88.0175 -46.0525 89.5275 -46.0525 90.4575 -45.1225Z" fill="#F2E8FA"/>
<path d="M103.988 -58.6525C104.918 -57.7225 104.918 -56.2125 103.988 -55.2825C103.058 -54.3525 101.548 -54.3525 100.618 -55.2825C99.6875 -56.2125 99.6875 -57.7225 100.618 -58.6525C101.548 -59.5825 103.058 -59.5825 103.988 -58.6525Z" fill="#F2E8FA"/>
<path d="M-19.4425 88.4375C-18.5125 89.3675 -18.5125 90.8775 -19.4425 91.8075C-20.3725 92.7375 -21.8825 92.7375 -22.8125 91.8075C-23.7425 90.8775 -23.7425 89.3675 -22.8125 88.4375C-21.8825 87.5075 -20.3725 87.5075 -19.4425 88.4375Z" fill="#F2E8FA"/>
<path d="M-5.9225 74.9075C-4.9925 75.8375 -4.9925 77.3475 -5.9225 78.2775C-6.8525 79.2075 -8.3625 79.2075 -9.2925 78.2775C-10.2225 77.3475 -10.2225 75.8375 -9.2925 74.9075C-8.3625 73.9775 -6.8525 73.9775 -5.9225 74.9075Z" fill="#F2E8FA"/>
<path d="M5.92751 65.4475C7.24194 65.4475 8.3075 64.382 8.3075 63.0675C8.3075 61.7531 7.24194 60.6875 5.92751 60.6875C4.61307 60.6875 3.5475 61.7531 3.5475 63.0675C3.5475 64.382 4.61307 65.4475 5.92751 65.4475Z" fill="#F2E8FA"/>
<path d="M21.1375 47.8575C22.0675 48.7875 22.0675 50.2975 21.1375 51.2275C20.2075 52.1575 18.6975 52.1575 17.7675 51.2275C16.8375 50.2975 16.8375 48.7875 17.7675 47.8575C18.6975 46.9275 20.2075 46.9275 21.1375 47.8575Z" fill="#F2E8FA"/>
<path d="M34.6575 34.3375C35.5875 35.2675 35.5875 36.7775 34.6575 37.7075C33.7275 38.6375 32.2175 38.6375 31.2875 37.7075C30.3575 36.7775 30.3575 35.2675 31.2875 34.3375C32.2175 33.4075 33.7275 33.4075 34.6575 34.3375Z" fill="#F2E8FA"/>
<path d="M48.1875 20.8075C49.1175 21.7375 49.1175 23.2475 48.1875 24.1775C47.2575 25.1075 45.7475 25.1075 44.8175 24.1775C43.8875 23.2475 43.8875 21.7375 44.8175 20.8075C45.7475 19.8775 47.2575 19.8775 48.1875 20.8075Z" fill="#F2E8FA"/>
<path d="M61.7075 7.2775C62.6375 8.2075 62.6375 9.7175 61.7075 10.6475C60.7775 11.5775 59.2675 11.5775 58.3375 10.6475C57.4075 9.7175 57.4075 8.2075 58.3375 7.2775C59.2675 6.3475 60.7775 6.3475 61.7075 7.2775Z" fill="#F2E8FA"/>
<path d="M73.5475 -2.1825C74.8619 -2.1825 75.9275 -3.24805 75.9275 -4.56249C75.9275 -5.87693 74.8619 -6.9425 73.5475 -6.9425C72.2331 -6.9425 71.1675 -5.87693 71.1675 -4.56249C71.1675 -3.24805 72.2331 -2.1825 73.5475 -2.1825Z" fill="#F2E8FA"/>
<path d="M88.7575 -19.7725C89.6875 -18.8425 89.6875 -17.3325 88.7575 -16.4025C87.8275 -15.4725 86.3175 -15.4725 85.3875 -16.4025C84.4575 -17.3325 84.4575 -18.8425 85.3875 -19.7725C86.3175 -20.7025 87.8275 -20.7025 88.7575 -19.7725Z" fill="#F2E8FA"/>
<path d="M102.288 -33.2925C103.218 -32.3625 103.218 -30.8525 102.288 -29.9225C101.358 -28.9925 99.8475 -28.9925 98.9175 -29.9225C97.9875 -30.8525 97.9875 -32.3625 98.9175 -33.2925C99.8475 -34.2225 101.358 -34.2225 102.288 -33.2925Z" fill="#F2E8FA"/>
<path d="M115.818 -46.8225C116.748 -45.8925 116.748 -44.3825 115.818 -43.4525C114.888 -42.5225 113.378 -42.5225 112.448 -43.4525C111.518 -44.3825 111.518 -45.8925 112.448 -46.8225C113.378 -47.7525 114.888 -47.7525 115.818 -46.8225Z" fill="#F2E8FA"/>
<path d="M-7.6125 100.268C-6.6825 101.198 -6.6825 102.708 -7.6125 103.638C-8.5425 104.568 -10.0525 104.568 -10.9825 103.638C-11.9125 102.708 -11.9125 101.198 -10.9825 100.268C-10.0525 99.3375 -8.5425 99.3375 -7.6125 100.268Z" fill="#F2E8FA"/>
<path d="M5.90749 86.7375C6.83749 87.6675 6.83749 89.1775 5.90749 90.1075C4.97749 91.0375 3.4675 91.0375 2.5375 90.1075C1.6075 89.1775 1.6075 87.6675 2.5375 86.7375C3.4675 85.8075 4.97749 85.8075 5.90749 86.7375Z" fill="#F2E8FA"/>
<path d="M19.4375 73.2175C20.3675 74.1475 20.3675 75.6575 19.4375 76.5875C18.5075 77.5175 16.9975 77.5175 16.0675 76.5875C15.1375 75.6575 15.1375 74.1475 16.0675 73.2175C16.9975 72.2875 18.5075 72.2875 19.4375 73.2175Z" fill="#F2E8FA"/>
<path d="M32.9575 59.6875C33.8875 60.6175 33.8875 62.1275 32.9575 63.0575C32.0275 63.9875 30.5175 63.9875 29.5875 63.0575C28.6575 62.1275 28.6575 60.6175 29.5875 59.6875C30.5175 58.7575 32.0275 58.7575 32.9575 59.6875Z" fill="#F2E8FA"/>
<path d="M46.4875 46.1575C47.4175 47.0875 47.4175 48.5975 46.4875 49.5275C45.5575 50.4575 44.0475 50.4575 43.1175 49.5275C42.1875 48.5975 42.1875 47.0875 43.1175 46.1575C44.0475 45.2275 45.5575 45.2275 46.4875 46.1575Z" fill="#F2E8FA"/>
<path d="M60.0175 32.6375C60.9475 33.5675 60.9475 35.0775 60.0175 36.0075C59.0875 36.9375 57.5775 36.9375 56.6475 36.0075C55.7175 35.0775 55.7175 33.5675 56.6475 32.6375C57.5775 31.7075 59.0875 31.7075 60.0175 32.6375Z" fill="#F2E8FA"/>
<path d="M73.5375 19.1075C74.4675 20.0375 74.4675 21.5475 73.5375 22.4775C72.6075 23.4075 71.0975 23.4075 70.1675 22.4775C69.2375 21.5475 69.2375 20.0375 70.1675 19.1075C71.0975 18.1775 72.6075 18.1775 73.5375 19.1075Z" fill="#F2E8FA"/>
<path d="M87.0675 5.58749C87.9975 6.51749 87.9975 8.0275 87.0675 8.9575C86.1375 9.8875 84.6275 9.8875 83.6975 8.9575C82.7675 8.0275 82.7675 6.51749 83.6975 5.58749C84.6275 4.65749 86.1375 4.65749 87.0675 5.58749Z" fill="#F2E8FA"/>
<path d="M100.588 -7.9425C101.518 -7.0125 101.518 -5.5025 100.588 -4.5725C99.6575 -3.6425 98.1475 -3.6425 97.2175 -4.5725C96.2875 -5.5025 96.2875 -7.0125 97.2175 -7.9425C98.1475 -8.8725 99.6575 -8.8725 100.588 -7.9425Z" fill="#F2E8FA"/>
<path d="M114.118 -21.4625C115.048 -20.5325 115.048 -19.0225 114.118 -18.0925C113.188 -17.1625 111.677 -17.1625 110.747 -18.0925C109.817 -19.0225 109.817 -20.5325 110.747 -21.4625C111.677 -22.3925 113.188 -22.3925 114.118 -21.4625Z" fill="#F2E8FA"/>
<path d="M127.637 -34.9925C128.567 -34.0625 128.567 -32.5525 127.637 -31.6225C126.707 -30.6925 125.198 -30.6925 124.268 -31.6225C123.338 -32.5525 123.338 -34.0625 124.268 -34.9925C125.198 -35.9225 126.707 -35.9225 127.637 -34.9925Z" fill="#F2E8FA"/>
<path d="M4.21749 112.088C5.14749 113.018 5.14749 114.528 4.21749 115.458C3.28749 116.388 1.7775 116.388 0.847496 115.458C-0.082504 114.528 -0.082504 113.018 0.847496 112.088C1.7775 111.158 3.28749 111.158 4.21749 112.088Z" fill="#F2E8FA"/>
<path d="M17.7375 98.5675C18.6675 99.4975 18.6675 101.008 17.7375 101.938C16.8075 102.868 15.2975 102.868 14.3675 101.938C13.4375 101.008 13.4375 99.4975 14.3675 98.5675C15.2975 97.6375 16.8075 97.6375 17.7375 98.5675Z" fill="#F2E8FA"/>
<path d="M31.2675 85.0375C32.1975 85.9675 32.1975 87.4775 31.2675 88.4075C30.3375 89.3375 28.8275 89.3375 27.8975 88.4075C26.9675 87.4775 26.9675 85.9675 27.8975 85.0375C28.8275 84.1075 30.3375 84.1075 31.2675 85.0375Z" fill="#F2E8FA"/>
<path d="M44.7875 71.5175C45.7175 72.4475 45.7175 73.9575 44.7875 74.8875C43.8575 75.8175 42.3475 75.8175 41.4175 74.8875C40.4875 73.9575 40.4875 72.4475 41.4175 71.5175C42.3475 70.5875 43.8575 70.5875 44.7875 71.5175Z" fill="#F2E8FA"/>
<path d="M58.3175 57.9875C59.2475 58.9175 59.2475 60.4275 58.3175 61.3575C57.3875 62.2875 55.8775 62.2875 54.9475 61.3575C54.0175 60.4275 54.0175 58.9175 54.9475 57.9875C55.8775 57.0575 57.3875 57.0575 58.3175 57.9875Z" fill="#F2E8FA"/>
<path d="M71.8375 44.4675C72.7675 45.3975 72.7675 46.9075 71.8375 47.8375C70.9075 48.7675 69.3975 48.7675 68.4675 47.8375C67.5375 46.9075 67.5375 45.3975 68.4675 44.4675C69.3975 43.5375 70.9075 43.5375 71.8375 44.4675Z" fill="#F2E8FA"/>
<path d="M85.3675 30.9375C86.2975 31.8675 86.2975 33.3775 85.3675 34.3075C84.4375 35.2375 82.9275 35.2375 81.9975 34.3075C81.0675 33.3775 81.0675 31.8675 81.9975 30.9375C82.9275 30.0075 84.4375 30.0075 85.3675 30.9375Z" fill="#F2E8FA"/>
<path d="M98.8875 17.4175C99.8175 18.3475 99.8175 19.8575 98.8875 20.7875C97.9575 21.7175 96.4475 21.7175 95.5175 20.7875C94.5875 19.8575 94.5875 18.3475 95.5175 17.4175C96.4475 16.4875 97.9575 16.4875 98.8875 17.4175Z" fill="#F2E8FA"/>
<path d="M112.417 3.8875C113.347 4.8175 113.347 6.3275 112.417 7.2575C111.487 8.1875 109.978 8.1875 109.048 7.2575C108.118 6.3275 108.118 4.8175 109.048 3.8875C109.978 2.9575 111.487 2.9575 112.417 3.8875Z" fill="#F2E8FA"/>
<path d="M125.948 -9.6425C126.878 -8.7125 126.878 -7.2025 125.948 -6.2725C125.018 -5.3425 123.507 -5.3425 122.577 -6.2725C121.647 -7.2025 121.647 -8.7125 122.577 -9.6425C123.507 -10.5725 125.018 -10.5725 125.948 -9.6425Z" fill="#F2E8FA"/>
<path d="M139.467 -23.1625C140.397 -22.2325 140.397 -20.7225 139.467 -19.7925C138.537 -18.8625 137.028 -18.8625 136.098 -19.7925C135.168 -20.7225 135.168 -22.2325 136.098 -23.1625C137.028 -24.0925 138.537 -24.0925 139.467 -23.1625Z" fill="#F2E8FA"/>
<path d="M16.0375 123.917C16.9675 124.847 16.9675 126.357 16.0375 127.287C15.1075 128.217 13.5975 128.217 12.6675 127.287C11.7375 126.357 11.7375 124.847 12.6675 123.917C13.5975 122.987 15.1075 122.987 16.0375 123.917Z" fill="#F2E8FA"/>
<path d="M29.5675 110.397C30.4975 111.327 30.4975 112.838 29.5675 113.768C28.6375 114.698 27.1275 114.698 26.1975 113.768C25.2675 112.838 25.2675 111.327 26.1975 110.397C27.1275 109.467 28.6375 109.467 29.5675 110.397Z" fill="#F2E8FA"/>
<path d="M43.0975 96.8675C44.0275 97.7975 44.0275 99.3075 43.0975 100.238C42.1675 101.168 40.6575 101.168 39.7275 100.238C38.7975 99.3075 38.7975 97.7975 39.7275 96.8675C40.6575 95.9375 42.1675 95.9375 43.0975 96.8675Z" fill="#F2E8FA"/>
<path d="M56.6175 83.3475C57.5475 84.2775 57.5475 85.7875 56.6175 86.7175C55.6875 87.6475 54.1775 87.6475 53.2475 86.7175C52.3175 85.7875 52.3175 84.2775 53.2475 83.3475C54.1775 82.4175 55.6875 82.4175 56.6175 83.3475Z" fill="#F2E8FA"/>
<path d="M70.1475 69.8175C71.0775 70.7475 71.0775 72.2575 70.1475 73.1875C69.2175 74.1175 67.7075 74.1175 66.7775 73.1875C65.8475 72.2575 65.8475 70.7475 66.7775 69.8175C67.7075 68.8875 69.2175 68.8875 70.1475 69.8175Z" fill="#F2E8FA"/>
<path d="M83.6675 56.2875C84.5975 57.2175 84.5975 58.7275 83.6675 59.6575C82.7375 60.5875 81.2275 60.5875 80.2975 59.6575C79.3675 58.7275 79.3675 57.2175 80.2975 56.2875C81.2275 55.3575 82.7375 55.3575 83.6675 56.2875Z" fill="#F2E8FA"/>
<path d="M97.1975 42.7675C98.1275 43.6975 98.1275 45.2075 97.1975 46.1375C96.2675 47.0675 94.7575 47.0675 93.8275 46.1375C92.8975 45.2075 92.8975 43.6975 93.8275 42.7675C94.7575 41.8375 96.2675 41.8375 97.1975 42.7675Z" fill="#F2E8FA"/>
<path d="M110.717 29.2375C111.647 30.1675 111.647 31.6775 110.717 32.6075C109.787 33.5375 108.278 33.5375 107.348 32.6075C106.418 31.6775 106.418 30.1675 107.348 29.2375C108.278 28.3075 109.787 28.3075 110.717 29.2375Z" fill="#F2E8FA"/>
<path d="M124.247 15.7175C125.177 16.6475 125.177 18.1575 124.247 19.0875C123.317 20.0175 121.808 20.0175 120.878 19.0875C119.948 18.1575 119.948 16.6475 120.878 15.7175C121.808 14.7875 123.317 14.7875 124.247 15.7175Z" fill="#F2E8FA"/>
<path d="M137.768 2.1875C138.698 3.1175 138.698 4.6275 137.768 5.5575C136.838 6.48749 135.328 6.48749 134.398 5.5575C133.468 4.6275 133.468 3.1175 134.398 2.1875C135.328 1.2575 136.838 1.2575 137.768 2.1875Z" fill="#F2E8FA"/>
<path d="M151.298 -11.3325C152.228 -10.4025 152.228 -8.8925 151.298 -7.9625C150.368 -7.0325 148.858 -7.0325 147.928 -7.9625C146.998 -8.8925 146.998 -10.4025 147.928 -11.3325C148.858 -12.2625 150.368 -12.2625 151.298 -11.3325Z" fill="#F2E8FA"/>
<path d="M1046.07 231.958C1047 232.888 1047 234.397 1046.07 235.327C1045.14 236.257 1043.63 236.257 1042.7 235.327C1041.77 234.397 1041.77 232.888 1042.7 231.958C1043.63 231.028 1045.14 231.028 1046.07 231.958Z" fill="#F2E8FA"/>
<path d="M1059.59 218.427C1060.52 219.357 1060.52 220.867 1059.59 221.797C1058.66 222.727 1057.15 222.727 1056.22 221.797C1055.29 220.867 1055.29 219.357 1056.22 218.427C1057.15 217.497 1058.66 217.497 1059.59 218.427Z" fill="#F2E8FA"/>
<path d="M1073.12 204.907C1074.05 205.837 1074.05 207.347 1073.12 208.277C1072.19 209.207 1070.68 209.207 1069.75 208.277C1068.82 207.347 1068.82 205.837 1069.75 204.907C1070.68 203.977 1072.19 203.977 1073.12 204.907Z" fill="#F2E8FA"/>
<path d="M1086.64 191.377C1087.57 192.307 1087.57 193.817 1086.64 194.747C1085.71 195.677 1084.2 195.677 1083.27 194.747C1082.34 193.817 1082.34 192.307 1083.27 191.377C1084.2 190.447 1085.71 190.447 1086.64 191.377Z" fill="#F2E8FA"/>
<path d="M1100.17 177.857C1101.1 178.787 1101.1 180.297 1100.17 181.227C1099.24 182.157 1097.73 182.157 1096.8 181.227C1095.87 180.297 1095.87 178.787 1096.8 177.857C1097.73 176.927 1099.24 176.927 1100.17 177.857Z" fill="#F2E8FA"/>
<path d="M1113.7 164.327C1114.63 165.257 1114.63 166.768 1113.7 167.698C1112.77 168.628 1111.26 168.628 1110.33 167.698C1109.4 166.768 1109.4 165.257 1110.33 164.327C1111.26 163.397 1112.77 163.397 1113.7 164.327Z" fill="#F2E8FA"/>
<path d="M1127.22 150.807C1128.15 151.737 1128.15 153.247 1127.22 154.177C1126.29 155.107 1124.78 155.107 1123.85 154.177C1122.92 153.247 1122.92 151.737 1123.85 150.807C1124.78 149.877 1126.29 149.877 1127.22 150.807Z" fill="#F2E8FA"/>
<path d="M1140.75 137.277C1141.68 138.207 1141.68 139.717 1140.75 140.647C1139.82 141.577 1138.31 141.577 1137.38 140.647C1136.45 139.717 1136.45 138.207 1137.38 137.277C1138.31 136.347 1139.82 136.347 1140.75 137.277Z" fill="#F2E8FA"/>
<path d="M1154.27 123.757C1155.2 124.687 1155.2 126.197 1154.27 127.127C1153.34 128.057 1151.83 128.057 1150.9 127.127C1149.97 126.197 1149.97 124.687 1150.9 123.757C1151.83 122.827 1153.34 122.827 1154.27 123.757Z" fill="#F2E8FA"/>
<path d="M1167.8 110.227C1168.73 111.157 1168.73 112.667 1167.8 113.597C1166.87 114.527 1165.36 114.527 1164.43 113.597C1163.5 112.667 1163.5 111.157 1164.43 110.227C1165.36 109.297 1166.87 109.297 1167.8 110.227Z" fill="#F2E8FA"/>
<path d="M1181.32 96.6975C1182.25 97.6275 1182.25 99.1375 1181.32 100.067C1180.39 100.997 1178.88 100.997 1177.95 100.067C1177.02 99.1375 1177.02 97.6275 1177.95 96.6975C1178.88 95.7675 1180.39 95.7675 1181.32 96.6975Z" fill="#F2E8FA"/>
<path d="M1057.9 243.787C1058.83 244.717 1058.83 246.227 1057.9 247.157C1056.97 248.087 1055.46 248.087 1054.53 247.157C1053.6 246.227 1053.6 244.717 1054.53 243.787C1055.46 242.857 1056.97 242.857 1057.9 243.787Z" fill="#F2E8FA"/>
<path d="M1071.42 230.257C1072.35 231.187 1072.35 232.697 1071.42 233.627C1070.49 234.557 1068.98 234.557 1068.05 233.627C1067.12 232.697 1067.12 231.187 1068.05 230.257C1068.98 229.327 1070.49 229.327 1071.42 230.257Z" fill="#F2E8FA"/>
<path d="M1084.95 216.737C1085.88 217.667 1085.88 219.177 1084.95 220.107C1084.02 221.037 1082.51 221.037 1081.58 220.107C1080.65 219.177 1080.65 217.667 1081.58 216.737C1082.51 215.807 1084.02 215.807 1084.95 216.737Z" fill="#F2E8FA"/>
<path d="M1098.47 203.208C1099.4 204.138 1099.4 205.648 1098.47 206.578C1097.54 207.508 1096.03 207.508 1095.1 206.578C1094.17 205.648 1094.17 204.138 1095.1 203.208C1096.03 202.278 1097.54 202.278 1098.47 203.208Z" fill="#F2E8FA"/>
<path d="M1112 189.687C1112.93 190.617 1112.93 192.127 1112 193.057C1111.07 193.987 1109.56 193.987 1108.63 193.057C1107.7 192.127 1107.7 190.617 1108.63 189.687C1109.56 188.757 1111.07 188.757 1112 189.687Z" fill="#F2E8FA"/>
<path d="M1125.52 176.157C1126.45 177.087 1126.45 178.597 1125.52 179.527C1124.59 180.457 1123.08 180.457 1122.15 179.527C1121.22 178.597 1121.22 177.087 1122.15 176.157C1123.08 175.227 1124.59 175.227 1125.52 176.157Z" fill="#F2E8FA"/>
<path d="M1139.05 162.627C1139.98 163.557 1139.98 165.067 1139.05 165.997C1138.12 166.927 1136.61 166.927 1135.68 165.997C1134.75 165.067 1134.75 163.557 1135.68 162.627C1136.61 161.697 1138.12 161.697 1139.05 162.627Z" fill="#F2E8FA"/>
<path d="M1152.58 149.107C1153.51 150.037 1153.51 151.548 1152.58 152.478C1151.65 153.408 1150.14 153.408 1149.21 152.478C1148.28 151.548 1148.28 150.037 1149.21 149.107C1150.14 148.177 1151.65 148.177 1152.58 149.107Z" fill="#F2E8FA"/>
<path d="M1166.1 135.577C1167.03 136.507 1167.03 138.018 1166.1 138.948C1165.17 139.878 1163.66 139.878 1162.73 138.948C1161.8 138.018 1161.8 136.507 1162.73 135.577C1163.66 134.647 1165.17 134.647 1166.1 135.577Z" fill="#F2E8FA"/>
<path d="M1179.63 122.057C1180.56 122.987 1180.56 124.497 1179.63 125.427C1178.7 126.357 1177.19 126.357 1176.26 125.427C1175.33 124.497 1175.33 122.987 1176.26 122.057C1177.19 121.127 1178.7 121.127 1179.63 122.057Z" fill="#F2E8FA"/>
<path d="M1193.15 108.527C1194.08 109.457 1194.08 110.967 1193.15 111.897C1192.22 112.827 1190.71 112.827 1189.78 111.897C1188.85 110.967 1188.85 109.457 1189.78 108.527C1190.71 107.597 1192.22 107.597 1193.15 108.527Z" fill="#F2E8FA"/>
<path d="M1069.72 255.617C1070.65 256.547 1070.65 258.057 1069.72 258.987C1068.79 259.917 1067.28 259.917 1066.35 258.987C1065.42 258.057 1065.42 256.547 1066.35 255.617C1067.28 254.687 1068.79 254.687 1069.72 255.617Z" fill="#F2E8FA"/>
<path d="M1083.25 242.088C1084.18 243.018 1084.18 244.528 1083.25 245.458C1082.32 246.388 1080.81 246.388 1079.88 245.458C1078.95 244.528 1078.95 243.018 1079.88 242.088C1080.81 241.158 1082.32 241.158 1083.25 242.088Z" fill="#F2E8FA"/>
<path d="M1096.78 228.567C1097.71 229.497 1097.71 231.007 1096.78 231.937C1095.85 232.867 1094.34 232.867 1093.41 231.937C1092.48 231.007 1092.48 229.497 1093.41 228.567C1094.34 227.637 1095.85 227.637 1096.78 228.567Z" fill="#F2E8FA"/>
<path d="M1110.3 215.037C1111.23 215.967 1111.23 217.477 1110.3 218.407C1109.37 219.337 1107.86 219.337 1106.93 218.407C1106 217.477 1106 215.967 1106.93 215.037C1107.86 214.107 1109.37 214.107 1110.3 215.037Z" fill="#F2E8FA"/>
<path d="M1123.83 201.507C1124.76 202.437 1124.76 203.947 1123.83 204.877C1122.9 205.807 1121.39 205.807 1120.46 204.877C1119.53 203.947 1119.53 202.437 1120.46 201.507C1121.39 200.577 1122.9 200.577 1123.83 201.507Z" fill="#F2E8FA"/>
<path d="M1137.35 187.987C1138.28 188.917 1138.28 190.427 1137.35 191.357C1136.42 192.287 1134.91 192.287 1133.98 191.357C1133.05 190.427 1133.05 188.917 1133.98 187.987C1134.91 187.057 1136.42 187.057 1137.35 187.987Z" fill="#F2E8FA"/>
<path d="M1150.88 174.458C1151.81 175.388 1151.81 176.898 1150.88 177.828C1149.95 178.758 1148.44 178.758 1147.51 177.828C1146.58 176.898 1146.58 175.388 1147.51 174.458C1148.44 173.528 1149.95 173.528 1150.88 174.458Z" fill="#F2E8FA"/>
<path d="M1164.4 160.937C1165.33 161.867 1165.33 163.377 1164.4 164.307C1163.47 165.237 1161.96 165.237 1161.03 164.307C1160.1 163.377 1160.1 161.867 1161.03 160.937C1161.96 160.007 1163.47 160.007 1164.4 160.937Z" fill="#F2E8FA"/>
<path d="M1177.93 147.407C1178.86 148.337 1178.86 149.847 1177.93 150.777C1177 151.707 1175.49 151.707 1174.56 150.777C1173.63 149.847 1173.63 148.337 1174.56 147.407C1175.49 146.477 1177 146.477 1177.93 147.407Z" fill="#F2E8FA"/>
<path d="M1191.45 133.887C1192.38 134.817 1192.38 136.327 1191.45 137.257C1190.52 138.187 1189.01 138.187 1188.08 137.257C1187.15 136.327 1187.15 134.817 1188.08 133.887C1189.01 132.957 1190.52 132.957 1191.45 133.887Z" fill="#F2E8FA"/>
<path d="M1204.98 120.357C1205.91 121.287 1205.91 122.797 1204.98 123.727C1204.05 124.657 1202.54 124.657 1201.61 123.727C1200.68 122.797 1200.68 121.287 1201.61 120.357C1202.54 119.427 1204.05 119.427 1204.98 120.357Z" fill="#F2E8FA"/>
<path d="M1081.55 267.437C1082.48 268.367 1082.48 269.877 1081.55 270.807C1080.62 271.737 1079.11 271.737 1078.18 270.807C1077.25 269.877 1077.25 268.367 1078.18 267.437C1079.11 266.507 1080.62 266.507 1081.55 267.437Z" fill="#F2E8FA"/>
<path d="M1095.08 253.917C1096.01 254.847 1096.01 256.357 1095.08 257.287C1094.15 258.217 1092.64 258.217 1091.71 257.287C1090.78 256.357 1090.78 254.847 1091.71 253.917C1092.64 252.987 1094.15 252.987 1095.08 253.917Z" fill="#F2E8FA"/>
<path d="M1108.6 240.387C1109.53 241.317 1109.53 242.827 1108.6 243.757C1107.67 244.687 1106.16 244.687 1105.23 243.757C1104.3 242.827 1104.3 241.317 1105.23 240.387C1106.16 239.457 1107.67 239.457 1108.6 240.387Z" fill="#F2E8FA"/>
<path d="M1122.13 226.867C1123.06 227.797 1123.06 229.307 1122.13 230.237C1121.2 231.167 1119.69 231.167 1118.76 230.237C1117.83 229.307 1117.83 227.797 1118.76 226.867C1119.69 225.937 1121.2 225.937 1122.13 226.867Z" fill="#F2E8FA"/>
<path d="M1135.65 213.338C1136.58 214.268 1136.58 215.778 1135.65 216.708C1134.72 217.638 1133.21 217.638 1132.28 216.708C1131.35 215.778 1131.35 214.268 1132.28 213.338C1133.21 212.408 1134.72 212.408 1135.65 213.338Z" fill="#F2E8FA"/>
<path d="M1149.18 199.817C1150.11 200.747 1150.11 202.257 1149.18 203.187C1148.25 204.117 1146.74 204.117 1145.81 203.187C1144.88 202.257 1144.88 200.747 1145.81 199.817C1146.74 198.887 1148.25 198.887 1149.18 199.817Z" fill="#F2E8FA"/>
<path d="M1162.71 186.287C1163.64 187.217 1163.64 188.727 1162.71 189.657C1161.78 190.587 1160.27 190.587 1159.34 189.657C1158.41 188.727 1158.41 187.217 1159.34 186.287C1160.27 185.357 1161.78 185.357 1162.71 186.287Z" fill="#F2E8FA"/>
<path d="M1176.23 172.768C1177.16 173.698 1177.16 175.208 1176.23 176.138C1175.3 177.068 1173.79 177.068 1172.86 176.138C1171.93 175.208 1171.93 173.698 1172.86 172.768C1173.79 171.838 1175.3 171.838 1176.23 172.768Z" fill="#F2E8FA"/>
<path d="M1189.76 159.237C1190.69 160.167 1190.69 161.677 1189.76 162.607C1188.83 163.537 1187.32 163.537 1186.39 162.607C1185.46 161.677 1185.46 160.167 1186.39 159.237C1187.32 158.307 1188.83 158.307 1189.76 159.237Z" fill="#F2E8FA"/>
<path d="M1203.28 145.707C1204.21 146.637 1204.21 148.147 1203.28 149.077C1202.35 150.007 1200.84 150.007 1199.91 149.077C1198.98 148.147 1198.98 146.637 1199.91 145.707C1200.84 144.777 1202.35 144.777 1203.28 145.707Z" fill="#F2E8FA"/>
<path d="M1216.81 132.187C1217.74 133.117 1217.74 134.627 1216.81 135.557C1215.88 136.487 1214.37 136.487 1213.44 135.557C1212.51 134.627 1212.51 133.117 1213.44 132.187C1214.37 131.257 1215.88 131.257 1216.81 132.187Z" fill="#F2E8FA"/>
<path d="M1093.38 279.268C1094.31 280.198 1094.31 281.707 1093.38 282.637C1092.45 283.567 1090.94 283.567 1090.01 282.637C1089.08 281.707 1089.08 280.198 1090.01 279.268C1090.94 278.338 1092.45 278.338 1093.38 279.268Z" fill="#F2E8FA"/>
<path d="M1106.91 265.747C1107.84 266.677 1107.84 268.187 1106.91 269.117C1105.98 270.047 1104.47 270.047 1103.54 269.117C1102.61 268.187 1102.61 266.677 1103.54 265.747C1104.47 264.817 1105.98 264.817 1106.91 265.747Z" fill="#F2E8FA"/>
<path d="M1120.43 252.217C1121.36 253.147 1121.36 254.658 1120.43 255.588C1119.5 256.518 1117.99 256.518 1117.06 255.588C1116.13 254.658 1116.13 253.147 1117.06 252.217C1117.99 251.287 1119.5 251.287 1120.43 252.217Z" fill="#F2E8FA"/>
<path d="M1133.96 238.697C1134.89 239.627 1134.89 241.137 1133.96 242.067C1133.03 242.997 1131.52 242.997 1130.59 242.067C1129.66 241.137 1129.66 239.627 1130.59 238.697C1131.52 237.767 1133.03 237.767 1133.96 238.697Z" fill="#F2E8FA"/>
<path d="M1147.48 225.167C1148.41 226.097 1148.41 227.607 1147.48 228.537C1146.55 229.467 1145.04 229.467 1144.11 228.537C1143.18 227.607 1143.18 226.097 1144.11 225.167C1145.04 224.237 1146.55 224.237 1147.48 225.167Z" fill="#F2E8FA"/>
<path d="M1161.01 211.638C1161.94 212.568 1161.94 214.077 1161.01 215.007C1160.08 215.937 1158.57 215.937 1157.64 215.007C1156.71 214.077 1156.71 212.568 1157.64 211.638C1158.57 210.708 1160.08 210.708 1161.01 211.638Z" fill="#F2E8FA"/>
<path d="M1174.53 198.117C1175.46 199.047 1175.46 200.557 1174.53 201.487C1173.6 202.417 1172.09 202.417 1171.16 201.487C1170.23 200.557 1170.23 199.047 1171.16 198.117C1172.09 197.187 1173.6 197.187 1174.53 198.117Z" fill="#F2E8FA"/>
<path d="M1188.06 184.588C1188.99 185.518 1188.99 187.028 1188.06 187.958C1187.13 188.888 1185.62 188.888 1184.69 187.958C1183.76 187.028 1183.76 185.518 1184.69 184.588C1185.62 183.658 1187.13 183.658 1188.06 184.588Z" fill="#F2E8FA"/>
<path d="M1201.59 171.067C1202.52 171.997 1202.52 173.507 1201.59 174.437C1200.66 175.367 1199.15 175.367 1198.22 174.437C1197.29 173.507 1197.29 171.997 1198.22 171.067C1199.15 170.137 1200.66 170.137 1201.59 171.067Z" fill="#F2E8FA"/>
<path d="M1215.11 157.537C1216.04 158.467 1216.04 159.977 1215.11 160.907C1214.18 161.837 1212.67 161.837 1211.74 160.907C1210.81 159.977 1210.81 158.467 1211.74 157.537C1212.67 156.607 1214.18 156.607 1215.11 157.537Z" fill="#F2E8FA"/>
<path d="M1228.64 144.017C1229.57 144.947 1229.57 146.457 1228.64 147.387C1227.71 148.317 1226.2 148.317 1225.27 147.387C1224.34 146.457 1224.34 144.947 1225.27 144.017C1226.2 143.087 1227.71 143.087 1228.64 144.017Z" fill="#F2E8FA"/>
<path d="M1105.21 291.097C1106.14 292.027 1106.14 293.537 1105.21 294.467C1104.28 295.397 1102.77 295.397 1101.84 294.467C1100.91 293.537 1100.91 292.027 1101.84 291.097C1102.77 290.167 1104.28 290.167 1105.21 291.097Z" fill="#F2E8FA"/>
<path d="M1118.73 277.577C1119.66 278.507 1119.66 280.017 1118.73 280.947C1117.8 281.877 1116.29 281.877 1115.36 280.947C1114.43 280.017 1114.43 278.507 1115.36 277.577C1116.29 276.647 1117.8 276.647 1118.73 277.577Z" fill="#F2E8FA"/>
<path d="M1132.26 264.047C1133.19 264.977 1133.19 266.487 1132.26 267.417C1131.33 268.347 1129.82 268.347 1128.89 267.417C1127.96 266.487 1127.96 264.977 1128.89 264.047C1129.82 263.117 1131.33 263.117 1132.26 264.047Z" fill="#F2E8FA"/>
<path d="M1145.79 250.518C1146.72 251.448 1146.72 252.957 1145.79 253.887C1144.86 254.817 1143.35 254.817 1142.42 253.887C1141.49 252.957 1141.49 251.448 1142.42 250.518C1143.35 249.588 1144.86 249.588 1145.79 250.518Z" fill="#F2E8FA"/>
<path d="M1159.31 236.997C1160.24 237.927 1160.24 239.437 1159.31 240.367C1158.38 241.297 1156.87 241.297 1155.94 240.367C1155.01 239.437 1155.01 237.927 1155.94 236.997C1156.87 236.067 1158.38 236.067 1159.31 236.997Z" fill="#F2E8FA"/>
<path d="M1172.84 223.467C1173.77 224.397 1173.77 225.908 1172.84 226.838C1171.91 227.768 1170.4 227.768 1169.47 226.838C1168.54 225.908 1168.54 224.397 1169.47 223.467C1170.4 222.537 1171.91 222.537 1172.84 223.467Z" fill="#F2E8FA"/>
<path d="M1186.36 209.948C1187.29 210.878 1187.29 212.387 1186.36 213.317C1185.43 214.247 1183.92 214.247 1182.99 213.317C1182.06 212.387 1182.06 210.878 1182.99 209.948C1183.92 209.018 1185.43 209.018 1186.36 209.948Z" fill="#F2E8FA"/>
<path d="M1199.89 196.417C1200.82 197.347 1200.82 198.857 1199.89 199.787C1198.96 200.717 1197.45 200.717 1196.52 199.787C1195.59 198.857 1195.59 197.347 1196.52 196.417C1197.45 195.487 1198.96 195.487 1199.89 196.417Z" fill="#F2E8FA"/>
<path d="M1213.41 182.898C1214.34 183.828 1214.34 185.338 1213.41 186.268C1212.48 187.198 1210.97 187.198 1210.04 186.268C1209.11 185.338 1209.11 183.828 1210.04 182.898C1210.97 181.968 1212.48 181.968 1213.41 182.898Z" fill="#F2E8FA"/>
<path d="M1226.94 169.367C1227.87 170.297 1227.87 171.807 1226.94 172.737C1226.01 173.667 1224.5 173.667 1223.57 172.737C1222.64 171.807 1222.64 170.297 1223.57 169.367C1224.5 168.437 1226.01 168.437 1226.94 169.367Z" fill="#F2E8FA"/>
<path d="M1240.46 155.847C1241.39 156.777 1241.39 158.287 1240.46 159.217C1239.53 160.147 1238.02 160.147 1237.09 159.217C1236.16 158.287 1236.16 156.777 1237.09 155.847C1238.02 154.917 1239.53 154.917 1240.46 155.847Z" fill="#F2E8FA"/>
<path d="M1117.04 302.927C1117.97 303.857 1117.97 305.367 1117.04 306.297C1116.11 307.227 1114.6 307.227 1113.67 306.297C1112.74 305.367 1112.74 303.857 1113.67 302.927C1114.6 301.997 1116.11 301.997 1117.04 302.927Z" fill="#F2E8FA"/>
<path d="M1130.56 289.398C1131.49 290.328 1131.49 291.838 1130.56 292.768C1129.63 293.698 1128.12 293.698 1127.19 292.768C1126.26 291.838 1126.26 290.328 1127.19 289.398C1128.12 288.468 1129.63 288.468 1130.56 289.398Z" fill="#F2E8FA"/>
<path d="M1144.09 275.877C1145.02 276.807 1145.02 278.317 1144.09 279.247C1143.16 280.177 1141.65 280.177 1140.72 279.247C1139.79 278.317 1139.79 276.807 1140.72 275.877C1141.65 274.947 1143.16 274.947 1144.09 275.877Z" fill="#F2E8FA"/>
<path d="M1157.61 262.347C1158.54 263.277 1158.54 264.787 1157.61 265.717C1156.68 266.647 1155.17 266.647 1154.24 265.717C1153.31 264.787 1153.31 263.277 1154.24 262.347C1155.17 261.417 1156.68 261.417 1157.61 262.347Z" fill="#F2E8FA"/>
<path d="M1171.14 248.827C1172.07 249.757 1172.07 251.267 1171.14 252.197C1170.21 253.127 1168.7 253.127 1167.77 252.197C1166.84 251.267 1166.84 249.757 1167.77 248.827C1168.7 247.897 1170.21 247.897 1171.14 248.827Z" fill="#F2E8FA"/>
<path d="M1184.66 235.297C1185.59 236.227 1185.59 237.737 1184.66 238.667C1183.73 239.597 1182.22 239.597 1181.29 238.667C1180.36 237.737 1180.36 236.227 1181.29 235.297C1182.22 234.367 1183.73 234.367 1184.66 235.297Z" fill="#F2E8FA"/>
<path d="M1198.19 221.777C1199.12 222.707 1199.12 224.218 1198.19 225.148C1197.26 226.078 1195.75 226.078 1194.82 225.148C1193.89 224.218 1193.89 222.707 1194.82 221.777C1195.75 220.847 1197.26 220.847 1198.19 221.777Z" fill="#F2E8FA"/>
<path d="M1211.72 208.247C1212.65 209.177 1212.65 210.687 1211.72 211.617C1210.79 212.547 1209.28 212.547 1208.35 211.617C1207.42 210.687 1207.42 209.177 1208.35 208.247C1209.28 207.317 1210.79 207.317 1211.72 208.247Z" fill="#F2E8FA"/>
<path d="M1225.24 194.717C1226.17 195.647 1226.17 197.158 1225.24 198.088C1224.31 199.018 1222.8 199.018 1221.87 198.088C1220.94 197.158 1220.94 195.647 1221.87 194.717C1222.8 193.787 1224.31 193.787 1225.24 194.717Z" fill="#F2E8FA"/>
<path d="M1238.77 181.198C1239.7 182.128 1239.7 183.637 1238.77 184.567C1237.84 185.497 1236.33 185.497 1235.4 184.567C1234.47 183.637 1234.47 182.128 1235.4 181.198C1236.33 180.268 1237.84 180.268 1238.77 181.198Z" fill="#F2E8FA"/>
<path d="M1252.29 167.667C1253.22 168.597 1253.22 170.107 1252.29 171.037C1251.36 171.967 1249.85 171.967 1248.92 171.037C1247.99 170.107 1247.99 168.597 1248.92 167.667C1249.85 166.737 1251.36 166.737 1252.29 167.667Z" fill="#F2E8FA"/>
<path d="M166.17 87.37L485.53 -232H489.33L169.96 87.37H166.17Z" fill="#F2E8FA"/>
<path d="M500.48 -232L181.13 87.37H177.33L496.69 -232H500.48Z" fill="#F2E8FA"/>
<path d="M511.64 -232L192.28 87.37H188.48L507.84 -232H511.64Z" fill="#F2E8FA"/>
<path d="M522.8 -232L203.44 87.37H199.64L519.01 -232H522.8Z" fill="#F2E8FA"/>
<path d="M533.96 -232L214.6 87.37H210.8L530.16 -232H533.96Z" fill="#F2E8FA"/>
<path d="M467.16 -232L147.79 87.37H144L463.36 -232H467.16Z" fill="#F2E8FA"/>
<path d="M545.11 -232L225.75 87.37H221.96L541.31 -232H545.11Z" fill="#F2E8FA"/>
<path d="M478.17 -231.85L158.95 87.37H155.16L474.52 -232H478.02L478.17 -231.85Z" fill="#F2E8FA"/>
<path d="M755 304.37L1074.36 -15H1078.16L758.79 304.37H755Z" fill="#F2E8FA"/>
<path d="M1089.54 -15L770.19 304.37H766.39L1085.75 -15H1089.54Z" fill="#F2E8FA"/>
<path d="M1100.94 -15L781.58 304.37H777.78L1097.14 -15H1100.94Z" fill="#F2E8FA"/>
<path d="M1112.33 -15L792.97 304.37H789.17L1108.54 -15H1112.33Z" fill="#F2E8FA"/>
<path d="M1123.72 -15L804.36 304.37H800.56L1119.92 -15H1123.72Z" fill="#F2E8FA"/>
<path d="M1135.12 -15L815.75 304.37H811.96L1131.32 -15H1135.12Z" fill="#F2E8FA"/>
<path d="M1146.5 -15L827.14 304.37H823.35L1142.7 -15H1146.5Z" fill="#F2E8FA"/>
<path d="M1157.75 -14.85L838.53 304.37H834.74L1154.1 -15H1157.6L1157.75 -14.85Z" fill="#F2E8FA"/>
<path d="M664 304.37L983.36 -15H987.16L667.79 304.37H664Z" fill="#F2E8FA"/>
<path d="M998.54 -15L679.19 304.37H675.39L994.75 -15H998.54Z" fill="#F2E8FA"/>
<path d="M1009.94 -15L690.58 304.37H686.78L1006.14 -15H1009.94Z" fill="#F2E8FA"/>
<path d="M1021.33 -15L701.97 304.37H698.17L1017.54 -15H1021.33Z" fill="#F2E8FA"/>
<path d="M1032.72 -15L713.36 304.37H709.56L1028.92 -15H1032.72Z" fill="#F2E8FA"/>
<path d="M1044.12 -15L724.75 304.37H720.96L1040.32 -15H1044.12Z" fill="#F2E8FA"/>
<path d="M1055.5 -15L736.14 304.37H732.35L1051.7 -15H1055.5Z" fill="#F2E8FA"/>
<path d="M1066.75 -14.85L747.53 304.37H743.74L1063.1 -15H1066.6L1066.75 -14.85Z" fill="#F2E8FA"/>
<path d="M696.37 107.61L689.84 114.14H696.37V107.61Z" fill="#F2E8FA"/>
<path d="M708.16 107.61L701.63 114.14H708.16V107.61Z" fill="#F2E8FA"/>
<path d="M719.95 107.61L713.43 114.14H719.95V107.61Z" fill="#F2E8FA"/>
<path d="M731.74 107.61L725.22 114.14H731.74V107.61Z" fill="#F2E8FA"/>
<path d="M684.4 118.93L677.87 125.46H684.4V118.93Z" fill="#F2E8FA"/>
<path d="M696.19 118.93L689.67 125.46H696.19V118.93Z" fill="#F2E8FA"/>
<path d="M707.98 118.93L701.46 125.46H707.98V118.93Z" fill="#F2E8FA"/>
<path d="M719.78 118.93L713.25 125.46H719.78V118.93Z" fill="#F2E8FA"/>
<path d="M731.57 118.93L725.04 125.46H731.57V118.93Z" fill="#F2E8FA"/>
<path d="M672.43 130.26L665.91 136.78H672.43V130.26Z" fill="#F2E8FA"/>
<path d="M684.23 130.26L677.7 136.78H684.23V130.26Z" fill="#F2E8FA"/>
<path d="M696.02 130.26L689.49 136.78H696.02V130.26Z" fill="#F2E8FA"/>
<path d="M707.81 130.26L701.28 136.78H707.81V130.26Z" fill="#F2E8FA"/>
<path d="M719.6 130.26L713.07 136.78H719.6V130.26Z" fill="#F2E8FA"/>
<path d="M731.39 130.26L724.86 136.78H731.39V130.26Z" fill="#F2E8FA"/>
<path d="M660.47 141.58L653.94 148.11H660.47V141.58Z" fill="#F2E8FA"/>
<path d="M672.26 141.58L665.73 148.11H672.26V141.58Z" fill="#F2E8FA"/>
<path d="M684.05 141.58L677.52 148.11H684.05V141.58Z" fill="#F2E8FA"/>
<path d="M695.84 141.58L689.31 148.11H695.84V141.58Z" fill="#F2E8FA"/>
<path d="M707.63 141.58L701.1 148.11H707.63V141.58Z" fill="#F2E8FA"/>
<path d="M719.42 141.58L712.89 148.11H719.42V141.58Z" fill="#F2E8FA"/>
<path d="M731.21 141.58L724.68 148.11H731.21V141.58Z" fill="#F2E8FA"/>
<path d="M648.5 152.9L641.97 159.43H648.5V152.9Z" fill="#F2E8FA"/>
<path d="M660.29 152.9L653.76 159.43H660.29V152.9Z" fill="#F2E8FA"/>
<path d="M672.08 152.9L665.55 159.43H672.08V152.9Z" fill="#F2E8FA"/>
<path d="M683.87 152.9L677.34 159.43H683.87V152.9Z" fill="#F2E8FA"/>
<path d="M695.66 152.9L689.13 159.43H695.66V152.9Z" fill="#F2E8FA"/>
<path d="M707.45 152.9L700.92 159.43H707.45V152.9Z" fill="#F2E8FA"/>
<path d="M719.24 152.9L712.71 159.43H719.24V152.9Z" fill="#F2E8FA"/>
<path d="M636.53 164.23L630 170.75H636.53V164.23Z" fill="#F2E8FA"/>
<path d="M648.32 164.23L641.79 170.75H648.32V164.23Z" fill="#F2E8FA"/>
<path d="M660.11 164.23L653.58 170.75H660.11V164.23Z" fill="#F2E8FA"/>
<path d="M671.9 164.23L665.37 170.75H671.9V164.23Z" fill="#F2E8FA"/>
<path d="M683.69 164.23L677.16 170.75H683.69V164.23Z" fill="#F2E8FA"/>
<path d="M695.48 164.23L688.95 170.75H695.48V164.23Z" fill="#F2E8FA"/>
<path d="M707.27 164.23L700.74 170.75H707.27V164.23Z" fill="#F2E8FA"/>
<path d="M732.28 73.64L725.75 80.17H732.28V73.64Z" fill="#F2E8FA"/>
<path d="M720.31 84.96L713.78 91.49H720.31V84.96Z" fill="#F2E8FA"/>
<path d="M732.1 84.96L725.57 91.49H732.1V84.96Z" fill="#F2E8FA"/>
<path d="M708.34 96.29L701.81 102.82H708.34V96.29Z" fill="#F2E8FA"/>
<path d="M720.13 96.29L713.6 102.82H720.13V96.29Z" fill="#F2E8FA"/>
<path d="M731.92 96.29L725.39 102.82H731.92V96.29Z" fill="#F2E8FA"/>
<path d="M743.41 107.61L736.88 114.14H743.41V107.61Z" fill="#F2E8FA"/>
<path d="M755.2 107.61L748.67 114.14H755.2V107.61Z" fill="#F2E8FA"/>
<path d="M766.99 107.61L760.46 114.14H766.99V107.61Z" fill="#F2E8FA"/>
<path d="M743.23 118.93L736.7 125.46H743.23V118.93Z" fill="#F2E8FA"/>
<path d="M755.02 118.93L748.49 125.46H755.02V118.93Z" fill="#F2E8FA"/>
<path d="M743.05 130.26L736.52 136.78H743.05V130.26Z" fill="#F2E8FA"/>
<path d="M756.09 51L749.56 57.52H756.09V51Z" fill="#F2E8FA"/>
<path d="M767.88 51L761.35 57.52H767.88V51Z" fill="#F2E8FA"/>
<path d="M779.67 51L773.14 57.52H779.67V51Z" fill="#F2E8FA"/>
<path d="M791.46 51L784.93 57.52H791.46V51Z" fill="#F2E8FA"/>
<path d="M803.25 51L796.73 57.52H803.25V51Z" fill="#F2E8FA"/>
<path d="M815.04 51L808.52 57.52H815.04V51Z" fill="#F2E8FA"/>
<path d="M826.83 51L820.31 57.52H826.83V51Z" fill="#F2E8FA"/>
<path d="M744.12 62.32L737.59 68.85H744.12V62.32Z" fill="#F2E8FA"/>
<path d="M755.91 62.32L749.38 68.85H755.91V62.32Z" fill="#F2E8FA"/>
<path d="M767.7 62.32L761.17 68.85H767.7V62.32Z" fill="#F2E8FA"/>
<path d="M779.49 62.32L772.97 68.85H779.49V62.32Z" fill="#F2E8FA"/>
<path d="M791.28 62.32L784.76 68.85H791.28V62.32Z" fill="#F2E8FA"/>
<path d="M803.08 62.32L796.55 68.85H803.08V62.32Z" fill="#F2E8FA"/>
<path d="M814.87 62.32L808.34 68.85H814.87V62.32Z" fill="#F2E8FA"/>
<path d="M743.94 73.64L737.41 80.17H743.94V73.64Z" fill="#F2E8FA"/>
<path d="M755.73 73.64L749.21 80.17H755.73V73.64Z" fill="#F2E8FA"/>
<path d="M767.52 73.64L761 80.17H767.52V73.64Z" fill="#F2E8FA"/>
<path d="M779.32 73.64L772.79 80.17H779.32V73.64Z" fill="#F2E8FA"/>
<path d="M791.11 73.64L784.58 80.17H791.11V73.64Z" fill="#F2E8FA"/>
<path d="M802.9 73.64L796.37 80.17H802.9V73.64Z" fill="#F2E8FA"/>
<path d="M743.76 84.96L737.24 91.49H743.76V84.96Z" fill="#F2E8FA"/>
<path d="M755.56 84.96L749.03 91.49H755.56V84.96Z" fill="#F2E8FA"/>
<path d="M767.35 84.96L760.82 91.49H767.35V84.96Z" fill="#F2E8FA"/>
<path d="M779.14 84.96L772.61 91.49H779.14V84.96Z" fill="#F2E8FA"/>
<path d="M790.93 84.96L784.4 91.49H790.93V84.96Z" fill="#F2E8FA"/>
<path d="M743.59 96.29L737.06 102.82H743.59V96.29Z" fill="#F2E8FA"/>
<path d="M755.38 96.29L748.85 102.82H755.38V96.29Z" fill="#F2E8FA"/>
<path d="M767.17 96.29L760.64 102.82H767.17V96.29Z" fill="#F2E8FA"/>
<path d="M778.96 96.29L772.43 102.82H778.96V96.29Z" fill="#F2E8FA"/>
</g>
<defs>
<clipPath id="clip0_10029_128">
<rect width="1180" height="220" rx="15" fill="white"/>
</clipPath>
</defs>
</svg>
